# Blender v2.80 (sub 74) OBJ File: 'trees.blend'
# www.blender.org
mtllib forest1(no leaves).mtl
o forest1(no_leaves)_Cube.086
v 0.537233 0.000000 -0.537231
v 0.537233 0.000000 0.537231
v -0.537233 0.000000 -0.537231
v -0.537233 0.000000 0.537231
v 0.324416 2.998500 -0.324417
v 0.324416 2.998500 0.324417
v -0.324416 2.998500 0.324417
v -0.324416 2.998500 -0.324417
v 0.324416 3.647333 -0.324417
v 0.324416 3.647333 0.324417
v -0.324416 3.647333 0.324417
v -0.324416 3.647333 -0.324417
v -0.973248 2.998500 0.324418
v -0.973249 2.998500 -0.324417
v -0.973248 3.647333 0.324418
v -0.973249 3.647333 -0.324417
v -1.622081 2.998500 0.324418
v -1.622082 2.998500 -0.324417
v -1.622081 3.647333 0.324418
v -1.622082 3.647333 -0.324417
v -0.973248 5.278237 0.324418
v -0.973249 5.278237 -0.324417
v -1.622081 5.278237 0.324418
v -1.622082 5.278237 -0.324417
v 0.324416 9.171235 -0.324417
v 0.324416 9.171235 0.324417
v -0.324416 9.171235 0.324417
v -0.324416 9.171235 -0.324417
v -0.324416 0.453605 -0.324417
v 0.324416 0.453605 0.324417
v -0.324416 0.453605 0.324417
v 0.324416 0.453605 -0.324417
v -0.973248 4.462785 0.324418
v -1.622081 4.462785 0.324418
v -0.973249 4.462785 -0.324417
v -1.622082 4.462785 -0.324417
v 0.324416 6.409284 0.324417
v 0.324416 6.409284 -0.324417
v -0.324416 6.409284 -0.324417
v -0.324416 6.409284 0.324417
vt 0.144214 0.568980
vt 0.145302 0.530061
vt 0.157274 0.530291
vt 0.156186 0.569211
vt 0.163842 0.568916
vt 0.163842 0.530015
vt 0.175817 0.530015
vt 0.175817 0.568916
vt 0.106747 0.481977
vt 0.105659 0.443057
vt 0.117631 0.442827
vt 0.118719 0.481747
vt 0.145580 0.520138
vt 0.157551 0.520368
vt 0.883047 0.118235
vt 0.895115 0.118235
vt 0.895115 0.160782
vt 0.883047 0.160782
vt 0.118997 0.491670
vt 0.107025 0.491900
vt 0.133331 0.529830
vt 0.133608 0.519907
vt 0.163842 0.520097
vt 0.175817 0.520097
vt 0.121359 0.529599
vt 0.121637 0.519677
vt 0.919251 0.152123
vt 0.907183 0.152123
vt 0.907183 0.142109
vt 0.919251 0.142109
vt 0.095053 0.492131
vt 0.094776 0.482208
vt 0.215669 0.501567
vt 0.203694 0.501567
vt 0.203694 0.491631
vt 0.215669 0.491631
vt 0.191719 0.481694
vt 0.203694 0.481694
vt 0.203694 0.491612
vt 0.191719 0.491612
vt 0.215669 0.481694
vt 0.083082 0.492361
vt 0.082804 0.482438
vt 0.836904 0.148023
vt 0.824839 0.147791
vt 0.825191 0.135223
vt 0.837255 0.135455
vt 0.895115 0.144638
vt 0.907183 0.144638
vt 0.907183 0.157199
vt 0.895115 0.157199
vt 0.915099 0.173344
vt 0.903031 0.173344
vt 0.903031 0.160782
vt 0.915099 0.160782
vt 0.785985 0.145399
vt 0.798049 0.145166
vt 0.798401 0.157734
vt 0.786336 0.157967
vt 0.879089 0.118235
vt 0.867021 0.118235
vt 0.867021 0.075688
vt 0.879089 0.075688
vt 0.861872 0.118488
vt 0.849807 0.118256
vt 0.850998 0.075688
vt 0.863062 0.075920
vt 0.810953 0.174934
vt 0.823018 0.174702
vt 0.824208 0.217269
vt 0.812143 0.217502
vt 0.195647 0.474560
vt 0.195647 0.435659
vt 0.207622 0.435659
vt 0.207622 0.474560
vt 0.159914 0.576050
vt 0.179744 0.576050
vt 0.140089 0.575997
vt 0.159914 0.576379
vt 0.191719 0.481694
vt 0.211549 0.481694
vt 0.121359 0.435659
vt 0.101534 0.436040
vt 0.179744 0.435659
vt 0.191719 0.435659
vt 0.191719 0.477878
vt 0.179744 0.477878
vt 0.120178 0.533909
vt 0.108206 0.534140
vt 0.883047 0.187379
vt 0.883047 0.177365
vt 0.895115 0.177365
vt 0.895115 0.187379
vt 0.095402 0.504602
vt 0.083430 0.504832
vt 0.203694 0.504077
vt 0.191719 0.504077
vt 0.163842 0.477878
vt 0.175817 0.477878
vt 0.211550 0.545027
vt 0.199575 0.545027
vt 0.199575 0.532562
vt 0.211550 0.532562
vt 0.915099 0.085702
vt 0.915099 0.075688
vt 0.927167 0.075688
vt 0.927167 0.085702
vt 0.146761 0.477898
vt 0.158733 0.478129
vt 0.121985 0.507206
vt 0.133957 0.507436
vn -0.0000 0.0000 -1.0000
vn 1.0000 0.0000 -0.0000
vn 0.0000 0.0000 1.0000
vn -1.0000 0.0000 0.0000
vn 0.0000 1.0000 0.0000
vn 0.0000 -1.0000 -0.0000
vn 0.9053 0.4247 -0.0000
vn -0.0000 0.4247 -0.9053
vn -0.9053 0.4247 0.0000
vn 0.0000 0.4247 0.9053
usemtl Trees_Spring
s off
f 29/1/1 8/2/1 5/3/1 32/4/1
f 32/5/2 5/6/2 6/7/2 30/8/2
f 7/9/3 31/10/3 30/11/3 6/12/3
f 5/3/1 8/2/1 12/13/1 9/14/1
f 39/15/4 40/16/4 27/17/4 28/18/4
f 7/9/3 6/12/3 10/19/3 11/20/3
f 12/13/1 8/2/1 14/21/1 16/22/1
f 6/7/2 5/6/2 9/23/2 10/24/2
f 16/22/1 14/21/1 18/25/1 20/26/1
f 11/27/5 12/28/5 16/29/5 15/30/5
f 7/9/3 11/20/3 15/31/3 13/32/3
f 8/33/6 7/34/6 13/35/6 14/36/6
f 18/37/4 17/38/4 19/39/4 20/40/4
f 14/36/6 13/35/6 17/38/6 18/41/6
f 13/32/3 15/31/3 19/42/3 17/43/3
f 35/44/1 36/45/1 24/46/1 22/47/1
f 36/48/4 34/49/4 23/50/4 24/51/4
f 33/52/2 35/53/2 22/54/2 21/55/2
f 34/56/3 33/57/3 21/58/3 23/59/3
f 37/60/2 38/61/2 25/62/2 26/63/2
f 38/64/1 39/65/1 28/66/1 25/67/1
f 40/68/3 37/69/3 26/70/3 27/71/3
f 31/72/4 7/73/4 8/74/4 29/75/4
f 1/76/7 32/5/7 30/8/7 2/77/7
f 3/78/8 29/1/8 32/4/8 1/79/8
f 4/80/9 31/72/9 29/75/9 3/81/9
f 2/82/10 30/11/10 31/10/10 4/83/10
f 12/84/4 11/85/4 40/86/4 39/87/4
f 11/20/3 10/19/3 37/88/3 40/89/3
f 22/90/5 24/91/5 23/92/5 21/93/5
f 19/42/3 15/31/3 33/94/3 34/95/3
f 20/40/4 19/39/4 34/96/4 36/97/4
f 10/24/2 9/23/2 38/98/2 37/99/2
f 15/100/2 16/101/2 35/102/2 33/103/2
f 25/104/5 28/105/5 27/106/5 26/107/5
f 9/14/1 12/13/1 39/108/1 38/109/1
f 16/22/1 20/26/1 36/110/1 35/111/1
