# Blender v2.80 (sub 74) OBJ File: 'trees.blend'
# www.blender.org
mtllib forest7(no leaves).mtl
o forest7(no_leaves)_Cube.052
v -0.446345 9.266509 0.446332
v -0.446346 9.266509 -0.446332
v 0.446318 9.266509 0.446332
v 0.446318 9.266509 -0.446332
v -0.446345 8.339569 0.446332
v 0.446318 8.339569 -0.446332
v -0.446346 8.339569 -0.446332
v 0.446318 8.339569 0.446332
v -3.570668 9.266509 0.446333
v -3.570668 9.266509 -0.446331
v -3.570668 8.339569 0.446333
v -3.570668 8.339569 -0.446331
v -4.463331 9.266509 0.446333
v -4.463331 9.266509 -0.446330
v -4.463331 8.339569 0.446333
v -4.463331 8.339569 -0.446330
v -3.570668 11.498168 0.446333
v -3.570668 11.498168 -0.446331
v -4.463331 11.498168 0.446333
v -4.463331 11.498168 -0.446330
v -3.570668 12.390832 0.446333
v -3.570668 12.390832 -0.446331
v -4.463331 12.390832 0.446333
v -4.463331 12.390832 -0.446330
v -4.463330 11.498168 3.124324
v -3.570667 11.498168 3.124323
v -4.463330 12.390832 3.124324
v -3.570667 12.390832 3.124323
v -4.463330 11.498168 4.016990
v -3.570666 11.498168 4.016990
v -4.463330 12.390832 4.016990
v -3.570666 12.390832 4.016990
v -4.463330 14.176159 3.124324
v -3.570667 14.176159 3.124323
v -4.463330 14.176159 4.016990
v -3.570666 14.176159 4.016990
v -7.587653 11.498168 0.446334
v -7.587653 11.498168 -0.446329
v -7.587653 12.390832 0.446334
v -7.587653 12.390832 -0.446329
v -8.480317 11.498168 0.446335
v -8.480317 11.498168 -0.446329
v -8.480317 12.390832 0.446335
v -8.480317 12.390832 -0.446329
v -7.587653 14.176159 0.446334
v -7.587653 14.176159 -0.446329
v -8.480317 14.176159 0.446335
v -8.480317 14.176159 -0.446329
v 0.446317 8.339569 -4.016986
v 0.446317 9.266509 -4.016986
v -0.446347 9.266509 -4.016986
v -0.446347 8.339569 -4.016986
v 0.446317 8.339569 -4.909642
v 0.446317 9.266509 -4.909642
v -0.446347 9.266509 -4.909642
v -0.446347 8.339569 -4.909642
v -0.446347 10.605505 -4.016986
v 0.446317 10.605505 -4.016986
v -0.446347 10.605505 -4.909642
v 0.446317 10.605505 -4.909642
v -0.446346 17.300480 -0.446332
v 0.446318 17.300480 -0.446332
v -0.446345 17.300480 0.446332
v 0.446318 17.300480 0.446332
v 0.446318 16.497086 -0.446332
v 0.446318 16.497086 0.446332
v -0.446345 16.497086 0.446332
v -0.446346 16.497086 -0.446332
v 3.570640 17.300480 -0.446333
v 3.570641 17.300480 0.446331
v 3.570640 16.497086 -0.446333
v 3.570641 16.497086 0.446331
v 4.463304 17.300480 -0.446333
v 4.463304 17.300480 0.446330
v 4.463304 16.497086 -0.446333
v 4.463304 16.497086 0.446330
v 3.570640 19.085806 -0.446333
v 3.570641 19.085806 0.446331
v 4.463304 19.085806 -0.446333
v 4.463304 19.085806 0.446330
v -0.446346 22.210129 -0.446332
v 0.446318 22.210129 -0.446332
v -0.446345 22.210129 0.446332
v 0.446318 22.210129 0.446332
v -0.446345 6.671074 0.446332
v -0.446346 6.671074 -0.446332
v 0.446318 6.671074 0.446332
v 0.446318 6.671074 -0.446332
v -0.446345 5.669977 0.446332
v -0.446346 5.669977 -0.446332
v 0.446318 5.669977 0.446332
v 0.446318 5.669977 -0.446332
v 2.231645 5.669977 -0.446332
v 2.231645 6.671074 -0.446332
v 2.231645 6.671074 0.446331
v 2.231645 5.669977 0.446331
v 3.124308 5.669977 -0.446333
v 3.124308 6.671074 -0.446333
v 3.124309 6.671074 0.446331
v 3.124309 5.669977 0.446331
v 2.231645 7.563737 -0.446332
v 2.231645 7.563737 0.446331
v 3.124308 7.563737 -0.446333
v 3.124309 7.563737 0.446331
v 0.803391 0.000000 -0.803392
v 0.803392 0.000000 0.803398
v -0.803406 0.000000 -0.803391
v -0.803405 0.000000 0.803399
v -0.446346 1.133996 -0.446332
v 0.446318 1.133996 -0.446332
v 0.446318 1.133996 0.446332
v -0.446345 1.133996 0.446332
v 2.231645 7.117405 -0.446332
v 3.124308 7.117405 -0.446333
v 2.231645 7.117405 0.446331
v 3.124309 7.117405 0.446331
v -0.446347 9.936007 -4.016986
v -0.446347 9.936007 -4.909642
v 0.446317 9.936007 -4.016986
v 0.446317 9.936007 -4.909642
v -8.480317 13.283495 0.446335
v -8.480317 13.283495 -0.446329
v -7.587653 13.283495 0.446334
v -7.587653 13.283495 -0.446329
v -4.463330 13.283495 4.016990
v -4.463330 13.283495 3.124324
v -3.570666 13.283495 4.016990
v -3.570667 13.283495 3.124323
v 3.570641 18.193144 0.446331
v 4.463304 18.193144 0.446330
v 4.463304 18.193144 -0.446333
v 3.570640 18.193144 -0.446333
v -0.446345 19.755304 0.446332
v -0.446346 19.755304 -0.446332
v 0.446318 19.755304 0.446332
v 0.446318 19.755304 -0.446332
vt 0.130666 0.458644
vt 0.130666 0.453378
vt 0.151246 0.453378
vt 0.151246 0.458644
vt 0.163005 0.438209
vt 0.163005 0.432134
vt 0.186525 0.432134
vt 0.186525 0.438209
vt 0.157126 0.438209
vt 0.157126 0.432134
vt 0.801436 0.188829
vt 0.795133 0.188829
vt 0.795133 0.166877
vt 0.801436 0.166877
vt 0.105122 0.476477
vt 0.104372 0.482506
vt 0.098537 0.481788
vt 0.099286 0.475758
vt 0.106471 0.465623
vt 0.100635 0.464905
vt 0.148173 0.516974
vt 0.148173 0.506038
vt 0.154053 0.506038
vt 0.154053 0.516974
vt 0.163005 0.421197
vt 0.157126 0.421197
vt 0.205516 0.529413
vt 0.205986 0.540339
vt 0.200111 0.540590
vt 0.199641 0.529663
vt 0.173302 0.505457
vt 0.178102 0.501702
vt 0.181736 0.506301
vt 0.176937 0.510057
vt 0.160582 0.489358
vt 0.165382 0.485602
vt 0.078113 0.479274
vt 0.078863 0.473245
vt 0.217746 0.573371
vt 0.211866 0.573371
vt 0.211866 0.552891
vt 0.217746 0.552891
vt 0.163005 0.550647
vt 0.163005 0.556723
vt 0.157126 0.556723
vt 0.157126 0.550647
vt 0.165382 0.519098
vt 0.161747 0.514498
vt 0.211866 0.547040
vt 0.217746 0.547040
vt 0.072278 0.478556
vt 0.073027 0.472526
vt 0.160760 0.522715
vt 0.157126 0.518115
vt 0.124786 0.511272
vt 0.127416 0.506038
vt 0.140563 0.512579
vt 0.137933 0.517813
vt 0.076309 0.493792
vt 0.070474 0.493073
vt 0.163005 0.571350
vt 0.157126 0.571350
vt 0.826646 0.056346
vt 0.820343 0.056346
vt 0.820343 0.050074
vt 0.826646 0.050074
vt 0.145821 0.515196
vt 0.143192 0.520430
vt 0.136545 0.546598
vt 0.142425 0.546598
vt 0.142425 0.564152
vt 0.136545 0.564152
vt 0.192405 0.447529
vt 0.198284 0.447529
vt 0.198284 0.468009
vt 0.192405 0.468009
vt 0.142425 0.570003
vt 0.136545 0.570003
vt 0.845554 0.050074
vt 0.845554 0.056346
vt 0.217746 0.509008
vt 0.223625 0.509008
vt 0.223625 0.526562
vt 0.217746 0.526562
vt 0.135304 0.536131
vt 0.130045 0.533514
vt 0.217746 0.532413
vt 0.223625 0.532413
vt 0.223625 0.538265
vt 0.217746 0.538265
vt 0.826426 0.194728
vt 0.829244 0.189118
vt 0.834881 0.191922
vt 0.832062 0.197532
vt 0.132674 0.541365
vt 0.127416 0.538748
vt 0.766722 0.219086
vt 0.773024 0.219086
vt 0.773024 0.225358
vt 0.766722 0.225358
vt 0.922628 0.069389
vt 0.916326 0.069389
vt 0.916326 0.063118
vt 0.922628 0.063118
vt 0.818636 0.216348
vt 0.818636 0.222621
vt 0.812334 0.222621
vt 0.812334 0.216348
vt 0.911975 0.194872
vt 0.918278 0.194872
vt 0.918278 0.201144
vt 0.911975 0.201144
vt 0.922628 0.081933
vt 0.916326 0.081933
vt 0.916326 0.075661
vt 0.922628 0.075661
vt 0.820343 0.028122
vt 0.826646 0.028122
vt 0.221804 0.447529
vt 0.215924 0.447529
vt 0.215924 0.427049
vt 0.221804 0.427049
vt 0.178102 0.535197
vt 0.173480 0.538814
vt 0.223625 0.567520
vt 0.217746 0.567520
vt 0.217746 0.561669
vt 0.223625 0.561669
vt 0.181736 0.539797
vt 0.177114 0.543414
vt 0.215924 0.421197
vt 0.221804 0.421197
vt 0.198284 0.473860
vt 0.192405 0.473860
vt 0.859573 0.193066
vt 0.863469 0.197996
vt 0.858515 0.201873
vt 0.854619 0.196942
vt 0.897417 0.119566
vt 0.897417 0.113294
vt 0.903719 0.113294
vt 0.903719 0.119566
vt 0.918278 0.207415
vt 0.911975 0.207415
vt 0.911975 0.201144
vt 0.918278 0.201144
vt 0.196660 0.546441
vt 0.190555 0.546441
vt 0.190555 0.540590
vt 0.196660 0.540590
vt 0.196660 0.569847
vt 0.190555 0.569847
vt 0.211866 0.517783
vt 0.217746 0.517783
vt 0.217746 0.541188
vt 0.211866 0.541188
vt 0.853809 0.122245
vt 0.847506 0.122245
vt 0.847506 0.097157
vt 0.853809 0.097157
vt 0.145821 0.575581
vt 0.145821 0.569505
vt 0.151701 0.569505
vt 0.151701 0.575581
vt 0.192405 0.432134
vt 0.192405 0.438209
vt 0.217746 0.547040
vt 0.211866 0.547040
vt 0.878510 0.086056
vt 0.884813 0.086056
vt 0.884813 0.090760
vt 0.878510 0.090760
vt 0.841183 0.217383
vt 0.834881 0.217383
vt 0.834881 0.212679
vt 0.841183 0.212679
vt 0.766722 0.223790
vt 0.760419 0.223790
vt 0.760419 0.219086
vt 0.766722 0.219086
vt 0.878104 0.191092
vt 0.878104 0.197365
vt 0.873377 0.197365
vt 0.873377 0.191092
vt 0.911975 0.149399
vt 0.905673 0.149399
vt 0.905673 0.132152
vt 0.911975 0.132152
vt 0.205986 0.532995
vt 0.211866 0.532995
vt 0.211866 0.538261
vt 0.205986 0.538261
vt 0.092692 0.528824
vt 0.098527 0.529542
vt 0.097877 0.534768
vt 0.092042 0.534050
vt 0.124786 0.458644
vt 0.124786 0.453378
vt 0.130666 0.506038
vt 0.124786 0.506038
vt 0.205986 0.485602
vt 0.211866 0.485602
vt 0.163005 0.485602
vt 0.157126 0.485602
vt 0.196660 0.561070
vt 0.202540 0.561070
vt 0.202540 0.566921
vt 0.196660 0.566921
vt 0.196660 0.540590
vt 0.202540 0.540590
vt 0.788831 0.166877
vt 0.795133 0.166877
vt 0.795133 0.188829
vt 0.788831 0.188829
vt 0.118951 0.532056
vt 0.118301 0.537282
vt 0.220627 0.447529
vt 0.226507 0.447529
vt 0.226507 0.452795
vt 0.220627 0.452795
vt 0.157126 0.453378
vt 0.157126 0.458644
vt 0.124786 0.532774
vt 0.124137 0.538000
vt 0.846998 0.091340
vt 0.840695 0.091340
vt 0.840695 0.085069
vt 0.846998 0.085069
vt 0.915064 0.103258
vt 0.921367 0.103258
vt 0.921367 0.109529
vt 0.915064 0.109529
vt 0.804609 0.193771
vt 0.810864 0.194541
vt 0.810090 0.200765
vt 0.803835 0.199995
vt 0.754116 0.225357
vt 0.760419 0.225357
vt 0.760419 0.231629
vt 0.754116 0.231629
vt 0.818636 0.080365
vt 0.812334 0.080365
vt 0.812334 0.063118
vt 0.818636 0.063118
vt 0.775108 0.201199
vt 0.781363 0.201969
vt 0.779236 0.219086
vt 0.772981 0.218316
vt 0.899370 0.205843
vt 0.905673 0.205843
vt 0.905673 0.223090
vt 0.899370 0.223090
vt 0.205234 0.522857
vt 0.199359 0.523107
vt 0.831688 0.084570
vt 0.837990 0.084570
vt 0.837990 0.097115
vt 0.831688 0.097115
vt 0.148173 0.523536
vt 0.154053 0.523536
vt 0.107280 0.459111
vt 0.101445 0.458393
vt 0.118142 0.467059
vt 0.118951 0.460547
vt 0.124786 0.461265
vt 0.123977 0.467778
vt 0.187892 0.530164
vt 0.187610 0.523608
vt 0.174765 0.550647
vt 0.180645 0.550647
vt 0.180645 0.562350
vt 0.174765 0.562350
vt 0.220627 0.476909
vt 0.220627 0.470348
vt 0.226507 0.470348
vt 0.226507 0.476909
vt 0.182018 0.530414
vt 0.181736 0.523858
vt 0.180645 0.568201
vt 0.174765 0.568201
vt 0.804824 0.115388
vt 0.811079 0.116158
vt 0.810692 0.119270
vt 0.804438 0.118501
vt 0.921367 0.112665
vt 0.915064 0.112665
vt 0.915064 0.109529
vt 0.921367 0.109529
vt 0.873814 0.183318
vt 0.880111 0.183050
vt 0.880246 0.186183
vt 0.873949 0.186451
vt 0.807688 0.219086
vt 0.807688 0.225358
vt 0.804537 0.225358
vt 0.804537 0.219086
vt 0.154053 0.553267
vt 0.148173 0.553267
vt 0.105112 0.428886
vt 0.110947 0.429604
vt 0.218275 0.477260
vt 0.220627 0.484721
vt 0.210043 0.484721
vt 0.212395 0.477260
vt 0.198082 0.493403
vt 0.195412 0.486053
vt 0.205986 0.485602
vt 0.203956 0.493153
vt 0.218275 0.447529
vt 0.212395 0.447529
vt 0.103697 0.421197
vt 0.114201 0.422490
vt 0.156405 0.560728
vt 0.145821 0.560728
vt 0.123392 0.566706
vt 0.123392 0.572557
vt 0.120452 0.572557
vt 0.120452 0.566706
vt 0.082233 0.575482
vt 0.076353 0.575482
vt 0.076353 0.571094
vt 0.082233 0.571094
vt 0.227684 0.444602
vt 0.221804 0.444602
vt 0.221804 0.438751
vt 0.227684 0.438751
vt 0.188018 0.533087
vt 0.182144 0.533337
vt 0.123616 0.470681
vt 0.117781 0.469963
vt 0.192405 0.442598
vt 0.186525 0.442598
vt 0.227684 0.432900
vt 0.221804 0.432900
vt 0.221804 0.427049
vt 0.227684 0.427049
vt 0.151246 0.447527
vt 0.157126 0.447527
vt 0.123415 0.543807
vt 0.117580 0.543089
vt 0.140563 0.538747
vt 0.137933 0.543981
vt 0.204164 0.468009
vt 0.204164 0.473860
vt 0.130666 0.570003
vt 0.130666 0.564152
vt 0.211866 0.554351
vt 0.205986 0.554351
vt 0.785629 0.219086
vt 0.785629 0.225358
vt 0.779327 0.225358
vt 0.779327 0.219086
vt 0.785629 0.225358
vt 0.785629 0.219086
vt 0.791932 0.219086
vt 0.791932 0.225358
vt 0.095893 0.550737
vt 0.090057 0.550019
vt 0.217746 0.517783
vt 0.211866 0.517783
vt 0.211866 0.501692
vt 0.217746 0.501692
vt 0.779327 0.219086
vt 0.779327 0.225358
vt 0.773024 0.225358
vt 0.773024 0.219086
vt 0.217746 0.555818
vt 0.223625 0.555818
vt 0.226507 0.458646
vt 0.220627 0.458646
vt 0.223625 0.544116
vt 0.217746 0.544116
vt 0.172492 0.547030
vt 0.168858 0.542431
vt 0.220627 0.467422
vt 0.226507 0.467422
vt 0.186146 0.546441
vt 0.186146 0.540590
vt 0.145821 0.565117
vt 0.151701 0.565117
vt 0.124786 0.437288
vt 0.130666 0.437288
vt 0.798234 0.219086
vt 0.804537 0.219086
vt 0.804537 0.225358
vt 0.798234 0.225358
vt 0.798234 0.225358
vt 0.791932 0.225358
vt 0.791932 0.219086
vt 0.798234 0.219086
vt 0.070474 0.566706
vt 0.076353 0.566706
vt 0.076353 0.572557
vt 0.070474 0.572557
vn -0.0000 0.0000 -1.0000
vn 1.0000 0.0000 -0.0000
vn 0.0000 1.0000 -0.0000
vn 0.0000 0.0000 1.0000
vn -1.0000 0.0000 0.0000
vn 0.0000 -1.0000 0.0000
vn 0.9538 0.3003 -0.0000
vn -0.0000 0.3003 -0.9538
vn 0.0000 0.3003 0.9538
vn -0.9538 0.3003 0.0000
usemtl Trees_Spring
s off
f 65/1/1 62/2/1 69/3/1 71/4/1
f 4/5/2 6/6/2 49/7/2 50/8/2
f 6/6/2 4/5/2 3/9/2 8/10/2
f 1/11/3 2/12/3 10/13/3 9/14/3
f 8/15/4 3/16/4 1/17/4 5/18/4
f 87/19/4 8/15/4 5/18/4 85/20/4
f 85/21/5 5/22/5 7/23/5 86/24/5
f 88/25/2 6/6/2 8/10/2 87/26/2
f 86/27/1 7/28/1 6/29/1 88/30/1
f 10/31/1 12/32/1 16/33/1 14/34/1
f 2/35/1 7/36/1 12/32/1 10/31/1
f 5/18/4 1/17/4 9/37/4 11/38/4
f 7/39/6 5/40/6 11/41/6 12/42/6
f 15/43/5 13/44/5 14/45/5 16/46/5
f 10/31/1 14/34/1 20/47/1 18/48/1
f 12/42/6 11/41/6 15/49/6 16/50/6
f 11/38/4 9/37/4 13/51/4 15/52/4
f 18/48/1 20/47/1 24/53/1 22/54/1
f 9/55/2 10/56/2 18/57/2 17/58/2
f 13/51/4 9/37/4 17/59/4 19/60/4
f 14/45/5 13/44/5 19/61/5 20/62/5
f 21/63/3 22/64/3 24/65/3 23/66/3
f 17/58/2 18/57/2 22/67/2 21/68/2
f 23/69/5 19/70/5 25/71/5 27/72/5
f 19/73/4 23/74/4 39/75/4 37/76/4
f 27/72/5 25/71/5 29/77/5 31/78/5
f 21/63/3 23/66/3 27/79/3 28/80/3
f 19/81/6 17/82/6 26/83/6 25/84/6
f 17/58/2 21/68/2 28/85/2 26/86/2
f 29/87/4 30/88/4 32/89/4 31/90/4
f 127/91/2 128/92/2 34/93/2 36/94/2
f 26/86/2 28/85/2 32/95/2 30/96/2
f 25/84/6 26/83/6 30/88/6 29/87/6
f 34/97/3 33/98/3 35/99/3 36/100/3
f 128/101/1 126/102/1 33/103/1 34/104/1
f 126/105/5 125/106/5 35/107/5 33/108/5
f 125/109/4 127/110/4 36/111/4 35/112/4
f 123/113/2 124/114/2 46/115/2 45/116/2
f 23/66/3 24/65/3 40/117/3 39/118/3
f 20/119/6 19/120/6 37/121/6 38/122/6
f 24/53/1 20/47/1 38/123/1 40/124/1
f 42/125/5 41/126/5 43/127/5 44/128/5
f 40/124/1 38/123/1 42/129/1 44/130/1
f 38/122/6 37/121/6 41/131/6 42/132/6
f 37/76/4 39/75/4 43/133/4 41/134/4
f 124/135/1 122/136/1 48/137/1 46/138/1
f 121/139/4 123/140/4 45/141/4 47/142/4
f 122/143/5 121/144/5 47/145/5 48/146/5
f 52/147/5 51/148/5 55/149/5 56/150/5
f 7/151/5 2/152/5 51/148/5 52/147/5
f 6/153/6 7/154/6 52/155/6 49/156/6
f 2/157/3 4/158/3 50/159/3 51/160/3
f 56/161/1 55/162/1 54/163/1 53/164/1
f 50/8/2 49/7/2 53/165/2 54/166/2
f 49/156/6 52/155/6 56/167/6 53/168/6
f 119/169/2 120/170/2 60/171/2 58/172/2
f 120/173/1 118/174/1 59/175/1 60/176/1
f 117/177/4 119/178/4 58/179/4 57/180/4
f 118/181/5 117/182/5 57/183/5 59/184/5
f 135/185/2 136/186/2 82/187/2 84/188/2
f 68/189/5 67/190/5 63/191/5 61/192/5
f 67/193/4 66/194/4 64/195/4 63/196/4
f 65/1/1 68/197/1 61/198/1 62/2/1
f 4/199/1 2/200/1 68/197/1 65/1/1
f 1/17/4 3/16/4 66/194/4 67/193/4
f 2/201/5 1/202/5 67/190/5 68/189/5
f 3/9/2 4/5/2 65/203/2 66/204/2
f 72/205/6 71/206/6 75/207/6 76/208/6
f 66/209/6 65/210/6 71/206/6 72/205/6
f 62/211/3 64/212/3 70/213/3 69/214/3
f 64/195/4 66/194/4 72/215/4 70/216/4
f 76/217/2 75/218/2 73/219/2 74/220/2
f 71/4/1 69/3/1 73/221/1 75/222/1
f 70/216/4 72/215/4 76/223/4 74/224/4
f 131/225/1 132/226/1 77/227/1 79/228/1
f 130/229/2 131/230/2 79/231/2 80/232/2
f 129/233/4 130/234/4 80/235/4 78/236/4
f 132/237/5 129/238/5 78/239/5 77/240/5
f 136/241/1 134/242/1 81/243/1 82/244/1
f 133/245/4 135/246/4 84/247/4 83/248/4
f 134/249/5 133/250/5 83/251/5 81/252/5
f 90/253/1 86/27/1 88/30/1 92/254/1
f 88/255/3 87/256/3 95/257/3 94/258/3
f 89/259/5 85/21/5 86/24/5 90/260/5
f 91/261/4 87/19/4 85/20/4 89/262/4
f 95/263/4 96/264/4 100/265/4 99/266/4
f 92/254/1 88/30/1 94/267/1 93/268/1
f 91/269/6 92/270/6 93/271/6 96/272/6
f 87/19/4 91/261/4 96/264/4 95/263/4
f 97/273/2 98/274/2 99/275/2 100/276/2
f 93/268/1 94/267/1 98/277/1 97/278/1
f 96/272/6 93/271/6 97/279/6 100/280/6
f 115/281/4 116/282/4 104/283/4 102/284/4
f 116/285/2 114/286/2 103/287/2 104/288/2
f 114/289/1 113/290/1 101/291/1 103/292/1
f 113/293/5 115/294/5 102/295/5 101/296/5
f 109/297/5 112/298/5 89/259/5 90/260/5
f 112/299/4 111/300/4 91/261/4 89/262/4
f 111/301/7 106/302/7 105/303/7 110/304/7
f 110/305/8 105/306/8 107/307/8 109/308/8
f 92/254/1 110/305/1 109/308/1 90/253/1
f 91/309/2 111/301/2 110/304/2 92/310/2
f 108/311/9 106/312/9 111/300/9 112/299/9
f 107/313/10 108/314/10 112/298/10 109/297/10
f 94/315/5 95/316/5 115/317/5 113/318/5
f 51/319/4 50/320/4 119/321/4 117/322/4
f 39/323/2 40/324/2 124/325/2 123/326/2
f 98/277/1 94/267/1 113/327/1 114/328/1
f 95/263/4 99/266/4 116/329/4 115/330/4
f 50/8/2 54/166/2 120/331/2 119/332/2
f 28/333/1 27/334/1 126/335/1 128/336/1
f 73/221/1 69/3/1 132/337/1 131/338/1
f 70/216/4 74/224/4 130/339/4 129/340/4
f 32/95/2 28/85/2 128/341/2 127/342/2
f 43/133/4 39/75/4 123/343/4 121/344/4
f 27/72/5 31/78/5 125/345/5 126/346/5
f 61/192/5 63/191/5 133/347/5 134/348/5
f 78/349/3 80/350/3 79/351/3 77/352/3
f 46/353/3 48/354/3 47/355/3 45/356/3
f 63/196/4 64/195/4 135/357/4 133/358/4
f 64/359/2 62/360/2 136/361/2 135/362/2
f 102/363/3 104/364/3 103/365/3 101/366/3
f 44/128/5 43/127/5 121/367/5 122/368/5
f 74/220/2 73/219/2 131/369/2 130/370/2
f 31/90/4 32/89/4 127/371/4 125/372/4
f 40/124/1 44/130/1 122/373/1 124/374/1
f 99/275/2 98/274/2 114/375/2 116/376/2
f 55/149/5 51/148/5 117/377/5 118/378/5
f 54/163/1 55/162/1 118/379/1 120/380/1
f 62/2/1 61/198/1 134/381/1 136/382/1
f 58/383/3 60/384/3 59/385/3 57/386/3
f 81/387/3 83/388/3 84/389/3 82/390/3
f 69/391/5 70/392/5 129/393/5 132/394/5
