# Blender v2.80 (sub 74) OBJ File: 'trees.blend'
# www.blender.org
mtllib forest4.mtl
o forest4_Cube.082
v 0.759011 0.000000 0.759013
v 0.361434 5.468078 0.361434
v -0.759011 0.000000 0.759014
v -0.361434 5.468078 0.361434
v 0.759011 0.000000 -0.759014
v 0.361434 5.468078 -0.361434
v -0.759011 0.000000 -0.759013
v -0.361434 5.468078 -0.361434
v 0.361434 4.709067 0.361434
v -0.361434 4.709067 0.361434
v -0.361434 4.709067 -0.361434
v 0.361434 4.709067 -0.361434
v 0.361435 4.709067 3.975774
v 0.361435 5.468078 3.975774
v -0.361433 5.468078 3.975774
v -0.361433 4.709067 3.975774
v -0.361433 5.468078 3.433623
v 0.361435 5.468078 3.433623
v -0.361433 4.709067 3.433623
v 0.361435 4.709067 3.433623
v 0.361435 7.998115 3.975774
v -0.361433 7.998115 3.975774
v -0.361433 7.998115 3.433623
v 0.361435 7.998115 3.433623
v 0.361434 9.805285 0.361434
v -0.361434 9.805285 0.361434
v -0.361434 9.805285 -0.361434
v 0.361434 9.805285 -0.361434
v 0.361434 6.190945 0.361434
v -0.361434 6.190945 0.361434
v 0.361434 6.190945 -0.361434
v -0.361434 6.190945 -0.361434
v 1.807169 5.468078 -0.361435
v 1.807170 5.468078 0.361433
v 1.807170 6.190945 0.361433
v 1.807169 6.190945 -0.361435
v 2.530037 5.468078 -0.361435
v 2.530038 5.468078 0.361433
v 2.530038 6.190945 0.361433
v 2.530037 6.190945 -0.361435
v 1.807169 9.082417 -0.361435
v 1.807170 9.082417 0.361433
v 2.530037 9.082417 -0.361435
v 2.530038 9.082417 0.361433
v -0.361434 4.025957 0.361434
v -0.361434 4.025957 -0.361434
v 0.361434 4.025957 -0.361434
v 0.361434 4.025957 0.361434
v -1.445736 4.709067 0.361434
v -1.445736 4.709067 -0.361433
v -1.445736 4.025957 0.361434
v -1.445736 4.025957 -0.361433
v -2.168604 4.709067 0.361435
v -2.168604 4.709067 -0.361433
v -2.168604 4.025957 0.361435
v -2.168604 4.025957 -0.361433
v -1.445736 7.749875 0.361434
v -1.445736 7.749875 -0.361433
v -2.168604 7.749875 0.361435
v -2.168604 7.749875 -0.361433
v -2.168604 6.129227 -0.361433
v -1.445736 6.129227 -0.361433
v -1.445736 6.129227 0.361434
v -2.168604 6.129227 0.361435
v -1.445736 5.494909 -0.361433
v -1.445736 5.494909 0.361434
v -2.168604 5.494909 0.361435
v -2.168604 5.494909 -0.361433
v -2.168604 5.494909 -1.807169
v -2.168604 6.129227 -1.807169
v -1.445736 6.129227 -1.807169
v -1.445736 5.494909 -1.807169
v -2.168605 5.494909 -2.530037
v -2.168605 6.129227 -2.530037
v -1.445737 6.129227 -2.530037
v -1.445737 5.494909 -2.530037
v -2.168604 8.992060 -1.807169
v -1.445736 8.992060 -1.807169
v -2.168605 8.992060 -2.530037
v -1.445737 8.992060 -2.530037
v -0.361435 4.709067 -2.476887
v 0.361433 4.709067 -2.476887
v -0.361435 4.025957 -2.476887
v 0.361433 4.025957 -2.476887
v -0.361435 4.709067 -3.199754
v 0.361433 4.709067 -3.199754
v -0.361435 4.025957 -3.199754
v 0.361433 4.025957 -3.199754
v -0.361435 7.039447 -2.476887
v 0.361433 7.039447 -2.476887
v -0.361435 7.039447 -3.199754
v 0.361433 7.039447 -3.199754
v 0.361434 5.468078 1.883870
v 0.361434 4.709067 1.883870
v -0.361433 5.468078 1.883870
v -0.361433 4.709067 1.883870
v -0.407423 5.477519 2.598680
v -0.361433 4.709067 2.658748
v 0.361435 5.468078 2.658748
v 0.361435 4.709067 2.658748
v 2.113218 5.468078 2.658747
v 2.113218 5.468078 1.883870
v 2.113218 4.709067 2.658747
v 2.113218 4.709067 1.883870
v 2.836086 5.468078 2.658747
v 2.836086 5.468078 1.883869
v 2.836086 4.709067 2.658747
v 2.836086 4.709067 1.883869
v 2.113218 9.443851 2.658747
v 2.113218 9.443851 1.883870
v 2.836086 9.443851 2.658747
v 2.836086 9.443851 1.883869
v -3.614340 4.709067 0.361435
v -3.614340 4.709067 -0.361433
v -3.614340 4.025957 0.361435
v -3.614340 4.025957 -0.361433
v -4.337207 4.709067 0.361435
v -4.337207 4.709067 -0.361433
v -4.337207 4.025957 0.361435
v -4.337207 4.025957 -0.361433
v -3.614340 7.431468 0.361435
v -3.614340 7.431468 -0.361433
v -4.337207 7.431468 0.361435
v -4.337207 7.431468 -0.361433
v -0.361434 0.922199 0.361434
v -0.361434 0.922199 -0.361434
v 0.361434 0.922199 -0.361434
v 0.361434 0.922199 0.361434
v 1.635468 7.159563 4.779546
v 1.635468 9.677936 4.779546
v -1.499716 7.159563 4.779547
v -1.499716 9.677936 4.779547
v 1.635467 7.159563 1.644362
v 1.635467 9.677936 1.644362
v -1.499717 7.159563 1.644363
v -1.499717 9.677936 1.644363
v 1.635468 8.655825 4.779546
v -1.499716 8.655825 4.779547
v -1.499717 8.655825 1.644363
v 1.635467 8.655825 1.644362
v -0.698548 7.327762 1.204892
v -0.698548 11.033540 1.204892
v -5.311963 7.327762 1.204893
v -5.311963 11.033540 1.204893
v -0.698549 7.327762 -3.408523
v -0.698549 11.033540 -3.408523
v -5.311964 7.327762 -3.408521
v -5.311964 11.033540 -3.408521
v -0.698548 9.529506 1.204892
v -5.311963 9.529506 1.204893
v -5.311964 9.529506 -3.408521
v -0.698549 9.529506 -3.408523
v 4.136123 8.701775 3.493749
v 4.136123 12.996492 3.493749
v -1.210477 8.701775 3.493750
v -1.210477 12.996492 3.493750
v 4.136122 8.701775 -1.852851
v 4.136122 12.996492 -1.852851
v -1.210478 8.701775 -1.852849
v -1.210478 12.996492 -1.852849
v 4.136123 11.253431 3.493749
v -1.210477 11.253431 3.493750
v -1.210478 11.253431 -1.852849
v 4.136122 11.253431 -1.852851
v 1.701327 6.427870 -1.252223
v 1.701327 9.052931 -1.252223
v -1.566676 6.427870 -1.252223
v -1.566676 9.052931 -1.252223
v 1.701326 6.427870 -4.520226
v 1.701326 9.052931 -4.520226
v -1.566677 6.427870 -4.520226
v -1.566677 9.052931 -4.520226
v 1.701327 7.987520 -1.252223
v -1.566676 7.987520 -1.252223
v -1.566677 7.987520 -4.520226
v 1.701326 7.987520 -4.520226
vt 0.152566 0.471857
vt 0.156447 0.471857
vt 0.156447 0.490218
vt 0.152566 0.490218
vt 0.130575 0.466348
vt 0.130575 0.471857
vt 0.125400 0.471857
vt 0.125400 0.466348
vt 0.156447 0.503331
vt 0.156447 0.497823
vt 0.161622 0.497823
vt 0.161622 0.503331
vt 0.149033 0.432389
vt 0.147773 0.427032
vt 0.152806 0.425814
vt 0.154067 0.431172
vt 0.185365 0.445732
vt 0.180191 0.445732
vt 0.180191 0.419502
vt 0.185365 0.419502
vt 0.150168 0.437212
vt 0.155201 0.435994
vt 0.175534 0.450977
vt 0.180708 0.450977
vt 0.180708 0.466331
vt 0.175534 0.466331
vt 0.192668 0.528512
vt 0.197843 0.528512
vt 0.197843 0.536382
vt 0.192668 0.536382
vt 0.124989 0.448907
vt 0.125400 0.453847
vt 0.120244 0.454288
vt 0.119833 0.449348
vt 0.215886 0.514875
vt 0.215886 0.520384
vt 0.210712 0.520384
vt 0.210712 0.514875
vt 0.152566 0.466348
vt 0.156447 0.466348
vt 0.119729 0.477379
vt 0.119729 0.482887
vt 0.115848 0.482887
vt 0.115848 0.477379
vt 0.148289 0.507268
vt 0.143114 0.507268
vt 0.143114 0.503333
vt 0.148289 0.503333
vt 0.148289 0.512892
vt 0.143114 0.512892
vt 0.125276 0.477379
vt 0.125276 0.482887
vt 0.146590 0.471920
vt 0.147019 0.466348
vt 0.210383 0.483022
vt 0.215886 0.482586
vt 0.215557 0.488646
vt 0.210383 0.488646
vt 0.187494 0.546873
vt 0.182319 0.546873
vt 0.182319 0.528512
vt 0.187494 0.528512
vt 0.119729 0.501247
vt 0.115848 0.501247
vt 0.215886 0.538744
vt 0.210712 0.538744
vt 0.215886 0.514875
vt 0.210712 0.514875
vt 0.210712 0.488646
vt 0.215886 0.488646
vt 0.125400 0.477103
vt 0.130575 0.477103
vt 0.130575 0.503333
vt 0.125400 0.503333
vt 0.161622 0.492577
vt 0.156447 0.492577
vt 0.156447 0.466348
vt 0.161622 0.466348
vt 0.192668 0.544252
vt 0.187494 0.544252
vt 0.187494 0.533759
vt 0.192668 0.533759
vt 0.185365 0.450977
vt 0.180191 0.450977
vt 0.169842 0.445732
vt 0.169842 0.450977
vt 0.164667 0.450977
vt 0.164667 0.445732
vt 0.201406 0.465064
vt 0.196231 0.465064
vt 0.196231 0.454570
vt 0.201406 0.454570
vt 0.171970 0.492577
vt 0.171970 0.497823
vt 0.210712 0.514875
vt 0.205537 0.514875
vt 0.205537 0.509630
vt 0.210712 0.509630
vt 0.177145 0.492577
vt 0.177145 0.497823
vt 0.187494 0.528512
vt 0.192668 0.528512
vt 0.164667 0.424748
vt 0.169842 0.424748
vt 0.205537 0.488646
vt 0.210712 0.488646
vt 0.091474 0.528105
vt 0.096649 0.528105
vt 0.096649 0.549089
vt 0.091474 0.549089
vt 0.171970 0.471594
vt 0.177145 0.471594
vt 0.123123 0.426463
vt 0.117967 0.426904
vt 0.205926 0.442027
vt 0.205926 0.419502
vt 0.211100 0.419502
vt 0.211100 0.442027
vt 0.114638 0.528759
vt 0.114638 0.506235
vt 0.119812 0.506235
vt 0.119812 0.528759
vt 0.096363 0.498365
vt 0.091474 0.498365
vt 0.091474 0.493119
vt 0.096363 0.493119
vt 0.112510 0.454949
vt 0.112099 0.450010
vt 0.215886 0.466348
vt 0.221061 0.466348
vt 0.221061 0.474218
vt 0.215886 0.474218
vt 0.096363 0.506235
vt 0.091474 0.506235
vt 0.215886 0.479465
vt 0.221061 0.479465
vt 0.221061 0.489958
vt 0.215886 0.489958
vt 0.185882 0.466331
vt 0.180708 0.466331
vt 0.180708 0.454570
vt 0.185882 0.454570
vt 0.107354 0.455390
vt 0.106943 0.450450
vt 0.177145 0.507737
vt 0.182319 0.507737
vt 0.182319 0.519498
vt 0.177145 0.519498
vt 0.108207 0.465660
vt 0.113364 0.465219
vt 0.114338 0.476938
vt 0.109182 0.477379
vt 0.182319 0.487125
vt 0.177145 0.487125
vt 0.177145 0.475363
vt 0.182319 0.475363
vt 0.182319 0.491728
vt 0.177145 0.491728
vt 0.107826 0.461073
vt 0.112982 0.460632
vt 0.177145 0.503134
vt 0.182319 0.503134
vt 0.192668 0.487125
vt 0.192668 0.491728
vt 0.101988 0.493119
vt 0.101988 0.498365
vt 0.177145 0.497431
vt 0.182319 0.497431
vt 0.182319 0.497431
vt 0.177145 0.497431
vt 0.192668 0.507737
vt 0.192668 0.503134
vt 0.197843 0.503134
vt 0.197843 0.507737
vt 0.185882 0.454570
vt 0.191057 0.454570
vt 0.191057 0.465064
vt 0.185882 0.465064
vt 0.208254 0.448762
vt 0.213428 0.448762
vt 0.213428 0.459255
vt 0.208254 0.459255
vt 0.205537 0.514025
vt 0.200363 0.514025
vt 0.200363 0.509422
vt 0.205537 0.509422
vt 0.197843 0.487125
vt 0.197843 0.491728
vt 0.213428 0.464502
vt 0.208254 0.464502
vt 0.197843 0.528512
vt 0.192668 0.528512
vt 0.200363 0.488646
vt 0.205537 0.488646
vt 0.192668 0.466348
vt 0.197843 0.466348
vt 0.101823 0.548880
vt 0.096649 0.548880
vt 0.096649 0.528105
vt 0.101823 0.528105
vt 0.134304 0.435952
vt 0.135438 0.440774
vt 0.130405 0.441992
vt 0.129270 0.437170
vt 0.106998 0.548706
vt 0.101823 0.548706
vt 0.101823 0.533352
vt 0.106998 0.533352
vt 0.091474 0.528105
vt 0.091474 0.523147
vt 0.106617 0.523147
vt 0.106617 0.528105
vt 0.205537 0.536744
vt 0.205537 0.531787
vt 0.210712 0.531787
vt 0.210712 0.536744
vt 0.210712 0.514875
vt 0.205537 0.514875
vt 0.101823 0.528105
vt 0.106998 0.528105
vt 0.111792 0.523147
vt 0.111792 0.528105
vt 0.106617 0.506235
vt 0.111792 0.506235
vt 0.203079 0.465674
vt 0.203079 0.448762
vt 0.208254 0.448762
vt 0.208254 0.465674
vt 0.125400 0.420720
vt 0.130433 0.419502
vt 0.210383 0.466348
vt 0.215557 0.466348
vt 0.215557 0.477398
vt 0.210383 0.477398
vt 0.141473 0.466348
vt 0.141473 0.471857
vt 0.163407 0.423250
vt 0.164667 0.428608
vt 0.148289 0.529566
vt 0.143114 0.529566
vt 0.143114 0.518516
vt 0.148289 0.518516
vt 0.197843 0.483022
vt 0.197843 0.477398
vt 0.190540 0.419502
vt 0.190540 0.425011
vt 0.185365 0.425011
vt 0.185365 0.419502
vt 0.156447 0.508839
vt 0.156447 0.503331
vt 0.168987 0.503331
vt 0.168987 0.508839
vt 0.130575 0.518516
vt 0.130575 0.512892
vt 0.203079 0.419502
vt 0.203079 0.425011
vt 0.153836 0.503333
vt 0.153836 0.508841
vt 0.148289 0.508841
vt 0.148289 0.503333
vt 0.213946 0.419502
vt 0.219492 0.419502
vt 0.219492 0.448356
vt 0.213946 0.448356
vt 0.174161 0.503331
vt 0.174161 0.508839
vt 0.125400 0.518516
vt 0.125400 0.512892
vt 0.174161 0.537691
vt 0.168987 0.537691
vt 0.190540 0.453863
vt 0.185365 0.453863
vt 0.153836 0.537693
vt 0.148289 0.537693
vt 0.096363 0.482626
vt 0.091474 0.482626
vt 0.091474 0.477379
vt 0.096363 0.477379
vt 0.097041 0.456272
vt 0.096630 0.451332
vt 0.191057 0.454570
vt 0.196231 0.454570
vt 0.196231 0.465064
vt 0.191057 0.465064
vt 0.205537 0.514025
vt 0.205537 0.518982
vt 0.200363 0.518982
vt 0.200363 0.514025
vt 0.205537 0.538740
vt 0.200363 0.538740
vt 0.221061 0.495205
vt 0.215886 0.495205
vt 0.091885 0.456713
vt 0.091474 0.451773
vt 0.115848 0.477379
vt 0.115848 0.482626
vt 0.182319 0.548269
vt 0.177145 0.548269
vt 0.177145 0.528512
vt 0.182319 0.528512
vt 0.098678 0.475958
vt 0.093522 0.476399
vt 0.155323 0.459121
vt 0.160356 0.457903
vt 0.154097 0.466348
vt 0.164667 0.463792
vt 0.111792 0.535501
vt 0.122658 0.535501
vt 0.203079 0.448762
vt 0.213946 0.448762
vt 0.125400 0.419502
vt 0.114572 0.420428
vt 0.526394 0.886592
vt 0.533494 0.886592
vt 0.533494 0.907874
vt 0.526394 0.907874
vt 0.540595 0.907874
vt 0.533494 0.886592
vt 0.540595 0.886592
vt 0.480987 0.887494
vt 0.488087 0.887494
vt 0.488087 0.908775
vt 0.480987 0.908775
vt 0.577725 0.782692
vt 0.570624 0.782692
vt 0.570624 0.761410
vt 0.577725 0.761410
vt 0.185538 0.864930
vt 0.207559 0.864930
vt 0.207559 0.886446
vt 0.185538 0.886446
vt 0.537780 0.865311
vt 0.537780 0.886592
vt 0.515999 0.886592
vt 0.515999 0.865311
vt 0.236434 0.781399
vt 0.225925 0.781399
vt 0.225925 0.759883
vt 0.236434 0.759883
vt 0.117608 0.887358
vt 0.128118 0.887358
vt 0.128118 0.908874
vt 0.117608 0.908874
vt 0.198894 0.907963
vt 0.188385 0.907963
vt 0.188385 0.886446
vt 0.198894 0.886446
vt 0.163517 0.886446
vt 0.174026 0.886446
vt 0.174026 0.907963
vt 0.163517 0.907963
vt 0.556084 0.802680
vt 0.566533 0.802680
vt 0.566533 0.833995
vt 0.556084 0.833995
vt 0.545141 0.865311
vt 0.534692 0.865311
vt 0.534692 0.833995
vt 0.545141 0.833995
vt 0.530339 0.802680
vt 0.540788 0.802680
vt 0.540788 0.833995
vt 0.530339 0.833995
vt 0.555328 0.792726
vt 0.544880 0.792726
vt 0.544880 0.761410
vt 0.555328 0.761410
vt 0.150013 0.864930
vt 0.150013 0.833269
vt 0.182417 0.833269
vt 0.182417 0.864930
vt 0.470592 0.833995
vt 0.502642 0.833995
vt 0.502642 0.865311
vt 0.470592 0.865311
vt 0.218745 0.791544
vt 0.203281 0.791544
vt 0.203281 0.759883
vt 0.218745 0.759883
vt 0.162551 0.801608
vt 0.178015 0.801608
vt 0.178015 0.833269
vt 0.162551 0.833269
vt 0.208446 0.864930
vt 0.192981 0.864930
vt 0.192981 0.833269
vt 0.208446 0.833269
vt 0.188580 0.801608
vt 0.204045 0.801608
vt 0.204045 0.833269
vt 0.188580 0.833269
vt 0.458482 0.797703
vt 0.470592 0.797703
vt 0.470592 0.833995
vt 0.458482 0.833995
vt 0.497316 0.833995
vt 0.485207 0.833995
vt 0.485207 0.797703
vt 0.497316 0.797703
vt 0.532770 0.761410
vt 0.544880 0.761410
vt 0.544880 0.797703
vt 0.532770 0.797703
vt 0.452865 0.870288
vt 0.440755 0.870288
vt 0.440755 0.833995
vt 0.452865 0.833995
vt 0.124997 0.759883
vt 0.162551 0.759883
vt 0.162551 0.796576
vt 0.124997 0.796576
vt 0.440755 0.761410
vt 0.477899 0.761410
vt 0.477899 0.797703
vt 0.440755 0.797703
vt 0.117608 0.869962
vt 0.099686 0.869962
vt 0.099686 0.833269
vt 0.117608 0.833269
vt 0.180473 0.759883
vt 0.180473 0.796576
vt 0.162551 0.833269
vt 0.144628 0.833269
vt 0.144628 0.796576
vt 0.162551 0.796576
vt 0.087443 0.796576
vt 0.105365 0.796576
vt 0.105365 0.833269
vt 0.087443 0.833269
vt 0.570396 0.865311
vt 0.577797 0.865311
vt 0.577797 0.887494
vt 0.570396 0.887494
vt 0.448157 0.892471
vt 0.440755 0.892471
vt 0.440755 0.870288
vt 0.448157 0.870288
vt 0.571272 0.833995
vt 0.578674 0.833995
vt 0.578674 0.856178
vt 0.571272 0.856178
vt 0.573935 0.824863
vt 0.566533 0.824863
vt 0.566533 0.802680
vt 0.573935 0.802680
vt 0.140563 0.864930
vt 0.140563 0.887358
vt 0.117608 0.887358
vt 0.117608 0.864930
vt 0.493295 0.865311
vt 0.515999 0.865311
vt 0.515999 0.887494
vt 0.493295 0.887494
vt 0.233047 0.824035
vt 0.222092 0.824035
vt 0.222092 0.801608
vt 0.233047 0.801608
vt 0.208446 0.833269
vt 0.219401 0.833269
vt 0.219401 0.855697
vt 0.208446 0.855697
vt 0.105881 0.892390
vt 0.094926 0.892390
vt 0.094926 0.869962
vt 0.105881 0.869962
vt 0.207559 0.864930
vt 0.218514 0.864930
vt 0.218514 0.887358
vt 0.207559 0.887358
vn -1.0000 0.0000 0.0000
vn -0.0000 0.0000 -1.0000
vn 1.0000 0.0000 -0.0000
vn 0.0000 0.0000 1.0000
vn 0.0000 1.0000 0.0000
vn 0.0000 -1.0000 0.0000
vn -0.9992 -0.0290 0.0284
vn 0.0061 1.0000 0.0057
vn 0.0066 1.0000 -0.0061
vn -0.9990 -0.0313 -0.0306
vn 0.9183 0.3959 -0.0000
vn -0.0000 0.3959 -0.9183
vn -0.9183 0.3959 0.0000
vn 0.0000 0.3959 0.9183
usemtl Trees_Spring
s off
f 17/1/1 15/2/1 22/3/1 23/4/1
f 10/5/1 4/6/1 8/7/1 11/8/1
f 11/9/2 8/10/2 6/11/2 12/12/2
f 12/13/3 6/14/3 2/15/3 9/16/3
f 30/17/4 29/18/4 25/19/4 26/20/4
f 47/21/3 12/13/3 9/16/3 48/22/3
f 11/23/5 12/24/5 82/25/5 81/26/5
f 10/27/5 11/28/5 50/29/5 49/30/5
f 48/31/4 9/32/4 10/33/4 45/34/4
f 13/35/4 14/36/4 15/37/4 16/38/4
f 17/1/1 19/39/1 16/40/1 15/2/1
f 20/41/3 18/42/3 14/43/3 13/44/3
f 19/45/6 20/46/6 13/47/6 16/48/6
f 98/49/6 100/50/6 20/46/6 19/45/6
f 100/51/3 99/52/3 18/42/3 20/41/3
f 97/53/7 98/54/7 19/39/7 17/1/7
f 99/55/8 97/56/8 17/57/8 18/58/8
f 18/59/2 17/60/2 23/61/2 24/62/2
f 14/43/3 18/42/3 24/63/3 21/64/3
f 15/37/4 14/36/4 21/65/4 22/66/4
f 29/67/3 31/68/3 28/69/3 25/70/3
f 32/71/1 30/72/1 26/73/1 27/74/1
f 31/75/2 32/76/2 27/77/2 28/78/2
f 6/11/2 8/10/2 32/76/2 31/75/2
f 8/7/1 4/6/1 30/72/1 32/71/1
f 2/79/6 6/80/6 33/81/6 34/82/6
f 4/83/4 2/84/4 29/18/4 30/17/4
f 35/85/4 34/86/4 38/87/4 39/88/4
f 31/89/5 29/90/5 35/91/5 36/92/5
f 6/11/2 31/75/2 36/93/2 33/94/2
f 29/18/4 2/84/4 34/86/4 35/85/4
f 38/95/3 37/96/3 40/97/3 39/98/3
f 33/94/2 36/93/2 40/99/2 37/100/2
f 34/82/6 33/81/6 37/101/6 38/102/6
f 35/85/4 39/88/4 44/103/4 42/104/4
f 39/98/3 40/97/3 43/105/3 44/106/3
f 36/107/1 35/108/1 42/109/1 41/110/1
f 40/99/2 36/93/2 41/111/2 43/112/2
f 128/113/4 48/31/4 45/34/4 125/114/4
f 125/115/1 45/116/1 46/117/1 126/118/1
f 126/119/2 46/120/2 47/121/2 127/122/2
f 50/123/2 52/124/2 56/125/2 54/126/2
f 45/34/4 10/33/4 49/127/4 51/128/4
f 46/129/6 45/130/6 51/131/6 52/132/6
f 11/133/2 46/134/2 52/124/2 50/123/2
f 56/135/6 55/136/6 115/137/6 116/138/6
f 62/139/2 61/140/2 60/141/2 58/142/2
f 52/132/6 51/131/6 55/136/6 56/135/6
f 51/128/4 49/127/4 53/143/4 55/144/4
f 63/145/3 62/146/3 58/147/3 57/148/3
f 64/149/4 63/150/4 57/151/4 59/152/4
f 61/153/1 64/154/1 59/155/1 60/156/1
f 68/157/1 67/158/1 64/154/1 61/153/1
f 67/159/4 66/160/4 63/150/4 64/149/4
f 66/161/3 65/162/3 62/146/3 63/145/3
f 68/157/1 61/153/1 70/163/1 69/164/1
f 50/123/2 54/126/2 68/165/2 65/166/2
f 49/167/3 50/168/3 65/162/3 66/161/3
f 53/143/4 49/127/4 66/160/4 67/159/4
f 54/169/1 53/170/1 67/158/1 68/157/1
f 71/171/3 72/172/3 76/173/3 75/174/3
f 61/175/5 62/176/5 71/177/5 70/178/5
f 65/179/6 68/180/6 69/181/6 72/182/6
f 62/146/3 65/162/3 72/172/3 71/171/3
f 76/183/2 73/184/2 74/185/2 75/186/2
f 69/164/1 70/163/1 74/187/1 73/188/1
f 72/182/6 69/181/6 73/189/6 76/190/6
f 71/171/3 75/174/3 80/191/3 78/192/3
f 75/186/2 74/185/2 79/193/2 80/194/2
f 74/187/1 70/163/1 77/195/1 79/196/1
f 70/197/4 71/198/4 78/199/4 77/200/4
f 82/201/3 84/202/3 88/203/3 86/204/3
f 47/205/6 46/206/6 83/207/6 84/208/6
f 12/13/3 47/21/3 84/202/3 82/201/3
f 46/209/1 11/210/1 81/211/1 83/212/1
f 87/213/2 85/214/2 86/215/2 88/216/2
f 92/217/2 86/215/2 85/214/2 91/218/2
f 84/208/6 83/207/6 87/219/6 88/220/6
f 83/212/1 81/211/1 85/221/1 87/222/1
f 81/211/1 89/223/1 91/224/1 85/221/1
f 82/225/4 90/226/4 89/227/4 81/228/4
f 86/204/3 92/229/3 90/230/3 82/201/3
f 2/231/5 4/232/5 95/233/5 93/234/5
f 4/6/1 10/5/1 96/235/1 95/236/1
f 9/16/3 2/15/3 93/237/3 94/238/3
f 10/239/6 9/240/6 94/241/6 96/242/6
f 93/234/9 95/233/9 97/56/9 99/55/9
f 95/236/10 96/235/10 98/54/10 97/53/10
f 93/234/5 99/55/5 101/243/5 102/244/5
f 96/242/6 94/241/6 100/50/6 98/49/6
f 104/245/2 102/246/2 106/247/2 108/248/2
f 99/249/4 100/250/4 103/251/4 101/252/4
f 100/50/6 94/241/6 104/253/6 103/254/6
f 94/255/2 93/256/2 102/246/2 104/245/2
f 108/257/3 106/258/3 105/259/3 107/260/3
f 102/261/1 101/262/1 109/263/1 110/264/1
f 101/252/4 103/251/4 107/265/4 105/266/4
f 103/254/6 104/253/6 108/267/6 107/268/6
f 101/252/4 105/266/4 111/269/4 109/270/4
f 106/247/2 102/246/2 110/271/2 112/272/2
f 105/259/3 106/258/3 112/273/3 111/274/3
f 114/275/2 116/276/2 120/277/2 118/278/2
f 55/144/4 53/143/4 113/279/4 115/280/4
f 54/126/2 56/125/2 116/276/2 114/275/2
f 53/281/5 54/282/5 114/283/5 113/284/5
f 119/285/1 117/286/1 118/287/1 120/288/1
f 118/287/1 117/286/1 123/289/1 124/290/1
f 116/138/6 115/137/6 119/291/6 120/292/6
f 115/280/4 113/279/4 117/293/4 119/294/4
f 114/275/2 118/278/2 124/295/2 122/296/2
f 113/297/3 114/298/3 122/299/3 121/300/3
f 117/293/4 113/279/4 121/301/4 123/302/4
f 127/303/3 47/21/3 48/22/3 128/304/3
f 5/305/11 127/303/11 128/304/11 1/306/11
f 7/307/12 126/119/12 127/122/12 5/308/12
f 3/309/13 125/115/13 126/118/13 7/310/13
f 1/311/14 128/113/14 125/114/14 3/312/14
f 137/313/4 130/314/4 132/315/4 138/316/4
f 138/317/1 132/315/1 136/318/1 139/319/1
f 139/320/2 136/321/2 134/322/2 140/323/2
f 140/324/3 134/325/3 130/326/3 137/327/3
f 131/328/6 135/329/6 133/330/6 129/331/6
f 136/332/5 132/333/5 130/334/5 134/335/5
f 133/336/3 140/337/3 137/338/3 129/339/3
f 135/340/2 139/341/2 140/342/2 133/343/2
f 131/344/1 138/345/1 139/346/1 135/347/1
f 129/348/4 137/349/4 138/350/4 131/351/4
f 149/352/4 142/353/4 144/354/4 150/355/4
f 150/356/1 144/357/1 148/358/1 151/359/1
f 151/360/2 148/361/2 146/362/2 152/363/2
f 152/364/3 146/365/3 142/366/3 149/367/3
f 143/368/6 147/369/6 145/370/6 141/371/6
f 148/372/5 144/373/5 142/374/5 146/375/5
f 145/376/3 152/377/3 149/378/3 141/379/3
f 147/380/2 151/381/2 152/382/2 145/383/2
f 143/384/1 150/385/1 151/386/1 147/387/1
f 141/388/4 149/389/4 150/390/4 143/391/4
f 161/392/4 154/393/4 156/394/4 162/395/4
f 162/396/1 156/397/1 160/398/1 163/399/1
f 163/400/2 160/401/2 158/402/2 164/403/2
f 164/404/3 158/405/3 154/406/3 161/407/3
f 155/408/6 159/409/6 157/410/6 153/411/6
f 160/412/5 156/413/5 154/414/5 158/415/5
f 157/416/3 164/417/3 161/418/3 153/419/3
f 159/409/2 163/420/2 164/421/2 157/410/2
f 155/422/1 162/423/1 163/424/1 159/425/1
f 153/426/4 161/427/4 162/428/4 155/429/4
f 173/430/4 166/431/4 168/432/4 174/433/4
f 174/434/1 168/435/1 172/436/1 175/437/1
f 175/438/2 172/439/2 170/440/2 176/441/2
f 176/442/3 170/443/3 166/444/3 173/445/3
f 167/446/6 171/447/6 169/448/6 165/449/6
f 172/450/5 168/451/5 166/452/5 170/453/5
f 169/454/3 176/455/3 173/456/3 165/457/3
f 171/458/2 175/459/2 176/460/2 169/461/2
f 167/462/1 174/463/1 175/464/1 171/465/1
f 165/466/4 173/467/4 174/468/4 167/469/4
