# Blender v2.80 (sub 74) OBJ File: 'trees.blend'
# www.blender.org
mtllib forest5.mtl
o forest5_Cube.009
v 0.937296 0.000000 0.937299
v 0.446332 9.372967 0.446332
v -0.937296 0.000000 0.937300
v -0.446332 9.372967 0.446332
v 0.937296 0.000000 -0.937300
v 0.446332 9.372967 -0.446332
v -0.937296 0.000000 -0.937299
v -0.446332 9.372967 -0.446332
v 0.446332 8.435671 0.446332
v -0.446332 8.435671 0.446332
v -0.446332 8.435671 -0.446332
v 0.446332 8.435671 -0.446332
v 0.446333 8.435671 4.909649
v 0.446333 9.372967 4.909649
v -0.446330 9.372967 4.909649
v -0.446330 8.435671 4.909649
v -0.446330 9.372967 4.240151
v 0.446333 9.372967 4.240151
v -0.446330 8.435671 4.240151
v 0.446333 8.435671 4.240151
v 0.446333 12.497289 4.909649
v -0.446330 12.497289 4.909649
v -0.446330 12.497289 4.240151
v 0.446333 12.497289 4.240151
v 0.446332 14.728948 0.446332
v -0.446332 14.728948 0.446332
v -0.446332 14.728948 -0.446332
v 0.446332 14.728948 -0.446332
v 0.446332 10.265630 0.446332
v -0.446332 10.265630 0.446332
v 0.446332 10.265630 -0.446332
v -0.446332 10.265630 -0.446332
v 2.231658 9.372967 -0.446332
v 2.231659 9.372967 0.446331
v 2.231659 10.265630 0.446331
v 2.231658 10.265630 -0.446332
v 3.124322 9.372967 -0.446333
v 3.124322 9.372967 0.446331
v 3.124322 10.265630 0.446331
v 3.124322 10.265630 -0.446333
v 2.231658 13.836284 -0.446332
v 2.231659 13.836284 0.446331
v 3.124322 13.836284 -0.446333
v 3.124322 13.836284 0.446331
v -0.446332 7.592104 0.446332
v -0.446332 7.592104 -0.446332
v 0.446332 7.592104 -0.446332
v 0.446332 7.592104 0.446332
v -1.785327 8.435671 0.446332
v -1.785327 8.435671 -0.446331
v -1.785327 7.592104 0.446332
v -1.785327 7.592104 -0.446331
v -2.677990 8.435671 0.446333
v -2.677991 8.435671 -0.446331
v -2.677990 7.592104 0.446333
v -2.677991 7.592104 -0.446331
v -1.785327 12.452656 0.446332
v -1.785327 12.452656 -0.446331
v -2.677990 12.452656 0.446333
v -2.677991 12.452656 -0.446331
v -2.677991 11.046711 -0.446331
v -1.785327 11.046711 -0.446331
v -1.785327 11.046711 0.446332
v -2.677990 11.046711 0.446333
v -1.785327 10.263399 -0.446331
v -1.785327 10.263399 0.446332
v -2.677990 10.263399 0.446333
v -2.677991 10.263399 -0.446331
v -2.677991 10.263399 -2.231658
v -2.677991 11.046711 -2.231658
v -1.785328 11.046711 -2.231658
v -1.785328 10.263399 -2.231658
v -2.677991 10.263399 -3.124321
v -2.677991 11.046711 -3.124321
v -1.785328 11.046711 -3.124321
v -1.785328 10.263399 -3.124321
v -2.677991 13.724702 -2.231658
v -1.785328 13.724702 -2.231658
v -2.677991 13.724702 -3.124321
v -1.785328 13.724702 -3.124321
v -0.446333 8.435671 -4.016986
v 0.446330 8.435671 -4.016986
v -0.446333 7.592104 -4.016986
v 0.446330 7.592104 -4.016986
v -0.446333 8.435671 -4.909649
v 0.446330 8.435671 -4.909649
v -0.446333 7.592104 -4.909649
v 0.446330 7.592104 -4.909649
v -0.446333 15.576979 -4.016986
v 0.446330 15.576979 -4.016986
v -0.446333 15.576979 -4.909649
v 0.446330 15.576979 -4.909649
v 0.446330 10.935128 -4.909649
v 0.446330 10.935128 -4.016986
v -0.446333 10.935128 -4.016986
v -0.446333 10.935128 -4.909649
v 0.446330 11.631406 -4.909649
v 0.446330 11.631406 -4.016986
v -0.446333 11.631406 -4.016986
v -0.446333 11.631406 -4.909649
v 3.124321 11.631406 -4.016986
v 3.124321 10.935128 -4.016986
v 3.124321 10.935128 -4.909650
v 3.124321 11.631406 -4.909650
v 0.446332 9.372967 2.326375
v 0.446332 8.435671 2.326375
v -0.446331 9.372967 2.326376
v -0.446331 8.435671 2.326376
v -0.446331 9.372967 3.283265
v -0.446331 8.435671 3.283265
v 0.446333 9.372967 3.283265
v 0.446333 8.435671 3.283265
v 3.124323 9.372967 3.283264
v 3.124323 9.372967 2.326374
v 3.124323 8.435671 3.283264
v 3.124323 8.435671 2.326374
v 4.016987 9.372967 3.283264
v 4.016986 9.372967 2.326374
v 4.016987 8.435671 3.283264
v 4.016986 8.435671 2.326374
v 3.124323 14.282616 3.283264
v 3.124323 14.282616 2.326374
v 4.016987 14.282616 3.283264
v 4.016986 14.282616 2.326374
v 4.016984 11.631406 -4.016987
v 4.016984 10.935128 -4.016987
v 4.016984 10.935128 -4.909650
v 4.016984 11.631406 -4.909650
v 3.124321 15.202060 -4.909650
v 3.124321 15.202060 -4.016986
v 4.016984 15.202060 -4.909650
v 4.016984 15.202060 -4.016987
v -0.446334 11.631406 -7.141308
v -0.446334 10.935128 -7.141308
v 0.446329 10.935128 -7.141308
v 0.446329 11.631406 -7.141308
v -0.446334 11.631406 -7.587640
v -0.446334 10.935128 -7.587640
v 0.446329 10.935128 -7.587640
v 0.446329 11.631406 -7.587640
v -0.446334 15.648392 -7.141308
v 0.446329 15.648392 -7.141308
v -0.446334 15.648392 -7.587640
v 0.446329 15.648392 -7.587640
v -4.463317 8.435671 0.446333
v -4.463317 8.435671 -0.446330
v -4.463317 7.592104 0.446333
v -4.463317 7.592104 -0.446330
v -5.355981 8.435671 0.446333
v -5.355981 8.435671 -0.446330
v -5.355981 7.592104 0.446333
v -5.355981 7.592104 -0.446330
v -4.463317 13.345320 0.446333
v -4.463317 13.345320 -0.446330
v -5.355981 13.345320 0.446333
v -5.355981 13.345320 -0.446330
v -2.231658 8.435671 2.326376
v -2.231658 9.372967 2.326376
v -2.231658 9.372967 3.283266
v -2.231658 8.435671 3.283266
v -3.124321 8.435671 2.326376
v -3.124321 9.372967 2.326376
v -3.124321 9.372967 3.283266
v -3.124321 8.435671 3.283266
v -2.231658 13.836284 2.326376
v -2.231658 13.836284 3.283266
v -3.124321 13.836284 2.326376
v -3.124321 13.836284 3.283266
v -0.446332 1.138816 0.446332
v -0.446332 1.138816 -0.446332
v 0.446332 1.138816 -0.446332
v 0.446332 1.138816 0.446332
v 5.685542 12.921858 5.910764
v 5.685542 20.754345 5.910764
v -6.550016 12.921858 5.910768
v -6.550016 20.754345 5.910768
v 5.685537 12.921858 -7.968660
v 5.685537 20.754345 -7.968660
v -6.550021 12.921858 -7.968656
v -6.550021 20.754345 -7.968656
v 1.772597 11.925622 6.948121
v 1.772597 14.657037 6.948121
v -1.627808 11.925622 6.948122
v -1.627808 14.657037 6.948122
v 1.772596 11.925622 3.547716
v 1.772596 14.657037 3.547716
v -1.627810 11.925622 3.547717
v -1.627810 14.657037 3.547717
v 5.685542 18.404598 5.910764
v -6.550016 18.404598 5.910768
v -6.550021 18.404598 -7.968656
v 5.685537 18.404598 -7.968660
v 1.772597 13.548460 6.948121
v -1.627808 13.548460 6.948122
v -1.627810 13.548460 3.547717
v 1.772596 13.548460 3.547716
vt 0.094903 0.556824
vt 0.090745 0.556824
vt 0.090745 0.537366
vt 0.094903 0.537366
vt 0.144246 0.519567
vt 0.144246 0.513729
vt 0.149790 0.513729
vt 0.149790 0.519567
vt 0.178826 0.520212
vt 0.178826 0.514374
vt 0.184370 0.514374
vt 0.184370 0.520212
vt 0.134722 0.427999
vt 0.133777 0.422239
vt 0.139247 0.421336
vt 0.140192 0.427096
vt 0.173891 0.550948
vt 0.168347 0.550948
vt 0.168347 0.523151
vt 0.173891 0.523151
vt 0.135572 0.433183
vt 0.141043 0.432280
vt 0.184370 0.578864
vt 0.178826 0.578864
vt 0.178826 0.556625
vt 0.184370 0.556625
vt 0.235692 0.438490
vt 0.230147 0.438490
vt 0.230147 0.430150
vt 0.235692 0.430150
vt 0.104544 0.463668
vt 0.104848 0.468913
vt 0.099314 0.469236
vt 0.099009 0.463991
vt 0.151714 0.581802
vt 0.151714 0.575965
vt 0.157258 0.575965
vt 0.157258 0.581802
vt 0.094903 0.562661
vt 0.090745 0.562661
vt 0.223578 0.553633
vt 0.223578 0.547796
vt 0.227736 0.547796
vt 0.227736 0.553633
vt 0.155393 0.501330
vt 0.157976 0.506249
vt 0.154297 0.508192
vt 0.151714 0.503273
vt 0.160652 0.498553
vt 0.163235 0.503473
vt 0.217635 0.553633
vt 0.217635 0.547796
vt 0.100846 0.556824
vt 0.100846 0.562661
vt 0.114405 0.538500
vt 0.111220 0.543050
vt 0.106356 0.539626
vt 0.109541 0.535075
vt 0.145458 0.577245
vt 0.139914 0.577245
vt 0.139914 0.557787
vt 0.145458 0.557787
vt 0.223578 0.528338
vt 0.227736 0.528338
vt 0.151714 0.556507
vt 0.157258 0.556507
vt 0.121481 0.583372
vt 0.115937 0.583372
vt 0.115937 0.555575
vt 0.121481 0.555575
vt 0.149790 0.508170
vt 0.144246 0.508170
vt 0.144246 0.480374
vt 0.149790 0.480374
vt 0.184370 0.508815
vt 0.178826 0.508815
vt 0.178826 0.481018
vt 0.184370 0.481018
vt 0.145458 0.557787
vt 0.151003 0.557787
vt 0.151003 0.568907
vt 0.145458 0.568907
vt 0.173891 0.556507
vt 0.168347 0.556507
vt 0.157258 0.550948
vt 0.157258 0.556507
vt 0.151714 0.556507
vt 0.151714 0.550948
vt 0.079656 0.570305
vt 0.085200 0.570305
vt 0.085200 0.581425
vt 0.079656 0.581425
vt 0.195458 0.508815
vt 0.195458 0.514374
vt 0.115937 0.583372
vt 0.110393 0.583372
vt 0.110393 0.577812
vt 0.115937 0.577812
vt 0.201002 0.508815
vt 0.201002 0.514374
vt 0.151003 0.574467
vt 0.145458 0.574467
vt 0.151714 0.528710
vt 0.157258 0.528710
vt 0.110393 0.555575
vt 0.115937 0.555575
vt 0.201002 0.578862
vt 0.195458 0.578862
vt 0.195458 0.556625
vt 0.201002 0.556625
vt 0.195458 0.486577
vt 0.201002 0.486577
vt 0.102217 0.423546
vt 0.096682 0.423869
vt 0.209668 0.456440
vt 0.209668 0.416250
vt 0.215212 0.416250
vt 0.215212 0.456440
vt 0.220684 0.521208
vt 0.220684 0.481018
vt 0.226228 0.481018
vt 0.226228 0.521208
vt 0.090745 0.532113
vt 0.090745 0.537366
vt 0.085200 0.537366
vt 0.085200 0.532113
vt 0.091011 0.469720
vt 0.090707 0.464476
vt 0.233280 0.558917
vt 0.227736 0.558917
vt 0.227736 0.550577
vt 0.233280 0.550577
vt 0.099061 0.532113
vt 0.099061 0.537366
vt 0.233280 0.545018
vt 0.227736 0.545018
vt 0.227736 0.533898
vt 0.233280 0.533898
vt 0.151003 0.583223
vt 0.145458 0.583223
vt 0.145458 0.574467
vt 0.151003 0.574467
vt 0.085477 0.470043
vt 0.085172 0.464798
vt 0.128826 0.541109
vt 0.134370 0.541109
vt 0.134370 0.549865
vt 0.128826 0.549865
vt 0.086418 0.486277
vt 0.091953 0.485954
vt 0.092460 0.494695
vt 0.086925 0.495018
vt 0.085200 0.553627
vt 0.090745 0.553627
vt 0.090745 0.562383
vt 0.085200 0.562383
vt 0.085200 0.548749
vt 0.090745 0.548749
vt 0.086136 0.481407
vt 0.091671 0.481084
vt 0.128826 0.536231
vt 0.134370 0.536231
vt 0.074112 0.553627
vt 0.074112 0.548749
vt 0.085200 0.520730
vt 0.090745 0.520730
vt 0.128826 0.524848
vt 0.134370 0.524848
vt 0.085200 0.537366
vt 0.090745 0.537366
vt 0.145458 0.541109
vt 0.145458 0.536231
vt 0.151003 0.536231
vt 0.151003 0.541109
vt 0.074112 0.581425
vt 0.068568 0.581425
vt 0.068568 0.570305
vt 0.074112 0.570305
vt 0.101833 0.579341
vt 0.096289 0.579341
vt 0.096289 0.568221
vt 0.101833 0.568221
vt 0.134370 0.579344
vt 0.128826 0.579344
vt 0.128826 0.574465
vt 0.134370 0.574465
vt 0.068568 0.553627
vt 0.068568 0.548749
vt 0.096289 0.562661
vt 0.101833 0.562661
vt 0.151003 0.557787
vt 0.145458 0.557787
vt 0.128826 0.557787
vt 0.134370 0.557787
vt 0.074112 0.570305
vt 0.068568 0.570305
vt 0.234822 0.528272
vt 0.229277 0.528272
vt 0.229277 0.511594
vt 0.234822 0.511594
vt 0.112839 0.431610
vt 0.113690 0.436794
vt 0.108219 0.437697
vt 0.107369 0.432513
vt 0.104848 0.555575
vt 0.110393 0.555575
vt 0.110393 0.577814
vt 0.104848 0.577814
vt 0.182099 0.416250
vt 0.184442 0.420949
vt 0.164607 0.430896
vt 0.162264 0.426197
vt 0.134370 0.578607
vt 0.134370 0.573353
vt 0.139914 0.573353
vt 0.139914 0.578607
vt 0.173891 0.581079
vt 0.168347 0.581079
vt 0.168347 0.556507
vt 0.173891 0.556507
vt 0.110393 0.583374
vt 0.104848 0.583374
vt 0.159648 0.433382
vt 0.157305 0.428683
vt 0.132569 0.504946
vt 0.127025 0.504946
vt 0.127025 0.480374
vt 0.132569 0.480374
vt 0.168524 0.451183
vt 0.173483 0.448696
vt 0.184442 0.470674
vt 0.179483 0.473161
vt 0.162802 0.581079
vt 0.162802 0.556507
vt 0.134370 0.557787
vt 0.139914 0.557787
vt 0.171549 0.444818
vt 0.166590 0.447305
vt 0.132569 0.524848
vt 0.127025 0.524848
vt 0.127025 0.509282
vt 0.132569 0.509282
vt 0.104848 0.417153
vt 0.110319 0.416250
vt 0.156127 0.457400
vt 0.154193 0.453521
vt 0.184370 0.556625
vt 0.189914 0.556625
vt 0.189914 0.573305
vt 0.184370 0.573305
vt 0.201074 0.479238
vt 0.201074 0.474902
vt 0.206619 0.474902
vt 0.206619 0.479238
vt 0.110393 0.509282
vt 0.110393 0.504946
vt 0.184442 0.479238
vt 0.184442 0.474902
vt 0.227736 0.558917
vt 0.233280 0.558917
vt 0.233280 0.575596
vt 0.227736 0.575597
vt 0.128826 0.548652
vt 0.125640 0.553202
vt 0.116084 0.546474
vt 0.119269 0.541924
vt 0.132569 0.519567
vt 0.132569 0.513729
vt 0.150769 0.419435
vt 0.151714 0.425195
vt 0.176243 0.490321
vt 0.178826 0.495241
vt 0.168494 0.500696
vt 0.165911 0.495777
vt 0.155486 0.488714
vt 0.160745 0.485938
vt 0.123962 0.524848
vt 0.128826 0.528273
vt 0.195458 0.556625
vt 0.195458 0.550788
vt 0.201002 0.550788
vt 0.201002 0.556625
vt 0.206619 0.446827
vt 0.206619 0.452664
vt 0.189986 0.452664
vt 0.189986 0.446827
vt 0.176243 0.515455
vt 0.170984 0.518231
vt 0.178826 0.556625
vt 0.178826 0.550788
vt 0.218261 0.452664
vt 0.218261 0.446827
vt 0.224204 0.446827
vt 0.224204 0.452664
vt 0.224204 0.449884
vt 0.230147 0.449884
vt 0.230147 0.480460
vt 0.224204 0.480460
vt 0.184442 0.452664
vt 0.184442 0.446827
vt 0.178826 0.520374
vt 0.173567 0.523151
vt 0.184442 0.416250
vt 0.189986 0.416250
vt 0.195458 0.520212
vt 0.201002 0.520212
vt 0.218261 0.416250
vt 0.224204 0.416250
vt 0.121481 0.555575
vt 0.127025 0.555575
vt 0.127025 0.559911
vt 0.121481 0.559911
vt 0.104848 0.509282
vt 0.104848 0.504946
vt 0.201074 0.452664
vt 0.206619 0.452664
vt 0.189914 0.578864
vt 0.184370 0.578864
vt 0.104848 0.482709
vt 0.110393 0.482709
vt 0.127025 0.582149
vt 0.121481 0.582149
vt 0.189914 0.556625
vt 0.195458 0.556625
vt 0.195458 0.578862
vt 0.189914 0.578862
vt 0.203774 0.573303
vt 0.203774 0.577639
vt 0.201002 0.577639
vt 0.201002 0.573303
vt 0.235692 0.430150
vt 0.230147 0.430150
vt 0.230147 0.416250
vt 0.235692 0.416250
vt 0.217635 0.573303
vt 0.217635 0.577639
vt 0.096289 0.579341
vt 0.090745 0.579341
vt 0.090745 0.565441
vt 0.096289 0.565441
vt 0.223179 0.582987
vt 0.217635 0.582987
vt 0.217635 0.578650
vt 0.223179 0.578650
vt 0.153648 0.458643
vt 0.151714 0.454764
vt 0.201002 0.548286
vt 0.203774 0.548286
vt 0.090745 0.562661
vt 0.096289 0.562661
vt 0.217635 0.553633
vt 0.223179 0.553633
vt 0.162802 0.581524
vt 0.157258 0.581524
vt 0.157258 0.556507
vt 0.162802 0.556507
vt 0.167285 0.479775
vt 0.164805 0.481018
vt 0.074112 0.532113
vt 0.074112 0.537366
vt 0.068568 0.537366
vt 0.068568 0.532113
vt 0.074407 0.470689
vt 0.074103 0.465444
vt 0.079656 0.581425
vt 0.074112 0.581425
vt 0.074112 0.570305
vt 0.079656 0.570305
vt 0.099061 0.537366
vt 0.099061 0.532113
vt 0.104605 0.532113
vt 0.104605 0.537366
vt 0.099061 0.501536
vt 0.104605 0.501536
vt 0.227736 0.528338
vt 0.233280 0.528338
vt 0.068872 0.471012
vt 0.068568 0.465767
vt 0.068568 0.501536
vt 0.074112 0.501536
vt 0.234822 0.511594
vt 0.229277 0.511594
vt 0.229277 0.481018
vt 0.234822 0.481018
vt 0.076177 0.501214
vt 0.070643 0.501536
vt 0.152903 0.483795
vt 0.158162 0.481018
vt 0.217635 0.508815
vt 0.217635 0.514652
vt 0.206546 0.514652
vt 0.206546 0.508815
vt 0.109713 0.555575
vt 0.104848 0.552151
vt 0.201002 0.548286
vt 0.201002 0.542449
vt 0.212091 0.542449
vt 0.212091 0.548286
vt 0.230147 0.444047
vt 0.230147 0.449884
vt 0.224204 0.449884
vt 0.224204 0.444047
vt 0.201002 0.514652
vt 0.201002 0.508815
vt 0.217635 0.542449
vt 0.217635 0.548286
vt 0.212091 0.514652
vt 0.217635 0.514652
vt 0.224204 0.416250
vt 0.230147 0.416250
vt 0.201002 0.481018
vt 0.206546 0.481018
vt 0.224204 0.480460
vt 0.218261 0.480460
vt 0.218261 0.452664
vt 0.224204 0.452664
vt 0.142080 0.472839
vt 0.147550 0.471936
vt 0.140226 0.480374
vt 0.151714 0.478478
vt 0.217635 0.528338
vt 0.229277 0.528338
vt 0.206619 0.463573
vt 0.218261 0.463573
vt 0.104848 0.416250
vt 0.093225 0.416928
vt 0.592790 0.888769
vt 0.581991 0.888769
vt 0.581991 0.825300
vt 0.592790 0.825300
vt 0.484796 0.897296
vt 0.473996 0.897296
vt 0.473996 0.825300
vt 0.484796 0.825300
vt 0.571191 0.825300
vt 0.581991 0.825300
vt 0.581991 0.888769
vt 0.571191 0.888769
vt 0.520794 0.897296
vt 0.509995 0.897296
vt 0.509995 0.825300
vt 0.520794 0.825300
vt 0.210559 0.786340
vt 0.210559 0.859131
vt 0.153704 0.859131
vt 0.153704 0.786340
vt 0.530231 0.753304
vt 0.530231 0.825300
vt 0.473996 0.825300
vt 0.473996 0.753304
vt 0.519477 0.808766
vt 0.534607 0.808766
vt 0.534607 0.864684
vt 0.519477 0.864684
vt 0.556756 0.808766
vt 0.571886 0.808766
vt 0.571886 0.864684
vt 0.556756 0.864684
vt 0.482199 0.808766
vt 0.497329 0.808766
vt 0.497329 0.864684
vt 0.482199 0.864684
vt 0.475180 0.920602
vt 0.460050 0.920602
vt 0.460050 0.864684
vt 0.475180 0.864684
vt 0.113551 0.747926
vt 0.160472 0.747925
vt 0.160472 0.804461
vt 0.113551 0.804461
vt 0.552868 0.752848
vt 0.552868 0.808766
vt 0.506459 0.808766
vt 0.506459 0.752848
vt 0.169639 0.931922
vt 0.144162 0.931922
vt 0.144162 0.859131
vt 0.169639 0.859131
vt 0.169639 0.859131
vt 0.195116 0.859131
vt 0.195116 0.923301
vt 0.169639 0.923301
vt 0.133244 0.931922
vt 0.107767 0.931922
vt 0.107767 0.859131
vt 0.133244 0.859131
vt 0.242430 0.923301
vt 0.216953 0.923301
vt 0.216953 0.859131
vt 0.242430 0.859131
vt 0.151241 0.917531
vt 0.128848 0.917531
vt 0.128848 0.860996
vt 0.151241 0.860996
vt 0.113551 0.804461
vt 0.135944 0.804461
vt 0.135944 0.860996
vt 0.113551 0.860996
vt 0.188931 0.804461
vt 0.211324 0.804461
vt 0.211324 0.860996
vt 0.188931 0.860996
vt 0.151241 0.804461
vt 0.173634 0.804461
vt 0.173634 0.860996
vt 0.151241 0.860996
vn -1.0000 0.0000 0.0000
vn -0.0000 0.0000 -1.0000
vn 1.0000 0.0000 -0.0000
vn 0.0000 0.0000 1.0000
vn 0.0000 1.0000 0.0000
vn 0.0000 -1.0000 0.0000
vn 0.9183 0.3959 -0.0000
vn -0.0000 0.3959 -0.9183
vn -0.9183 0.3959 0.0000
vn 0.0000 0.3959 0.9183
usemtl Trees_Spring
s off
f 17/1/1 15/2/1 22/3/1 23/4/1
f 10/5/1 4/6/1 8/7/1 11/8/1
f 11/9/2 8/10/2 6/11/2 12/12/2
f 12/13/3 6/14/3 2/15/3 9/16/3
f 30/17/4 29/18/4 25/19/4 26/20/4
f 47/21/3 12/13/3 9/16/3 48/22/3
f 11/23/5 12/24/5 82/25/5 81/26/5
f 10/27/5 11/28/5 50/29/5 49/30/5
f 48/31/4 9/32/4 10/33/4 45/34/4
f 13/35/4 14/36/4 15/37/4 16/38/4
f 17/1/1 19/39/1 16/40/1 15/2/1
f 20/41/3 18/42/3 14/43/3 13/44/3
f 19/45/6 20/46/6 13/47/6 16/48/6
f 110/49/6 112/50/6 20/46/6 19/45/6
f 112/51/3 111/52/3 18/42/3 20/41/3
f 109/53/1 110/54/1 19/39/1 17/1/1
f 111/55/5 109/56/5 17/57/5 18/58/5
f 18/59/2 17/60/2 23/61/2 24/62/2
f 14/43/3 18/42/3 24/63/3 21/64/3
f 15/37/4 14/36/4 21/65/4 22/66/4
f 29/67/3 31/68/3 28/69/3 25/70/3
f 32/71/1 30/72/1 26/73/1 27/74/1
f 31/75/2 32/76/2 27/77/2 28/78/2
f 6/11/2 8/10/2 32/76/2 31/75/2
f 8/7/1 4/6/1 30/72/1 32/71/1
f 2/79/6 6/80/6 33/81/6 34/82/6
f 4/83/4 2/84/4 29/18/4 30/17/4
f 35/85/4 34/86/4 38/87/4 39/88/4
f 31/89/5 29/90/5 35/91/5 36/92/5
f 6/11/2 31/75/2 36/93/2 33/94/2
f 29/18/4 2/84/4 34/86/4 35/85/4
f 38/95/3 37/96/3 40/97/3 39/98/3
f 33/94/2 36/93/2 40/99/2 37/100/2
f 34/82/6 33/81/6 37/101/6 38/102/6
f 35/85/4 39/88/4 44/103/4 42/104/4
f 39/98/3 40/97/3 43/105/3 44/106/3
f 36/107/1 35/108/1 42/109/1 41/110/1
f 40/99/2 36/93/2 41/111/2 43/112/2
f 172/113/4 48/31/4 45/34/4 169/114/4
f 169/115/1 45/116/1 46/117/1 170/118/1
f 170/119/2 46/120/2 47/121/2 171/122/2
f 50/123/2 52/124/2 56/125/2 54/126/2
f 45/34/4 10/33/4 49/127/4 51/128/4
f 46/129/6 45/130/6 51/131/6 52/132/6
f 11/133/2 46/134/2 52/124/2 50/123/2
f 56/135/6 55/136/6 147/137/6 148/138/6
f 62/139/2 61/140/2 60/141/2 58/142/2
f 52/132/6 51/131/6 55/136/6 56/135/6
f 51/128/4 49/127/4 53/143/4 55/144/4
f 63/145/3 62/146/3 58/147/3 57/148/3
f 64/149/4 63/150/4 57/151/4 59/152/4
f 61/153/1 64/154/1 59/155/1 60/156/1
f 68/157/1 67/158/1 64/154/1 61/153/1
f 67/159/4 66/160/4 63/150/4 64/149/4
f 66/161/3 65/162/3 62/146/3 63/145/3
f 68/157/1 61/153/1 70/163/1 69/164/1
f 50/123/2 54/126/2 68/165/2 65/166/2
f 49/167/3 50/168/3 65/162/3 66/161/3
f 53/143/4 49/127/4 66/160/4 67/159/4
f 54/169/1 53/170/1 67/158/1 68/157/1
f 71/171/3 72/172/3 76/173/3 75/174/3
f 61/175/5 62/176/5 71/177/5 70/178/5
f 65/179/6 68/180/6 69/181/6 72/182/6
f 62/146/3 65/162/3 72/172/3 71/171/3
f 76/183/2 73/184/2 74/185/2 75/186/2
f 69/164/1 70/163/1 74/187/1 73/188/1
f 72/182/6 69/181/6 73/189/6 76/190/6
f 71/171/3 75/174/3 80/191/3 78/192/3
f 75/186/2 74/185/2 79/193/2 80/194/2
f 74/187/1 70/163/1 77/195/1 79/196/1
f 70/197/4 71/198/4 78/199/4 77/200/4
f 82/201/3 84/202/3 88/203/3 86/204/3
f 47/205/6 46/206/6 83/207/6 84/208/6
f 12/13/3 47/21/3 84/202/3 82/201/3
f 46/209/1 11/210/1 81/211/1 83/212/1
f 87/213/2 85/214/2 86/215/2 88/216/2
f 98/217/3 97/218/3 92/219/3 90/220/3
f 84/208/6 83/207/6 87/221/6 88/222/6
f 83/212/1 81/211/1 85/223/1 87/224/1
f 99/225/4 98/226/4 90/227/4 89/228/4
f 100/229/1 99/230/1 89/231/1 91/232/1
f 97/218/2 100/233/2 91/234/2 92/219/2
f 86/215/2 85/214/2 96/235/2 93/236/2
f 85/223/1 81/211/1 95/237/1 96/238/1
f 81/239/4 82/240/4 94/241/4 95/242/4
f 82/201/3 86/204/3 93/243/3 94/244/3
f 96/238/1 100/229/1 133/245/1 134/246/1
f 96/238/1 95/237/1 99/230/1 100/229/1
f 95/242/4 94/241/4 98/226/4 99/225/4
f 94/247/6 93/248/6 103/249/6 102/250/6
f 103/251/2 104/252/2 128/253/2 127/254/2
f 98/226/4 94/241/4 102/255/4 101/256/4
f 93/257/2 97/258/2 104/252/2 103/251/2
f 97/259/5 98/260/5 101/261/5 104/262/5
f 2/263/5 4/264/5 107/265/5 105/266/5
f 4/6/1 10/5/1 108/267/1 107/268/1
f 9/16/3 2/15/3 105/269/3 106/270/3
f 10/271/6 9/272/6 106/273/6 108/274/6
f 105/266/5 107/265/5 109/56/5 111/55/5
f 108/274/6 110/49/6 160/275/6 157/276/6
f 105/266/5 111/55/5 113/277/5 114/278/5
f 108/274/6 106/273/6 112/50/6 110/49/6
f 116/279/2 114/280/2 118/281/2 120/282/2
f 111/283/4 112/284/4 115/285/4 113/286/4
f 112/50/6 106/273/6 116/287/6 115/288/6
f 106/289/2 105/290/2 114/280/2 116/279/2
f 120/291/3 118/292/3 117/293/3 119/294/3
f 114/295/1 113/296/1 121/297/1 122/298/1
f 113/286/4 115/285/4 119/299/4 117/300/4
f 115/288/6 116/287/6 120/301/6 119/302/6
f 113/286/4 117/300/4 123/303/4 121/304/4
f 118/281/2 114/280/2 122/305/2 124/306/2
f 117/293/3 118/292/3 124/307/3 123/308/3
f 126/309/3 127/310/3 128/311/3 125/312/3
f 101/256/4 102/255/4 126/313/4 125/314/4
f 128/253/2 104/252/2 129/315/2 131/316/2
f 102/250/6 103/249/6 127/317/6 126/318/6
f 101/256/4 125/314/4 132/319/4 130/320/4
f 125/312/3 128/311/3 131/321/3 132/322/3
f 104/323/1 101/324/1 130/325/1 129/326/1
f 136/327/3 135/328/3 139/329/3 140/330/3
f 100/331/5 97/332/5 136/333/5 133/334/5
f 97/335/3 93/336/3 135/328/3 136/327/3
f 93/337/6 96/338/6 134/339/6 135/340/6
f 139/341/2 138/342/2 137/343/2 140/344/2
f 134/246/1 133/245/1 137/345/1 138/346/1
f 136/327/3 140/330/3 144/347/3 142/348/3
f 135/340/6 134/339/6 138/349/6 139/350/6
f 140/344/2 137/343/2 143/351/2 144/352/2
f 133/353/4 136/354/4 142/355/4 141/356/4
f 137/345/1 133/245/1 141/357/1 143/358/1
f 146/359/2 148/360/2 152/361/2 150/362/2
f 55/144/4 53/143/4 145/363/4 147/364/4
f 54/126/2 56/125/2 148/360/2 146/359/2
f 53/365/5 54/366/5 146/367/5 145/368/5
f 151/369/1 149/370/1 150/371/1 152/372/1
f 150/371/1 149/370/1 155/373/1 156/374/1
f 148/138/6 147/137/6 151/375/6 152/376/6
f 147/364/4 145/363/4 149/377/4 151/378/4
f 146/359/2 150/362/2 156/379/2 154/380/2
f 145/381/3 146/382/3 154/383/3 153/384/3
f 149/377/4 145/363/4 153/385/4 155/386/4
f 157/276/6 160/275/6 164/387/6 161/388/6
f 107/389/2 108/390/2 157/391/2 158/392/2
f 109/56/5 107/265/5 158/393/5 159/394/5
f 110/395/4 109/396/4 159/397/4 160/398/4
f 162/399/1 161/400/1 164/401/1 163/402/1
f 158/392/2 157/391/2 161/403/2 162/404/2
f 160/398/4 159/397/4 163/405/4 164/406/4
f 163/405/4 159/397/4 166/407/4 168/408/4
f 162/399/1 163/402/1 168/409/1 167/410/1
f 158/392/2 162/404/2 167/411/2 165/412/2
f 159/413/3 158/414/3 165/415/3 166/416/3
f 171/417/3 47/21/3 48/22/3 172/418/3
f 5/419/7 171/417/7 172/418/7 1/420/7
f 7/421/8 170/119/8 171/122/8 5/422/8
f 3/423/9 169/115/9 170/118/9 7/424/9
f 1/425/10 172/113/10 169/114/10 3/426/10
f 189/427/4 174/428/4 176/429/4 190/430/4
f 190/431/1 176/432/1 180/433/1 191/434/1
f 191/435/2 180/436/2 178/437/2 192/438/2
f 192/439/3 178/440/3 174/441/3 189/442/3
f 175/443/6 179/444/6 177/445/6 173/446/6
f 180/447/5 176/448/5 174/449/5 178/450/5
f 193/451/4 182/452/4 184/453/4 194/454/4
f 194/455/1 184/456/1 188/457/1 195/458/1
f 195/459/2 188/460/2 186/461/2 196/462/2
f 196/463/3 186/464/3 182/465/3 193/466/3
f 183/467/6 187/468/6 185/469/6 181/470/6
f 188/471/5 184/472/5 182/473/5 186/474/5
f 177/475/3 192/476/3 189/477/3 173/478/3
f 179/479/2 191/480/2 192/481/2 177/482/2
f 175/483/1 190/484/1 191/485/1 179/486/1
f 173/487/4 189/488/4 190/489/4 175/490/4
f 185/491/3 196/492/3 193/493/3 181/494/3
f 187/495/2 195/496/2 196/497/2 185/498/2
f 183/499/1 194/500/1 195/501/1 187/502/1
f 181/503/4 193/504/4 194/505/4 183/506/4
