# Blender v2.80 (sub 74) OBJ File: 'trees.blend'
# www.blender.org
mtllib forest2(no leaves).mtl
o forest2(no_leaves)_Cube.087
v 0.739124 0.000000 -0.739128
v 0.739125 0.000000 0.739128
v -0.739125 0.000000 -0.739128
v -0.739124 0.000000 0.739128
v 0.446332 5.030134 -0.446332
v 0.446332 5.030134 0.446332
v -0.446332 5.030134 0.446332
v -0.446332 5.030134 -0.446332
v 0.446332 5.922798 -0.446332
v 0.446332 5.922798 0.446332
v -0.446332 5.922798 0.446332
v -0.446332 5.922798 -0.446332
v -1.338995 5.030134 0.446332
v -1.338995 5.030134 -0.446331
v -1.338995 5.922798 0.446332
v -1.338995 5.922798 -0.446331
v -2.231658 5.030134 0.446332
v -2.231659 5.030134 -0.446331
v -2.231658 5.922798 0.446332
v -2.231659 5.922798 -0.446331
v -1.338995 7.261793 0.446332
v -1.338995 7.261793 -0.446331
v -2.231658 7.261793 0.446332
v -2.231659 7.261793 -0.446331
v 0.446332 12.617774 -0.446332
v 0.446332 12.617774 0.446332
v -0.446332 12.617774 0.446332
v -0.446332 12.617774 -0.446332
v -0.446332 3.120349 0.446332
v -0.446332 3.120349 -0.446332
v 0.446332 3.120349 -0.446332
v 0.446332 3.120349 0.446332
v -0.446332 3.995767 0.446332
v 0.446332 3.995767 -0.446332
v -0.446332 3.995767 -0.446332
v 0.446332 3.995767 0.446332
v 0.446332 3.995767 2.231658
v 0.446332 3.120349 2.231658
v -0.446331 3.120349 2.231659
v -0.446331 3.995767 2.231659
v 0.446333 3.995767 3.124322
v 0.446333 3.120349 3.124322
v -0.446331 3.120349 3.124322
v -0.446331 3.995767 3.124322
v 0.446332 8.213482 2.231658
v -0.446331 8.213482 2.231659
v 0.446333 8.213482 3.124322
v -0.446331 8.213482 3.124322
v -0.446332 0.624070 -0.446332
v 0.446332 0.624070 0.446332
v -0.446332 0.624070 0.446332
v 0.446332 0.624070 -0.446332
v -1.338995 6.592295 0.446332
v -2.231658 6.592295 0.446332
v -1.338995 6.592295 -0.446331
v -2.231659 6.592295 -0.446331
v 0.446332 9.270286 0.446332
v 0.446332 9.270286 -0.446332
v -0.446332 9.270286 -0.446332
v -0.446332 9.270286 0.446332
v 0.446333 6.104624 3.124322
v -0.446331 6.104624 3.124322
v 0.446332 6.104624 2.231658
v -0.446331 6.104624 2.231659
vt 0.170675 0.542264
vt 0.170675 0.520501
vt 0.178265 0.520501
vt 0.178265 0.542264
vt 0.189684 0.514386
vt 0.190915 0.492660
vt 0.198492 0.493112
vt 0.197261 0.514838
vt 0.158235 0.551510
vt 0.158727 0.529754
vt 0.166314 0.529934
vt 0.165822 0.551691
vt 0.198923 0.485493
vt 0.191347 0.485041
vt 0.191857 0.476039
vt 0.199433 0.476491
vt 0.166691 0.513289
vt 0.159104 0.513109
vt 0.159280 0.505329
vt 0.166867 0.505509
vt 0.134643 0.482127
vt 0.142230 0.481947
vt 0.142434 0.490962
vt 0.134847 0.491143
vt 0.166487 0.522305
vt 0.158900 0.522124
vt 0.214612 0.446978
vt 0.222201 0.446978
vt 0.222201 0.455996
vt 0.214612 0.455996
vt 0.910879 0.117231
vt 0.919013 0.117231
vt 0.919013 0.148512
vt 0.910879 0.148512
vt 0.222201 0.463778
vt 0.214612 0.463778
vt 0.151516 0.512928
vt 0.151692 0.505148
vt 0.142610 0.498742
vt 0.135023 0.498923
vt 0.143929 0.512748
vt 0.144105 0.504968
vt 0.812899 0.172917
vt 0.804765 0.172917
vt 0.804765 0.164571
vt 0.812899 0.164571
vt 0.207023 0.463778
vt 0.207023 0.455996
vt 0.222201 0.550611
vt 0.214612 0.550611
vt 0.214612 0.542825
vt 0.222201 0.542825
vt 0.207023 0.535038
vt 0.214612 0.535038
vt 0.214612 0.542821
vt 0.207023 0.542821
vt 0.222201 0.535038
vt 0.199433 0.463778
vt 0.199433 0.455996
vt 0.835443 0.142047
vt 0.827310 0.141853
vt 0.827452 0.135599
vt 0.835584 0.135793
vt 0.894609 0.194938
vt 0.902744 0.194938
vt 0.902744 0.201195
vt 0.894609 0.201195
vt 0.852981 0.200263
vt 0.861116 0.200263
vt 0.861116 0.206519
vt 0.852981 0.206519
vt 0.886474 0.110214
vt 0.894609 0.110214
vt 0.894609 0.116470
vt 0.886474 0.116470
vt 0.818141 0.172901
vt 0.826273 0.172707
vt 0.826980 0.203980
vt 0.818848 0.204174
vt 0.852274 0.117416
vt 0.844141 0.117223
vt 0.844848 0.085950
vt 0.852981 0.086144
vt 0.902744 0.135238
vt 0.910879 0.135238
vt 0.910879 0.166519
vt 0.902744 0.166519
vt 0.134470 0.474498
vt 0.119469 0.482489
vt 0.119296 0.474859
vt 0.142058 0.474317
vt 0.882721 0.184465
vt 0.874587 0.184465
vt 0.874587 0.164759
vt 0.882721 0.164759
vt 0.898795 0.151955
vt 0.906930 0.151955
vt 0.906930 0.168648
vt 0.898795 0.168648
vt 0.175762 0.491757
vt 0.176194 0.484138
vt 0.207023 0.545503
vt 0.199433 0.545503
vt 0.199433 0.529930
vt 0.207023 0.529930
vt 0.188343 0.564903
vt 0.180754 0.564903
vt 0.180754 0.557271
vt 0.188343 0.557271
vt 0.199433 0.522144
vt 0.207023 0.522144
vt 0.168186 0.491305
vt 0.168618 0.483686
vt 0.111881 0.482669
vt 0.111709 0.475039
vt 0.141566 0.452561
vt 0.133978 0.452741
vt 0.862679 0.106108
vt 0.854558 0.105623
vt 0.855673 0.085950
vt 0.863794 0.086434
vt 0.793074 0.143908
vt 0.801207 0.143714
vt 0.801652 0.163415
vt 0.793520 0.163609
vt 0.874587 0.184465
vt 0.866452 0.184465
vt 0.866452 0.164759
vt 0.874587 0.164759
vt 0.143929 0.446978
vt 0.131365 0.447277
vt 0.155622 0.556974
vt 0.168186 0.557273
vt 0.186887 0.519753
vt 0.199433 0.520501
vt 0.168186 0.547788
vt 0.180754 0.547788
vt 0.168186 0.547788
vt 0.175775 0.547788
vt 0.175775 0.553625
vt 0.168186 0.553625
vt 0.222201 0.446978
vt 0.229790 0.446978
vt 0.229790 0.476161
vt 0.222201 0.476161
vt 0.144237 0.499133
vt 0.151824 0.499313
vt 0.169658 0.465332
vt 0.177234 0.465784
vt 0.808713 0.204174
vt 0.808713 0.212520
vt 0.800579 0.212520
vt 0.800579 0.204174
vt 0.894609 0.209541
vt 0.902744 0.209541
vt 0.195932 0.557271
vt 0.188343 0.557271
vt 0.188343 0.538886
vt 0.195932 0.538886
vt 0.159939 0.476154
vt 0.167526 0.476334
vt 0.119884 0.500868
vt 0.112297 0.501049
vt 0.207023 0.469615
vt 0.199433 0.469615
vt 0.214612 0.548657
vt 0.207023 0.548657
vt 0.222201 0.492961
vt 0.214612 0.492961
vt 0.902744 0.205379
vt 0.902744 0.197033
vt 0.910879 0.197033
vt 0.910879 0.205379
vt 0.180754 0.538886
vt 0.188343 0.538886
vt 0.143270 0.527917
vt 0.135682 0.528098
vn 0.0000 0.0000 1.0000
vn -1.0000 0.0000 0.0000
vn -0.0000 0.0000 -1.0000
vn 1.0000 0.0000 -0.0000
vn 0.0000 1.0000 0.0000
vn 0.0000 -1.0000 -0.0000
vn 0.9053 0.4247 -0.0000
vn -0.0000 0.4247 -0.9053
vn -0.9053 0.4247 0.0000
vn 0.0000 0.4247 0.9053
usemtl Trees_Spring
s off
f 50/1/1 32/2/1 29/3/1 51/4/1
f 51/5/2 29/6/2 30/7/2 49/8/2
f 49/9/3 30/10/3 31/11/3 52/12/3
f 35/13/2 33/14/2 7/15/2 8/16/2
f 5/17/3 8/18/3 12/19/3 9/20/3
f 36/21/4 34/22/4 5/23/4 6/24/4
f 34/25/3 35/26/3 8/18/3 5/17/3
f 33/27/1 36/28/1 6/29/1 7/30/1
f 59/31/2 60/32/2 27/33/2 28/34/2
f 7/30/1 6/29/1 10/35/1 11/36/1
f 12/19/3 8/18/3 14/37/3 16/38/3
f 6/24/4 5/23/4 9/39/4 10/40/4
f 16/38/3 14/37/3 18/41/3 20/42/3
f 11/43/5 12/44/5 16/45/5 15/46/5
f 7/30/1 11/36/1 15/47/1 13/48/1
f 8/49/6 7/50/6 13/51/6 14/52/6
f 18/53/2 17/54/2 19/55/2 20/56/2
f 14/52/6 13/51/6 17/54/6 18/57/6
f 13/48/1 15/47/1 19/58/1 17/59/1
f 55/60/3 56/61/3 24/62/3 22/63/3
f 56/64/2 54/65/2 23/66/2 24/67/2
f 53/68/4 55/69/4 22/70/4 21/71/4
f 54/72/1 53/73/1 21/74/1 23/75/1
f 57/76/4 58/77/4 25/78/4 26/79/4
f 58/80/3 59/81/3 28/82/3 25/83/3
f 60/84/1 57/85/1 26/86/1 27/87/1
f 32/88/4 36/21/4 37/89/4 38/90/4
f 31/11/3 30/10/3 35/26/3 34/25/3
f 32/88/4 31/91/4 34/22/4 36/21/4
f 30/7/2 29/6/2 33/14/2 35/13/2
f 63/92/3 64/93/3 46/94/3 45/95/3
f 36/96/5 33/97/5 40/98/5 37/99/5
f 33/14/2 29/6/2 39/100/2 40/101/2
f 29/102/6 32/103/6 38/104/6 39/105/6
f 43/106/1 42/107/1 41/108/1 44/109/1
f 39/105/6 38/104/6 42/110/6 43/111/6
f 40/101/2 39/100/2 43/112/2 44/113/2
f 38/90/4 37/89/4 41/114/4 42/115/4
f 52/116/4 31/91/4 32/88/4 50/117/4
f 64/118/2 62/119/2 48/120/2 46/121/2
f 61/122/4 63/123/4 45/124/4 47/125/4
f 62/126/1 61/127/1 47/128/1 48/129/1
f 1/130/7 52/116/7 50/117/7 2/131/7
f 3/132/8 49/9/8 52/12/8 1/133/8
f 4/134/9 51/5/9 49/8/9 3/135/9
f 2/136/10 50/1/10 51/4/10 4/137/10
f 15/138/4 16/139/4 55/140/4 53/141/4
f 12/142/2 11/143/2 60/144/2 59/145/2
f 16/38/3 20/42/3 56/146/3 55/147/3
f 40/101/2 44/113/2 62/148/2 64/149/2
f 46/150/5 48/151/5 47/152/5 45/153/5
f 22/154/5 24/67/5 23/66/5 21/155/5
f 37/156/3 40/157/3 64/158/3 63/159/3
f 9/20/3 12/19/3 59/160/3 58/161/3
f 41/114/4 37/89/4 63/162/4 61/163/4
f 19/58/1 15/47/1 53/164/1 54/165/1
f 20/56/2 19/55/2 54/166/2 56/167/2
f 11/36/1 10/35/1 57/168/1 60/169/1
f 25/170/5 28/171/5 27/172/5 26/173/5
f 44/109/1 41/108/1 61/174/1 62/175/1
f 10/40/4 9/39/4 58/176/4 57/177/4
