# Blender v2.80 (sub 74) OBJ File: 'trees.blend'
# www.blender.org
mtllib forest3(no leaves).mtl
o forest3(no_leaves)_Cube.085
v 0.739124 0.000000 -0.739128
v 0.739125 0.000000 0.739128
v -0.739125 0.000000 -0.739128
v -0.739124 0.000000 0.739128
v 0.446332 7.190340 -0.446332
v 0.446332 7.190340 0.446332
v -0.446332 7.190340 0.446332
v -0.446332 7.190340 -0.446332
v 0.446332 8.083003 -0.446332
v 0.446332 8.083003 0.446332
v -0.446332 8.083003 0.446332
v -0.446332 8.083003 -0.446332
v -1.338995 7.190340 0.446332
v -1.338995 7.190340 -0.446331
v -1.338995 8.083003 0.446332
v -1.338995 8.083003 -0.446331
v -2.231658 7.190340 0.446332
v -2.231659 7.190340 -0.446331
v -2.231658 8.083003 0.446332
v -2.231659 8.083003 -0.446331
v -1.338995 9.421999 0.446332
v -1.338995 9.421999 -0.446331
v -2.231658 9.421999 0.446332
v -2.231659 9.421999 -0.446331
v 0.446332 12.617774 -0.446332
v 0.446332 12.617774 0.446332
v -0.446332 12.617774 0.446332
v -0.446332 12.617774 -0.446332
v -0.446332 5.280554 0.446332
v -0.446332 5.280554 -0.446332
v 0.446332 5.280554 -0.446332
v 0.446332 5.280554 0.446332
v -0.446332 6.155972 0.446332
v 0.446332 6.155972 -0.446332
v -0.446332 6.155972 -0.446332
v 0.446332 6.155972 0.446332
v 0.446332 6.155972 2.231658
v 0.446332 5.280554 2.231658
v -0.446331 5.280554 2.231659
v -0.446331 6.155972 2.231659
v 0.446333 6.155972 3.124322
v 0.446333 5.280554 3.124322
v -0.446331 5.280554 3.124322
v -0.446331 6.155972 3.124322
v 0.446332 11.631021 2.231658
v -0.446331 11.631021 2.231659
v 0.446333 11.631021 3.124322
v -0.446331 11.631021 3.124322
v -0.446332 0.624070 -0.446332
v 0.446332 0.624070 0.446332
v -0.446332 0.624070 0.446332
v 0.446332 0.624070 -0.446332
v 1.338995 7.190340 -0.446332
v 1.338995 7.190340 0.446331
v 1.338995 8.083003 -0.446332
v 1.338995 8.083003 0.446331
v 2.231658 7.190340 -0.446332
v 2.231659 7.190340 0.446331
v 2.231658 8.083003 -0.446332
v 2.231659 8.083003 0.446331
v 1.338995 9.868330 -0.446332
v 1.338995 9.868330 0.446331
v 2.231658 9.868330 -0.446332
v 2.231659 9.868330 0.446331
v -0.446331 8.264830 2.231659
v 0.446332 8.264830 2.231658
v -0.446331 8.264830 3.124322
v 0.446333 8.264830 3.124322
v -0.446331 9.319259 2.231659
v -0.446331 9.319259 3.124322
v 0.446332 9.319259 2.231658
v 0.446333 9.319259 3.124322
v 0.446333 9.319259 4.463317
v 0.446333 8.264830 4.463317
v -0.446330 8.264830 4.463317
v -0.446330 9.319259 4.463317
v 0.446333 9.319259 5.355981
v 0.446333 8.264830 5.355981
v -0.446330 8.264830 5.355981
v -0.446330 9.319259 5.355981
v 0.446333 11.104586 4.463317
v -0.446330 11.104586 4.463317
v 0.446333 11.104586 5.355981
v -0.446330 11.104586 5.355981
v 0.446333 10.211923 4.463317
v 0.446333 10.211923 5.355981
v -0.446330 10.211923 4.463317
v -0.446330 10.211923 5.355981
v -1.785326 10.211923 3.124323
v -1.785326 10.211923 2.231659
v -2.677990 10.211923 2.231660
v -2.677989 10.211923 3.124323
v -1.785326 8.264830 3.124323
v -1.785326 8.264830 2.231659
v -1.785326 9.319259 2.231659
v -1.785326 9.319259 3.124323
v -2.677989 8.264830 3.124323
v -2.677990 8.264830 2.231660
v -2.677990 9.319259 2.231660
v -2.677989 9.319259 3.124323
v -1.785326 11.104586 3.124323
v -1.785326 11.104586 2.231659
v -2.677989 11.104586 3.124323
v -2.677990 11.104586 2.231660
v -0.446333 6.155972 -3.124322
v -0.446333 5.280554 -3.124322
v 0.446331 5.280554 -3.124322
v 0.446331 6.155972 -3.124322
v -0.446333 6.155972 -3.825332
v -0.446333 5.280554 -3.825332
v 0.446330 5.280554 -3.825332
v 0.446330 6.155972 -3.825332
v -0.446333 7.048636 -3.124322
v 0.446331 7.048636 -3.124322
v -0.446333 7.048636 -3.825332
v 0.446330 7.048636 -3.825332
v 0.446332 10.475140 2.231658
v -0.446331 10.475140 3.124322
v -0.446331 10.475140 2.231659
v 1.338995 8.975667 -0.446332
v 2.231658 8.975667 -0.446332
v 0.446333 10.475140 3.124322
v 1.338995 8.975667 0.446331
v 2.231659 8.975667 0.446331
v 0.446332 10.350389 0.446332
v 0.446332 10.350389 -0.446332
v -0.446332 10.350389 -0.446332
v -0.446332 10.350389 0.446332
v 0.446330 6.602304 -3.825332
v 0.446331 6.602304 -3.124322
v -0.446333 6.602304 -3.825332
v -0.446333 6.602304 -3.124322
v -2.231659 8.752501 -0.446331
v -1.338995 8.752501 -0.446331
v -2.231658 8.752501 0.446332
v -1.338995 8.752501 0.446332
vt 0.086460 0.566485
vt 0.086460 0.528331
vt 0.093771 0.528331
vt 0.093771 0.566485
vt 0.179847 0.429657
vt 0.179847 0.467811
vt 0.172536 0.467811
vt 0.172536 0.429657
vt 0.220370 0.530416
vt 0.220370 0.492263
vt 0.227681 0.492263
vt 0.227681 0.530416
vt 0.172536 0.474984
vt 0.179847 0.474984
vt 0.179847 0.483459
vt 0.172536 0.483459
vt 0.166795 0.536733
vt 0.159484 0.536733
vt 0.159484 0.529419
vt 0.166795 0.529419
vt 0.118172 0.479520
vt 0.111788 0.483086
vt 0.107659 0.475686
vt 0.114042 0.472120
vt 0.166795 0.545208
vt 0.159484 0.545208
vt 0.203350 0.545208
vt 0.196039 0.545208
vt 0.196039 0.536733
vt 0.203350 0.536733
vt 0.890602 0.220134
vt 0.897548 0.220134
vt 0.897548 0.237783
vt 0.890602 0.237783
vt 0.196039 0.529419
vt 0.203350 0.529419
vt 0.152173 0.536733
vt 0.152173 0.529419
vt 0.817095 0.189501
vt 0.817095 0.181660
vt 0.824932 0.181660
vt 0.824932 0.189501
vt 0.144862 0.536733
vt 0.144862 0.529419
vt 0.905776 0.187273
vt 0.897939 0.187273
vt 0.897939 0.179431
vt 0.905776 0.179431
vt 0.210661 0.529419
vt 0.210661 0.536733
vt 0.118102 0.551599
vt 0.125413 0.551599
vt 0.125413 0.558914
vt 0.118102 0.558914
vt 0.096169 0.551599
vt 0.103480 0.551599
vt 0.103480 0.558913
vt 0.096169 0.558913
vt 0.125413 0.566230
vt 0.118102 0.566230
vt 0.217972 0.529419
vt 0.217972 0.536733
vt 0.849377 0.164389
vt 0.843095 0.164389
vt 0.843095 0.159675
vt 0.849377 0.159675
vt 0.801259 0.199156
vt 0.807540 0.199156
vt 0.807540 0.203869
vt 0.801259 0.203869
vt 0.884905 0.203655
vt 0.878623 0.203655
vt 0.878623 0.198942
vt 0.884905 0.198942
vt 0.905911 0.164389
vt 0.899629 0.164389
vt 0.899629 0.159675
vt 0.905911 0.159675
vt 0.816560 0.213256
vt 0.809614 0.213256
vt 0.809614 0.195606
vt 0.816560 0.195606
vt 0.841982 0.178990
vt 0.835037 0.178990
vt 0.835037 0.161340
vt 0.841982 0.161340
vt 0.876711 0.178990
vt 0.869765 0.178990
vt 0.869765 0.161340
vt 0.876711 0.161340
vt 0.121667 0.485783
vt 0.130939 0.472387
vt 0.134434 0.478650
vt 0.882165 0.139585
vt 0.889111 0.139585
vt 0.889111 0.160434
vt 0.882165 0.160434
vt 0.115283 0.489349
vt 0.899530 0.105964
vt 0.892584 0.105964
vt 0.892584 0.096966
vt 0.899530 0.096966
vt 0.788777 0.217711
vt 0.795722 0.217711
vt 0.795722 0.231611
vt 0.788777 0.231611
vt 0.194469 0.467811
vt 0.194469 0.474984
vt 0.209091 0.491309
vt 0.201780 0.491309
vt 0.201780 0.476679
vt 0.209091 0.476679
vt 0.152173 0.545208
vt 0.159484 0.545208
vt 0.159484 0.552381
vt 0.152173 0.552381
vt 0.201780 0.469364
vt 0.209091 0.469364
vt 0.201780 0.467811
vt 0.201780 0.474984
vt 0.137322 0.468821
vt 0.140817 0.475084
vt 0.133873 0.522661
vt 0.140256 0.519095
vt 0.874321 0.220638
vt 0.867376 0.220638
vt 0.867376 0.211640
vt 0.874321 0.211640
vt 0.797601 0.109714
vt 0.791536 0.113102
vt 0.787152 0.105246
vt 0.793217 0.101858
vt 0.860430 0.220638
vt 0.860430 0.211640
vt 0.134291 0.528331
vt 0.144862 0.522426
vt 0.217972 0.535571
vt 0.230079 0.535571
vt 0.182245 0.424503
vt 0.170138 0.424503
vt 0.084062 0.571639
vt 0.096169 0.571639
vt 0.121757 0.542960
vt 0.114446 0.542960
vt 0.114446 0.535645
vt 0.121757 0.535645
vt 0.140652 0.437275
vt 0.134269 0.440842
vt 0.130705 0.434456
vt 0.137088 0.430889
vt 0.231024 0.483992
vt 0.223713 0.483992
vt 0.223713 0.476678
vt 0.231024 0.476678
vt 0.174106 0.559837
vt 0.166795 0.559837
vt 0.166795 0.552523
vt 0.174106 0.552523
vt 0.166795 0.559837
vt 0.159484 0.559837
vt 0.159484 0.552523
vt 0.166795 0.552523
vt 0.232594 0.550199
vt 0.225283 0.550199
vt 0.225283 0.542885
vt 0.232594 0.542885
vt 0.174106 0.536733
vt 0.174106 0.529419
vt 0.181417 0.529419
vt 0.181417 0.536733
vt 0.103480 0.551599
vt 0.110791 0.551599
vt 0.110791 0.558914
vt 0.103480 0.558914
vt 0.188728 0.536733
vt 0.188728 0.529419
vt 0.216402 0.469364
vt 0.223713 0.469364
vt 0.223713 0.476678
vt 0.216402 0.476678
vt 0.110791 0.566230
vt 0.103480 0.566230
vt 0.181417 0.536733
vt 0.181417 0.529419
vt 0.862819 0.189691
vt 0.855874 0.189691
vt 0.855874 0.182742
vt 0.862819 0.182742
vt 0.159484 0.569660
vt 0.152173 0.569660
vt 0.889111 0.153482
vt 0.896057 0.153482
vt 0.896057 0.160431
vt 0.889111 0.160431
vt 0.848928 0.230097
vt 0.855874 0.230097
vt 0.855874 0.237046
vt 0.848928 0.237046
vt 0.855874 0.189691
vt 0.848928 0.189691
vt 0.848928 0.182742
vt 0.855874 0.182742
vt 0.122520 0.457301
vt 0.128903 0.453734
vt 0.201780 0.492263
vt 0.194469 0.492263
vt 0.227369 0.469364
vt 0.220058 0.469364
vt 0.220058 0.452084
vt 0.227369 0.452084
vt 0.132724 0.542960
vt 0.132724 0.551599
vt 0.121757 0.551599
vt 0.118310 0.449757
vt 0.124694 0.446191
vt 0.881267 0.229014
vt 0.888213 0.229014
vt 0.888213 0.239439
vt 0.881267 0.239439
vt 0.220058 0.443445
vt 0.227369 0.443445
vt 0.114446 0.551599
vt 0.138478 0.448385
vt 0.874321 0.229014
vt 0.881267 0.239439
vt 0.874321 0.239439
vt 0.215457 0.563497
vt 0.208146 0.563497
vt 0.208146 0.552524
vt 0.215457 0.552524
vt 0.174106 0.568476
vt 0.166795 0.568476
vt 0.144862 0.444819
vt 0.799195 0.202555
vt 0.792250 0.202555
vt 0.792250 0.195606
vt 0.799195 0.195606
vt 0.208146 0.545208
vt 0.215457 0.545208
vt 0.848928 0.218589
vt 0.841982 0.218589
vt 0.841982 0.211640
vt 0.848928 0.211640
vt 0.904494 0.209432
vt 0.897548 0.209432
vt 0.897548 0.202484
vt 0.904494 0.202484
vt 0.813760 0.103033
vt 0.807696 0.106421
vt 0.804310 0.100354
vt 0.810375 0.096966
vt 0.113696 0.441488
vt 0.120079 0.437922
vt 0.223713 0.483992
vt 0.216402 0.483992
vt 0.174106 0.522105
vt 0.181417 0.522105
vt 0.200835 0.564150
vt 0.193524 0.564150
vt 0.193524 0.554679
vt 0.200835 0.554679
vt 0.114446 0.542960
vt 0.107135 0.542960
vt 0.107135 0.535645
vt 0.114446 0.535645
vt 0.186213 0.564150
vt 0.186213 0.554679
vt 0.220058 0.433974
vt 0.227369 0.433974
vt 0.174106 0.557323
vt 0.181417 0.557323
vt 0.181417 0.564637
vt 0.174106 0.564637
vt 0.181417 0.522105
vt 0.188728 0.522105
vt 0.209091 0.443445
vt 0.201780 0.443445
vt 0.201780 0.436131
vt 0.209091 0.436131
vt 0.208146 0.552524
vt 0.200835 0.552524
vt 0.200835 0.545208
vt 0.208146 0.545208
vt 0.209091 0.452084
vt 0.208146 0.563497
vt 0.200835 0.563497
vt 0.096169 0.551599
vt 0.096169 0.542960
vt 0.107135 0.551599
vt 0.166795 0.568476
vt 0.159484 0.568476
vt 0.841982 0.218589
vt 0.835037 0.218589
vt 0.835037 0.211640
vt 0.841982 0.211640
vt 0.201780 0.452084
vt 0.114446 0.551599
vt 0.903003 0.146534
vt 0.896057 0.146534
vt 0.896057 0.139585
vt 0.903003 0.139585
vt 0.882165 0.108012
vt 0.875220 0.108012
vt 0.875220 0.101064
vt 0.882165 0.101064
vt 0.792250 0.202555
vt 0.785304 0.202555
vt 0.785304 0.195606
vt 0.792250 0.195606
vt 0.092638 0.493785
vt 0.096133 0.500048
vt 0.091120 0.502848
vt 0.087625 0.496585
vt 0.152173 0.572899
vt 0.144862 0.572899
vt 0.144862 0.550953
vt 0.152173 0.550953
vt 0.150603 0.474984
vt 0.150603 0.467811
vt 0.232594 0.564686
vt 0.225283 0.564686
vt 0.225283 0.557513
vt 0.232594 0.557513
vt 0.144862 0.474984
vt 0.144862 0.467811
vt 0.769838 0.159752
vt 0.765076 0.162413
vt 0.763383 0.159379
vt 0.768146 0.156719
vt 0.144862 0.545208
vt 0.152173 0.545208
vt 0.808123 0.224661
vt 0.808123 0.231611
vt 0.802668 0.231611
vt 0.802668 0.224661
vt 0.904494 0.219855
vt 0.897548 0.219855
vt 0.897548 0.216381
vt 0.904494 0.216381
vt 0.806141 0.224661
vt 0.806141 0.217711
vt 0.809613 0.217711
vt 0.809613 0.224661
vt 0.821145 0.148399
vt 0.826600 0.148399
vt 0.826600 0.151873
vt 0.821145 0.151873
vt 0.816560 0.230906
vt 0.816560 0.237855
vt 0.809614 0.237855
vt 0.809614 0.230906
vt 0.897548 0.237094
vt 0.897548 0.230144
vt 0.904494 0.230144
vt 0.904494 0.237094
vt 0.140035 0.565488
vt 0.132724 0.565488
vt 0.132724 0.546909
vt 0.140035 0.546909
vt 0.159484 0.510841
vt 0.166795 0.510841
vt 0.899530 0.103916
vt 0.899530 0.096966
vt 0.906476 0.096966
vt 0.906476 0.103916
vt 0.217972 0.535571
vt 0.225283 0.535571
vt 0.225283 0.554149
vt 0.217972 0.554149
vt 0.788777 0.231611
vt 0.788777 0.238560
vt 0.781831 0.238560
vt 0.781831 0.231611
vt 0.896057 0.160432
vt 0.896057 0.153482
vt 0.903003 0.153482
vt 0.903003 0.160432
vt 0.795722 0.231611
vt 0.795722 0.238560
vt 0.788777 0.238560
vt 0.788777 0.231611
vt 0.196039 0.510841
vt 0.203350 0.510841
vt 0.150603 0.478641
vt 0.144862 0.478641
vt 0.125413 0.558914
vt 0.125413 0.551599
vt 0.129068 0.551599
vt 0.129068 0.558914
vt 0.225283 0.553856
vt 0.232594 0.553856
vt 0.085844 0.493392
vt 0.090856 0.490592
vt 0.210661 0.523934
vt 0.217972 0.523934
vt 0.193524 0.575121
vt 0.186213 0.575121
vt 0.186213 0.569636
vt 0.193524 0.569636
vt 0.103480 0.564399
vt 0.096169 0.564399
vt 0.144862 0.523934
vt 0.152173 0.523934
vn 0.0000 0.0000 1.0000
vn -1.0000 0.0000 0.0000
vn -0.0000 0.0000 -1.0000
vn 1.0000 0.0000 -0.0000
vn 0.0000 1.0000 -0.0000
vn 0.0000 -1.0000 -0.0000
vn 0.9053 0.4247 -0.0000
vn -0.0000 0.4247 -0.9053
vn -0.9053 0.4247 0.0000
vn 0.0000 0.4247 0.9053
usemtl Trees_Spring
s off
f 50/1/1 32/2/1 29/3/1 51/4/1
f 51/5/2 29/6/2 30/7/2 49/8/2
f 49/9/3 30/10/3 31/11/3 52/12/3
f 35/13/2 33/14/2 7/15/2 8/16/2
f 5/17/3 8/18/3 12/19/3 9/20/3
f 36/21/4 34/22/4 5/23/4 6/24/4
f 34/25/3 35/26/3 8/18/3 5/17/3
f 33/27/1 36/28/1 6/29/1 7/30/1
f 127/31/2 128/32/2 27/33/2 28/34/2
f 7/30/1 6/29/1 10/35/1 11/36/1
f 12/19/3 8/18/3 14/37/3 16/38/3
f 9/39/5 10/40/5 56/41/5 55/42/5
f 16/38/3 14/37/3 18/43/3 20/44/3
f 11/45/5 12/46/5 16/47/5 15/48/5
f 7/30/1 11/36/1 15/49/1 13/50/1
f 8/51/6 7/52/6 13/53/6 14/54/6
f 18/55/2 17/56/2 19/57/2 20/58/2
f 14/54/6 13/53/6 17/59/6 18/60/6
f 13/50/1 15/49/1 19/61/1 17/62/1
f 134/63/3 133/64/3 24/65/3 22/66/3
f 133/67/2 135/68/2 23/69/2 24/70/2
f 136/71/4 134/72/4 22/73/4 21/74/4
f 135/75/1 136/76/1 21/77/1 23/78/1
f 125/79/4 126/80/4 25/81/4 26/82/4
f 126/83/3 127/84/3 28/85/3 25/86/3
f 128/87/1 125/88/1 26/89/1 27/90/1
f 32/91/4 36/21/4 37/92/4 38/93/4
f 35/94/5 34/95/5 108/96/5 105/97/5
f 32/91/4 31/98/4 34/22/4 36/21/4
f 30/7/2 29/6/2 33/14/2 35/13/2
f 117/99/3 119/100/3 46/101/3 45/102/3
f 36/103/5 33/104/5 40/105/5 37/106/5
f 33/14/2 29/6/2 39/107/2 40/108/2
f 29/109/6 32/110/6 38/111/6 39/112/6
f 43/113/1 42/114/1 41/115/1 44/116/1
f 39/112/6 38/111/6 42/117/6 43/118/6
f 40/108/2 39/107/2 43/119/2 44/120/2
f 38/93/4 37/92/4 41/121/4 42/122/4
f 52/123/4 31/98/4 32/91/4 50/124/4
f 119/125/2 118/126/2 48/127/2 46/128/2
f 122/129/4 117/130/4 45/131/4 47/132/4
f 118/126/1 122/133/1 47/134/1 48/127/1
f 1/135/7 52/123/7 50/124/7 2/136/7
f 3/137/8 49/9/8 52/12/8 1/138/8
f 4/139/9 51/5/9 49/8/9 3/140/9
f 2/141/10 50/1/10 51/4/10 4/142/10
f 76/143/2 80/144/2 88/145/2 87/146/2
f 77/147/4 73/148/4 85/149/4 86/150/4
f 96/151/4 95/152/4 90/153/4 89/154/4
f 80/155/1 77/156/1 86/157/1 88/158/1
f 99/159/2 100/160/2 92/161/2 91/162/2
f 73/163/3 76/164/3 87/165/3 85/166/3
f 53/167/3 55/168/3 59/169/3 57/170/3
f 5/17/3 9/20/3 55/168/3 53/167/3
f 6/171/6 5/172/6 53/173/6 54/174/6
f 10/35/1 6/29/1 54/175/1 56/176/1
f 58/177/4 57/178/4 59/179/4 60/180/4
f 54/174/6 53/173/6 57/181/6 58/182/6
f 56/176/1 54/175/1 58/183/1 60/184/1
f 123/185/1 124/186/1 64/187/1 62/188/1
f 44/116/1 41/115/1 68/189/1 67/190/1
f 124/191/4 121/192/4 63/193/4 64/194/4
f 120/195/2 123/196/2 62/197/2 61/198/2
f 121/199/3 120/200/3 61/201/3 63/202/3
f 41/121/4 37/92/4 66/203/4 68/204/4
f 40/108/2 44/120/2 67/205/2 65/206/2
f 37/207/3 40/208/3 65/209/3 66/210/3
f 70/211/2 67/212/2 75/213/2 76/143/2
f 68/204/4 66/203/4 71/214/4 72/215/4
f 70/216/5 69/217/5 95/218/5 96/219/5
f 66/210/3 65/209/3 69/220/3 71/221/3
f 76/143/2 75/213/2 79/222/2 80/144/2
f 68/204/4 72/215/4 73/148/4 74/223/4
f 72/224/5 70/216/5 76/225/5 73/226/5
f 67/227/6 68/228/6 74/229/6 75/230/6
f 79/231/1 78/232/1 77/156/1 80/155/1
f 74/223/4 73/148/4 77/147/4 78/233/4
f 87/234/2 88/235/2 84/236/2 82/237/2
f 75/230/6 74/229/6 78/238/6 79/239/6
f 88/240/1 86/241/1 83/242/1 84/243/1
f 85/244/3 87/245/3 82/246/3 81/247/3
f 86/248/4 85/249/4 81/250/4 83/251/4
f 72/215/4 71/214/4 117/252/4 122/253/4
f 60/180/4 59/179/4 121/254/4 124/255/4
f 59/169/3 55/168/3 120/256/3 121/257/3
f 69/258/2 70/259/2 118/260/2 119/261/2
f 100/262/1 96/263/1 89/264/1 92/265/1
f 70/259/1 72/266/1 122/267/1 118/260/1
f 71/221/3 69/220/3 119/268/3 117/269/3
f 55/270/2 56/271/2 123/272/2 120/273/2
f 56/176/1 60/184/1 124/274/1 123/275/1
f 95/276/3 99/277/3 91/278/3 90/279/3
f 94/280/6 93/281/6 97/282/6 98/283/6
f 69/220/3 65/209/3 94/284/3 95/276/3
f 65/285/6 67/286/6 93/281/6 94/280/6
f 67/287/1 70/288/1 96/263/1 93/289/1
f 98/290/2 97/291/2 100/160/2 99/159/2
f 91/292/2 92/293/2 103/294/2 104/295/2
f 95/276/3 94/284/3 98/296/3 99/277/3
f 93/289/1 96/263/1 100/262/1 97/297/1
f 89/298/4 90/299/4 102/300/4 101/301/4
f 90/302/3 91/303/3 104/304/3 102/305/3
f 92/306/1 89/307/1 101/308/1 103/309/1
f 108/310/4 107/311/4 111/312/4 112/313/4
f 34/22/4 31/98/4 107/311/4 108/310/4
f 31/314/6 30/315/6 106/316/6 107/317/6
f 30/7/2 35/13/2 105/318/2 106/319/2
f 111/320/3 110/321/3 109/322/3 112/323/3
f 106/319/2 105/318/2 109/324/2 110/325/2
f 130/326/4 129/327/4 116/328/4 114/329/4
f 107/317/6 106/316/6 110/330/6 111/331/6
f 113/332/5 114/333/5 116/334/5 115/335/5
f 129/336/3 131/337/3 115/338/3 116/339/3
f 132/340/1 130/341/1 114/342/1 113/343/1
f 131/344/2 132/345/2 113/346/2 115/347/2
f 62/348/5 64/349/5 63/350/5 61/351/5
f 25/352/5 28/353/5 27/354/5 26/355/5
f 10/356/4 9/357/4 126/358/4 125/359/4
f 9/20/3 12/19/3 127/360/3 126/361/3
f 102/362/5 104/363/5 103/364/5 101/365/5
f 12/366/2 11/367/2 128/368/2 127/369/2
f 82/370/5 84/371/5 83/372/5 81/373/5
f 22/374/5 24/375/5 23/376/5 21/377/5
f 46/378/5 48/379/5 47/380/5 45/381/5
f 11/36/1 10/35/1 125/382/1 128/383/1
f 109/324/2 105/318/2 132/384/2 131/385/2
f 105/386/1 108/387/1 130/388/1 132/389/1
f 112/323/3 109/322/3 131/390/3 129/391/3
f 108/310/4 112/313/4 129/392/4 130/393/4
f 19/61/1 15/49/1 136/394/1 135/395/1
f 15/396/4 16/397/4 134/398/4 136/399/4
f 20/58/2 19/57/2 135/400/2 133/401/2
f 16/38/3 20/44/3 133/402/3 134/403/3
