# Blender v2.80 (sub 74) OBJ File: 'trees.blend'
# www.blender.org
mtllib forest4(no leaves).mtl
o forest4(no_leaves)_Cube.083
v 0.759011 0.000000 0.759013
v 0.361434 5.468078 0.361434
v -0.759011 0.000000 0.759014
v -0.361434 5.468078 0.361434
v 0.759011 0.000000 -0.759014
v 0.361434 5.468078 -0.361434
v -0.759011 0.000000 -0.759013
v -0.361434 5.468078 -0.361434
v 0.361434 4.709067 0.361434
v -0.361434 4.709067 0.361434
v -0.361434 4.709067 -0.361434
v 0.361434 4.709067 -0.361434
v 0.361435 4.709067 3.975774
v 0.361435 5.468078 3.975774
v -0.361433 5.468078 3.975774
v -0.361433 4.709067 3.975774
v -0.361433 5.468078 3.433623
v 0.361435 5.468078 3.433623
v -0.361433 4.709067 3.433623
v 0.361435 4.709067 3.433623
v 0.361435 7.998115 3.975774
v -0.361433 7.998115 3.975774
v -0.361433 7.998115 3.433623
v 0.361435 7.998115 3.433623
v 0.361434 9.805285 0.361434
v -0.361434 9.805285 0.361434
v -0.361434 9.805285 -0.361434
v 0.361434 9.805285 -0.361434
v 0.361434 6.190945 0.361434
v -0.361434 6.190945 0.361434
v 0.361434 6.190945 -0.361434
v -0.361434 6.190945 -0.361434
v 1.807170 5.468078 -0.361435
v 1.807170 5.468078 0.361433
v 1.807170 6.190945 0.361433
v 1.807170 6.190945 -0.361435
v 2.530038 5.468078 -0.361435
v 2.530038 5.468078 0.361433
v 2.530038 6.190945 0.361433
v 2.530038 6.190945 -0.361435
v 1.807170 9.082417 -0.361435
v 1.807170 9.082417 0.361433
v 2.530038 9.082417 -0.361435
v 2.530038 9.082417 0.361433
v -0.361434 4.025957 0.361434
v -0.361434 4.025957 -0.361434
v 0.361434 4.025957 -0.361434
v 0.361434 4.025957 0.361434
v -1.445736 4.709067 0.361434
v -1.445736 4.709067 -0.361434
v -1.445736 4.025957 0.361434
v -1.445736 4.025957 -0.361434
v -2.168604 4.709067 0.361435
v -2.168604 4.709067 -0.361433
v -2.168604 4.025957 0.361435
v -2.168604 4.025957 -0.361433
v -1.445736 7.749875 0.361434
v -1.445736 7.749875 -0.361434
v -2.168604 7.749875 0.361435
v -2.168604 7.749875 -0.361433
v -2.168604 6.129227 -0.361433
v -1.445736 6.129227 -0.361434
v -1.445736 6.129227 0.361434
v -2.168604 6.129227 0.361435
v -1.445736 5.494909 -0.361434
v -1.445736 5.494909 0.361434
v -2.168604 5.494909 0.361435
v -2.168604 5.494909 -0.361433
v -2.168604 5.494909 -1.807169
v -2.168604 6.129227 -1.807169
v -1.445736 6.129227 -1.807169
v -1.445736 5.494909 -1.807169
v -2.168605 5.494909 -2.530037
v -2.168605 6.129227 -2.530037
v -1.445737 6.129227 -2.530037
v -1.445737 5.494909 -2.530037
v -2.168604 8.992060 -1.807169
v -1.445736 8.992060 -1.807169
v -2.168605 8.992060 -2.530037
v -1.445737 8.992060 -2.530037
v -0.361435 4.709067 -2.476887
v 0.361433 4.709067 -2.476887
v -0.361435 4.025957 -2.476887
v 0.361433 4.025957 -2.476887
v -0.361435 4.709067 -3.199755
v 0.361433 4.709067 -3.199755
v -0.361435 4.025957 -3.199755
v 0.361433 4.025957 -3.199755
v -0.361435 7.039447 -2.476887
v 0.361433 7.039447 -2.476887
v -0.361435 7.039447 -3.199755
v 0.361433 7.039447 -3.199755
v 0.361435 5.468078 1.883870
v 0.361435 4.709067 1.883870
v -0.361433 4.709067 1.883871
v -0.361433 4.709067 2.658748
v 0.361435 5.468078 2.658748
v 0.361435 4.709067 2.658748
v 2.113218 5.468078 2.658747
v 2.113218 5.468078 1.883870
v 2.113218 4.709067 2.658747
v 2.113218 4.709067 1.883870
v 2.836086 5.468078 2.658747
v 2.836086 5.468078 1.883870
v 2.836086 4.709067 2.658747
v 2.836086 4.709067 1.883870
v 2.113218 9.443851 2.658747
v 2.113218 9.443851 1.883870
v 2.836086 9.443851 2.658747
v 2.836086 9.443851 1.883870
v -3.614340 4.709067 0.361435
v -3.614340 4.709067 -0.361433
v -3.614340 4.025957 0.361435
v -3.614340 4.025957 -0.361433
v -4.337208 4.709067 0.361435
v -4.337208 4.709067 -0.361433
v -4.337208 4.025957 0.361435
v -4.337208 4.025957 -0.361433
v -3.614340 7.431468 0.361435
v -3.614340 7.431468 -0.361433
v -4.337208 7.431468 0.361435
v -4.337208 7.431468 -0.361433
v -0.361434 0.922199 0.361434
v -0.361434 0.922199 -0.361434
v 0.361434 0.922199 -0.361434
v 0.361434 0.922199 0.361434
v -0.361433 6.902389 3.975774
v -0.361433 6.902389 3.433623
v 0.361435 6.902389 3.433623
v 0.361435 6.902389 3.975774
v 2.113218 8.048153 2.658747
v 2.113218 8.048153 1.883870
v 2.836086 8.048153 2.658747
v 2.836086 8.048153 1.883870
v 0.361434 8.430675 0.361434
v 0.361434 8.430675 -0.361434
v -0.361434 8.430675 0.361434
v -0.361434 8.430675 -0.361434
v 2.530038 7.916469 0.361433
v 1.807170 7.916469 0.361433
v 2.530038 7.916469 -0.361435
v 1.807170 7.916469 -0.361435
v -1.445737 7.560643 -2.530037
v -1.445736 7.560643 -1.807169
v -2.168605 7.560643 -2.530037
v -2.168604 7.560643 -1.807169
v -4.337208 6.070267 0.361435
v -4.337208 6.070267 -0.361433
v -3.614340 6.070267 -0.361433
v -3.614340 6.070267 0.361435
v 0.361433 5.874257 -3.199755
v 0.361433 5.874257 -2.476887
v -0.361435 5.874257 -2.476887
v -0.361435 5.874257 -3.199755
v -2.168604 6.939551 -0.361433
v -1.445736 6.939551 -0.361434
v -1.445736 6.939551 0.361434
v -2.168604 6.939551 0.361435
v -0.361433 5.468078 2.658748
v -0.361433 5.468078 1.883871
vt 0.859560 0.123202
vt 0.863471 0.123202
vt 0.863471 0.131108
vt 0.859560 0.131108
vt 0.122853 0.473506
vt 0.122853 0.479740
vt 0.116917 0.479740
vt 0.116917 0.473506
vt 0.176278 0.473506
vt 0.176278 0.479740
vt 0.170342 0.479740
vt 0.170342 0.473506
vt 0.144029 0.435090
vt 0.142583 0.429027
vt 0.148357 0.427649
vt 0.149803 0.433712
vt 0.875283 0.088158
vt 0.868920 0.088158
vt 0.868920 0.076057
vt 0.875283 0.076057
vt 0.145331 0.440547
vt 0.151105 0.439169
vt 0.847353 0.106316
vt 0.853716 0.106316
vt 0.853716 0.124939
vt 0.847353 0.124939
vt 0.862059 0.200351
vt 0.868422 0.200351
vt 0.868422 0.209896
vt 0.862059 0.209896
vt 0.116445 0.453770
vt 0.116917 0.459361
vt 0.111002 0.459860
vt 0.110530 0.454269
vt 0.200022 0.564633
vt 0.200022 0.558400
vt 0.205958 0.558400
vt 0.205958 0.564633
vt 0.148081 0.479740
vt 0.148081 0.473506
vt 0.152533 0.473506
vt 0.152533 0.479740
vt 0.112323 0.513002
vt 0.112323 0.506768
vt 0.116775 0.506768
vt 0.116775 0.513002
vt 0.163496 0.519812
vt 0.157560 0.519812
vt 0.157560 0.515359
vt 0.163496 0.515359
vt 0.163496 0.526176
vt 0.157560 0.526176
vt 0.105960 0.513002
vt 0.105960 0.506768
vt 0.783689 0.207776
vt 0.783689 0.214140
vt 0.778917 0.214140
vt 0.778917 0.207776
vt 0.813634 0.176681
vt 0.808419 0.176681
vt 0.808419 0.168775
vt 0.813634 0.168775
vt 0.832057 0.126251
vt 0.828145 0.126251
vt 0.828145 0.118345
vt 0.832057 0.118345
vt 0.910407 0.171611
vt 0.905192 0.171611
vt 0.905192 0.163706
vt 0.910407 0.163706
vt 0.910172 0.203828
vt 0.903809 0.203828
vt 0.903809 0.191728
vt 0.910172 0.191728
vt 0.801546 0.165627
vt 0.807909 0.165627
vt 0.807909 0.177728
vt 0.801546 0.177728
vt 0.858812 0.165626
vt 0.865174 0.165626
vt 0.865174 0.177727
vt 0.858812 0.177727
vt 0.176278 0.485676
vt 0.170342 0.485676
vt 0.122853 0.485676
vt 0.116917 0.485676
vt 0.176278 0.543854
vt 0.182214 0.543854
vt 0.182214 0.555728
vt 0.176278 0.555728
vt 0.185709 0.456126
vt 0.179772 0.456126
vt 0.179772 0.450190
vt 0.185709 0.450190
vt 0.167900 0.450190
vt 0.167900 0.456126
vt 0.161964 0.456126
vt 0.161964 0.450190
vt 0.866441 0.110673
vt 0.872804 0.110673
vt 0.872804 0.123401
vt 0.866441 0.123401
vt 0.158469 0.485676
vt 0.158469 0.479740
vt 0.218258 0.528421
vt 0.212322 0.528421
vt 0.212322 0.522484
vt 0.218258 0.522484
vt 0.152533 0.485676
vt 0.152533 0.479740
vt 0.182214 0.561665
vt 0.176278 0.561665
vt 0.856195 0.092684
vt 0.849832 0.092684
vt 0.849832 0.082420
vt 0.856195 0.082420
vt 0.910172 0.170176
vt 0.903809 0.170176
vt 0.903809 0.159912
vt 0.910172 0.159912
vt 0.910172 0.175102
vt 0.916535 0.175102
vt 0.916535 0.185366
vt 0.910172 0.185366
vt 0.839723 0.161100
vt 0.846086 0.161100
vt 0.846086 0.171363
vt 0.839723 0.171363
vt 0.114303 0.428371
vt 0.108388 0.428870
vt 0.104570 0.544134
vt 0.104570 0.518644
vt 0.110506 0.518644
vt 0.110506 0.544134
vt 0.167077 0.540847
vt 0.167077 0.515358
vt 0.173013 0.515358
vt 0.173013 0.540847
vt 0.083606 0.509739
vt 0.077997 0.509739
vt 0.077997 0.503802
vt 0.083606 0.503802
vt 0.102129 0.460608
vt 0.101657 0.455018
vt 0.212322 0.531392
vt 0.206385 0.531392
vt 0.206385 0.522486
vt 0.212322 0.522486
vt 0.083606 0.518644
vt 0.077997 0.518644
vt 0.212322 0.516549
vt 0.206385 0.516549
vt 0.206385 0.504675
vt 0.212322 0.504675
vt 0.916402 0.117806
vt 0.910039 0.117806
vt 0.910039 0.110673
vt 0.916402 0.110673
vt 0.096214 0.461107
vt 0.095742 0.455517
vt 0.905657 0.182283
vt 0.912020 0.182283
vt 0.912020 0.189416
vt 0.905657 0.189416
vt 0.821487 0.131220
vt 0.827827 0.130685
vt 0.828427 0.137793
vt 0.822086 0.138328
vt 0.924745 0.144580
vt 0.931108 0.144580
vt 0.931108 0.151714
vt 0.924745 0.151714
vt 0.194086 0.479960
vt 0.200022 0.479960
vt 0.200022 0.485169
vt 0.194086 0.485169
vt 0.096756 0.467538
vt 0.102671 0.467039
vt 0.103109 0.472230
vt 0.097194 0.472729
vt 0.176278 0.515134
vt 0.182214 0.515134
vt 0.182214 0.520344
vt 0.176278 0.520344
vt 0.182214 0.485169
vt 0.182214 0.479960
vt 0.090059 0.503802
vt 0.090059 0.509739
vt 0.176278 0.508681
vt 0.182214 0.508681
vt 0.194086 0.473506
vt 0.200022 0.473506
vt 0.194086 0.520344
vt 0.194086 0.515134
vt 0.200022 0.515134
vt 0.200022 0.520344
vt 0.879167 0.123401
vt 0.872804 0.123401
vt 0.872804 0.110673
vt 0.879167 0.110673
vt 0.182214 0.543854
vt 0.188150 0.543854
vt 0.188150 0.555728
vt 0.182214 0.555728
vt 0.212322 0.560112
vt 0.206385 0.560112
vt 0.206385 0.554902
vt 0.212322 0.554902
vt 0.176278 0.485169
vt 0.176278 0.479960
vt 0.188150 0.561665
vt 0.182214 0.561665
vt 0.884263 0.195671
vt 0.890626 0.195671
vt 0.890626 0.208271
vt 0.884263 0.208271
vt 0.903809 0.207513
vt 0.897446 0.207513
vt 0.897446 0.194913
vt 0.903809 0.194913
vt 0.865174 0.157968
vt 0.871537 0.157968
vt 0.871537 0.170569
vt 0.865174 0.170569
vt 0.910172 0.197966
vt 0.916535 0.197966
vt 0.916535 0.210566
vt 0.910172 0.210566
vt 0.127132 0.439123
vt 0.128434 0.444579
vt 0.122660 0.445957
vt 0.121358 0.440501
vt 0.083933 0.566704
vt 0.077997 0.566704
vt 0.077997 0.549330
vt 0.083933 0.549330
vt 0.077997 0.543393
vt 0.077997 0.537783
vt 0.095369 0.537783
vt 0.095369 0.543393
vt 0.212393 0.473223
vt 0.212393 0.467613
vt 0.218329 0.467613
vt 0.218329 0.473223
vt 0.218329 0.458044
vt 0.212393 0.458044
vt 0.077997 0.543393
vt 0.083933 0.543393
vt 0.101305 0.537783
vt 0.101305 0.543393
vt 0.778449 0.191506
vt 0.778449 0.181249
vt 0.784812 0.181249
vt 0.784812 0.191506
vt 0.897066 0.121313
vt 0.897066 0.111056
vt 0.903428 0.111056
vt 0.903428 0.121313
vt 0.803926 0.087511
vt 0.801546 0.077534
vt 0.807735 0.076057
vt 0.810115 0.086034
vt 0.160518 0.424747
vt 0.161964 0.430810
vt 0.163496 0.545044
vt 0.157560 0.545044
vt 0.157560 0.532540
vt 0.163496 0.532540
vt 0.881553 0.138589
vt 0.881553 0.131767
vt 0.896972 0.131767
vt 0.896972 0.138589
vt 0.200094 0.459391
vt 0.200094 0.453158
vt 0.206030 0.453158
vt 0.206030 0.459391
vt 0.116917 0.521593
vt 0.116917 0.515359
vt 0.131302 0.515359
vt 0.131302 0.521593
vt 0.143174 0.532540
vt 0.143174 0.526176
vt 0.185709 0.459391
vt 0.185709 0.453158
vt 0.200022 0.537622
vt 0.200022 0.531389
vt 0.206385 0.531389
vt 0.206385 0.537622
vt 0.897066 0.098769
vt 0.903886 0.098769
vt 0.903886 0.111056
vt 0.897066 0.111056
vt 0.137238 0.515359
vt 0.137238 0.521593
vt 0.137238 0.532540
vt 0.137238 0.526176
vt 0.884263 0.215093
vt 0.884263 0.208271
vt 0.890626 0.208271
vt 0.890626 0.215093
vt 0.816966 0.207121
vt 0.823328 0.207121
vt 0.823328 0.219407
vt 0.816966 0.219407
vt 0.897066 0.088343
vt 0.890703 0.088343
vt 0.890703 0.076057
vt 0.897066 0.076057
vt 0.897446 0.172198
vt 0.890626 0.172198
vt 0.890626 0.159912
vt 0.897446 0.159912
vt 0.083606 0.491928
vt 0.077997 0.491928
vt 0.077997 0.485991
vt 0.083606 0.485991
vt 0.084384 0.462105
vt 0.083912 0.456515
vt 0.866441 0.123401
vt 0.860079 0.123401
vt 0.860079 0.110673
vt 0.866441 0.110673
vt 0.218329 0.420507
vt 0.218329 0.426117
vt 0.212393 0.426117
vt 0.212393 0.420507
vt 0.923601 0.104490
vt 0.928023 0.104490
vt 0.928023 0.112818
vt 0.923601 0.112818
vt 0.206385 0.498738
vt 0.212322 0.498738
vt 0.078468 0.462604
vt 0.077997 0.457014
vt 0.835985 0.145188
vt 0.835985 0.140765
vt 0.844312 0.140765
vt 0.844312 0.145188
vt 0.827902 0.191856
vt 0.832325 0.191856
vt 0.832325 0.200183
vt 0.827902 0.200183
vt 0.824531 0.131641
vt 0.828938 0.131269
vt 0.829637 0.139568
vt 0.825231 0.139939
vt 0.151247 0.465340
vt 0.157021 0.463962
vt 0.149839 0.473506
vt 0.161964 0.470612
vt 0.163812 0.548464
vt 0.176278 0.548464
vt 0.101305 0.551744
vt 0.113771 0.551744
vt 0.116917 0.420507
vt 0.104495 0.421555
vt 0.851812 0.213212
vt 0.858175 0.213212
vt 0.858175 0.219576
vt 0.851812 0.219576
vt 0.842417 0.209547
vt 0.842417 0.215910
vt 0.836054 0.215910
vt 0.836054 0.209547
vt 0.864538 0.213212
vt 0.864538 0.219576
vt 0.858175 0.219576
vt 0.858175 0.213212
vt 0.829691 0.209547
vt 0.836054 0.209547
vt 0.836054 0.215910
vt 0.829691 0.215910
vt 0.848780 0.209547
vt 0.848780 0.215910
vt 0.842417 0.215910
vt 0.842417 0.209547
vt 0.872035 0.189181
vt 0.867613 0.189181
vt 0.867613 0.184758
vt 0.872035 0.184758
vt 0.200022 0.546621
vt 0.205958 0.546621
vt 0.112323 0.494989
vt 0.116775 0.494989
vt 0.095805 0.564170
vt 0.089869 0.564170
vt 0.089869 0.552391
vt 0.095805 0.552391
vt 0.152533 0.491519
vt 0.148081 0.491519
vt 0.200022 0.510200
vt 0.206385 0.510200
vt 0.200094 0.431969
vt 0.206030 0.431969
vt 0.137238 0.542781
vt 0.131302 0.542781
vt 0.206030 0.420507
vt 0.212393 0.420507
vt 0.212393 0.441696
vt 0.206030 0.441696
vt 0.176278 0.504070
vt 0.170342 0.504070
vt 0.122853 0.504070
vt 0.116917 0.504070
vt 0.218258 0.558103
vt 0.212322 0.558103
vt 0.212322 0.539710
vt 0.218258 0.539710
vt 0.179772 0.431796
vt 0.185709 0.431796
vt 0.158469 0.499847
vt 0.152533 0.499847
vt 0.218258 0.498738
vt 0.224194 0.498738
vt 0.224194 0.512909
vt 0.218258 0.512909
vt 0.212322 0.508314
vt 0.218258 0.508314
vt 0.161964 0.436019
vt 0.167900 0.436019
vt 0.218258 0.522485
vt 0.224194 0.522485
vt 0.224194 0.534240
vt 0.218258 0.534240
vt 0.182214 0.496925
vt 0.176278 0.496925
vt 0.206385 0.543147
vt 0.212322 0.543147
vt 0.200022 0.532099
vt 0.194086 0.532099
vt 0.085323 0.473244
vt 0.079408 0.473743
vt 0.083933 0.543393
vt 0.089869 0.543393
vt 0.089869 0.554571
vt 0.083933 0.554571
vt 0.094783 0.485991
vt 0.094783 0.491928
vt 0.218329 0.437296
vt 0.212393 0.437296
vt 0.119137 0.431193
vt 0.124911 0.429815
vt 0.206030 0.472297
vt 0.206030 0.462728
vt 0.211966 0.462728
vt 0.211966 0.472297
vt 0.095369 0.528213
vt 0.101305 0.528213
vt 0.910249 0.106036
vt 0.910249 0.116293
vt 0.903886 0.116293
vt 0.903886 0.106036
vt 0.200022 0.491824
vt 0.194086 0.491824
vt 0.103668 0.478861
vt 0.097753 0.479360
vt 0.182214 0.526998
vt 0.176278 0.526998
vt 0.186302 0.473500
vt 0.180366 0.473500
vt 0.180366 0.466846
vt 0.186302 0.466846
vt 0.142814 0.482837
vt 0.142814 0.453031
vt 0.162278 0.453031
vt 0.162278 0.482837
vt 0.162278 0.571205
vt 0.142814 0.571205
vt 0.142814 0.512643
vt 0.162278 0.512643
vt 0.887130 0.134947
vt 0.887130 0.102999
vt 0.907000 0.102999
vt 0.907000 0.134947
vt 0.887130 0.166896
vt 0.907000 0.166896
vt 0.887130 0.229667
vt 0.907000 0.229667
vn -1.0000 0.0000 0.0000
vn -0.0000 0.0000 -1.0000
vn 1.0000 0.0000 -0.0000
vn 0.0000 0.0000 1.0000
vn 0.0000 1.0000 0.0000
vn 0.0000 -1.0000 0.0000
vn 0.9183 0.3959 -0.0000
vn -0.0000 0.3959 -0.9183
vn -0.9183 0.3959 0.0000
vn 0.0000 0.3959 0.9183
usemtl Trees_Spring
s off
f 128/1/1 127/2/1 22/3/1 23/4/1
f 10/5/1 4/6/1 8/7/1 11/8/1
f 11/9/2 8/10/2 6/11/2 12/12/2
f 12/13/3 6/14/3 2/15/3 9/16/3
f 137/17/4 135/18/4 25/19/4 26/20/4
f 47/21/3 12/13/3 9/16/3 48/22/3
f 11/23/5 12/24/5 82/25/5 81/26/5
f 10/27/5 11/28/5 50/29/5 49/30/5
f 48/31/4 9/32/4 10/33/4 45/34/4
f 13/35/4 14/36/4 15/37/4 16/38/4
f 17/39/1 19/40/1 16/41/1 15/42/1
f 20/43/3 18/44/3 14/45/3 13/46/3
f 19/47/6 20/48/6 13/49/6 16/50/6
f 96/51/6 98/52/6 20/48/6 19/47/6
f 98/53/3 97/54/3 18/44/3 20/43/3
f 24/55/5 23/56/5 22/57/5 21/58/5
f 129/59/2 128/60/2 23/61/2 24/62/2
f 130/63/3 129/64/3 24/65/3 21/66/3
f 127/67/4 130/68/4 21/69/4 22/70/4
f 135/71/3 136/72/3 28/73/3 25/74/3
f 138/75/1 137/76/1 26/77/1 27/78/1
f 136/79/2 138/80/2 27/81/2 28/82/2
f 6/11/2 8/10/2 32/83/2 31/84/2
f 8/7/1 4/6/1 30/85/1 32/86/1
f 2/87/6 6/88/6 33/89/6 34/90/6
f 4/91/4 2/92/4 29/93/4 30/94/4
f 35/95/4 34/96/4 38/97/4 39/98/4
f 31/99/5 29/100/5 35/101/5 36/102/5
f 6/11/2 31/84/2 36/103/2 33/104/2
f 29/93/4 2/92/4 34/96/4 35/95/4
f 38/105/3 37/106/3 40/107/3 39/108/3
f 33/104/2 36/103/2 40/109/2 37/110/2
f 34/90/6 33/89/6 37/111/6 38/112/6
f 140/113/4 139/114/4 44/115/4 42/116/4
f 139/117/3 141/118/3 43/119/3 44/120/3
f 142/121/1 140/122/1 42/123/1 41/124/1
f 141/125/2 142/126/2 41/127/2 43/128/2
f 126/129/4 48/31/4 45/34/4 123/130/4
f 123/131/1 45/132/1 46/133/1 124/134/1
f 124/135/2 46/136/2 47/137/2 125/138/2
f 50/139/2 52/140/2 56/141/2 54/142/2
f 45/34/4 10/33/4 49/143/4 51/144/4
f 46/145/6 45/146/6 51/147/6 52/148/6
f 11/149/2 46/150/2 52/140/2 50/139/2
f 56/151/6 55/152/6 113/153/6 114/154/6
f 156/155/2 155/156/2 60/157/2 58/158/2
f 52/148/6 51/147/6 55/152/6 56/151/6
f 51/144/4 49/143/4 53/159/4 55/160/4
f 157/161/3 156/162/3 58/163/3 57/164/3
f 158/165/4 157/166/4 57/167/4 59/168/4
f 155/169/1 158/170/1 59/171/1 60/172/1
f 68/173/1 67/174/1 64/175/1 61/176/1
f 67/177/4 66/178/4 63/179/4 64/180/4
f 66/181/3 65/182/3 62/183/3 63/184/3
f 68/173/1 61/176/1 70/185/1 69/186/1
f 50/139/2 54/142/2 68/187/2 65/188/2
f 49/189/3 50/190/3 65/182/3 66/181/3
f 53/159/4 49/143/4 66/178/4 67/177/4
f 54/191/1 53/192/1 67/174/1 68/173/1
f 71/193/3 72/194/3 76/195/3 75/196/3
f 61/197/5 62/198/5 71/199/5 70/200/5
f 65/201/6 68/202/6 69/203/6 72/204/6
f 62/183/3 65/182/3 72/194/3 71/193/3
f 76/205/2 73/206/2 74/207/2 75/208/2
f 69/186/1 70/185/1 74/209/1 73/210/1
f 72/204/6 69/203/6 73/211/6 76/212/6
f 144/213/3 143/214/3 80/215/3 78/216/3
f 143/217/2 145/218/2 79/219/2 80/220/2
f 145/221/1 146/222/1 77/223/1 79/224/1
f 146/225/4 144/226/4 78/227/4 77/228/4
f 82/229/3 84/230/3 88/231/3 86/232/3
f 47/233/6 46/234/6 83/235/6 84/236/6
f 12/13/3 47/21/3 84/230/3 82/229/3
f 46/237/1 11/238/1 81/239/1 83/240/1
f 87/241/2 85/242/2 86/243/2 88/244/2
f 151/245/2 86/243/2 85/242/2 154/246/2
f 84/236/6 83/235/6 87/247/6 88/248/6
f 83/240/1 81/239/1 85/249/1 87/250/1
f 153/251/1 89/252/1 91/253/1 154/254/1
f 152/255/4 90/256/4 89/257/4 153/258/4
f 151/259/3 92/260/3 90/261/3 152/262/3
f 9/16/3 2/15/3 93/263/3 94/264/3
f 10/265/6 9/266/6 94/267/6 95/268/6
f 93/269/5 97/270/5 99/271/5 100/272/5
f 95/268/6 94/267/6 98/52/6 96/51/6
f 102/273/2 100/274/2 104/275/2 106/276/2
f 97/277/4 98/278/4 101/279/4 99/280/4
f 98/52/6 94/267/6 102/281/6 101/282/6
f 94/283/2 93/284/2 100/274/2 102/273/2
f 106/285/3 104/286/3 103/287/3 105/288/3
f 132/289/1 131/290/1 107/291/1 108/292/1
f 99/280/4 101/279/4 105/293/4 103/294/4
f 101/282/6 102/281/6 106/295/6 105/296/6
f 108/297/5 107/298/5 109/299/5 110/300/5
f 131/301/4 133/302/4 109/303/4 107/304/4
f 134/305/2 132/306/2 108/307/2 110/308/2
f 133/309/3 134/310/3 110/311/3 109/312/3
f 112/313/2 114/314/2 118/315/2 116/316/2
f 55/160/4 53/159/4 111/317/4 113/318/4
f 54/142/2 56/141/2 114/314/2 112/313/2
f 53/319/5 54/320/5 112/321/5 111/322/5
f 117/323/1 115/324/1 116/325/1 118/326/1
f 148/327/1 147/328/1 121/329/1 122/330/1
f 114/154/6 113/153/6 117/331/6 118/332/6
f 113/318/4 111/317/4 115/333/4 117/334/4
f 149/335/2 148/336/2 122/337/2 120/338/2
f 150/339/3 149/340/3 120/341/3 119/342/3
f 147/343/4 150/344/4 119/345/4 121/346/4
f 125/347/3 47/21/3 48/22/3 126/348/3
f 5/349/7 125/347/7 126/348/7 1/350/7
f 7/351/8 124/135/8 125/138/8 5/352/8
f 3/353/9 123/131/9 124/134/9 7/354/9
f 1/355/10 126/129/10 123/130/10 3/356/10
f 25/357/5 28/358/5 27/359/5 26/360/5
f 58/361/5 60/362/5 59/363/5 57/364/5
f 78/365/5 80/366/5 79/367/5 77/368/5
f 42/369/5 44/370/5 43/371/5 41/372/5
f 90/373/5 92/374/5 91/375/5 89/376/5
f 120/377/5 122/378/5 121/379/5 119/380/5
f 15/37/4 14/36/4 130/381/4 127/382/4
f 14/45/3 18/44/3 129/383/3 130/384/3
f 18/385/2 17/386/2 128/387/2 129/388/2
f 17/39/1 15/42/1 127/389/1 128/390/1
f 103/287/3 104/286/3 134/391/3 133/392/3
f 104/275/2 100/274/2 132/393/2 134/394/2
f 99/280/4 103/294/4 133/395/4 131/396/4
f 100/397/1 99/398/1 131/399/1 132/400/1
f 31/84/2 32/83/2 138/401/2 136/402/2
f 32/86/1 30/85/1 137/403/1 138/404/1
f 29/405/3 31/406/3 136/407/3 135/408/3
f 30/94/4 29/93/4 135/409/4 137/410/4
f 40/109/2 36/103/2 142/411/2 141/412/2
f 36/413/1 35/414/1 140/415/1 142/416/1
f 39/108/3 40/107/3 141/417/3 139/418/3
f 35/95/4 39/98/4 139/419/4 140/420/4
f 70/421/4 71/422/4 144/423/4 146/424/4
f 74/209/1 70/185/1 146/425/1 145/426/1
f 75/208/2 74/207/2 145/427/2 143/428/2
f 71/193/3 75/196/3 143/429/3 144/430/3
f 115/333/4 111/317/4 150/431/4 147/432/4
f 111/433/3 112/434/3 149/435/3 150/436/3
f 112/313/2 116/316/2 148/437/2 149/438/2
f 116/325/1 115/324/1 147/439/1 148/440/1
f 86/232/3 151/441/3 152/442/3 82/229/3
f 82/443/4 152/444/4 153/445/4 81/446/4
f 81/239/1 153/447/1 154/448/1 85/249/1
f 92/449/2 151/450/2 154/451/2 91/452/2
f 61/176/1 64/175/1 158/453/1 155/454/1
f 64/180/4 63/179/4 157/455/4 158/456/4
f 63/184/3 62/183/3 156/457/3 157/458/3
f 62/459/2 61/460/2 155/461/2 156/462/2
f 96/463/1 19/464/1 17/465/1 159/466/1
f 4/467/1 10/468/1 95/469/1 160/470/1
f 159/471/5 17/472/5 18/473/5 97/474/5
f 160/470/1 95/469/1 96/463/1 159/466/1
f 160/475/5 159/471/5 97/474/5 93/476/5
f 4/477/5 160/475/5 93/476/5 2/478/5
