# Blender v2.80 (sub 74) OBJ File: 'trees.blend'
# www.blender.org
mtllib cryingtree2.mtl
o cryingtree2_Cube.038
v 1.475001 6.072088 -2.767034
v 1.475001 9.028347 -2.767034
v 1.475002 6.072088 2.270971
v 1.475002 9.028347 2.270971
v -3.562999 6.072088 -2.767032
v -3.562999 9.028347 -2.767032
v -3.562997 6.072088 2.270973
v -3.562997 9.028347 2.270973
v 1.475001 8.051473 -2.767034
v 1.475002 8.051473 2.270971
v -3.562997 8.051473 2.270973
v -3.562999 8.051473 -2.767032
v 0.711617 3.662762 -1.632273
v 0.711617 7.280440 -1.632273
v 0.711617 3.662762 -1.450934
v 0.711617 7.280440 -1.450934
v 0.530284 3.662762 -1.632273
v 0.530284 7.280440 -1.632273
v 0.530284 3.662762 -1.450934
v 0.530284 7.280440 -1.450934
v -0.212097 3.265882 1.750669
v -0.212097 6.883561 1.750669
v -0.212097 3.265882 1.932008
v -0.212097 6.883561 1.932008
v -0.393431 3.265882 1.750670
v -0.393431 6.883561 1.750670
v -0.393431 3.265882 1.932008
v -0.393431 6.883561 1.932008
v -2.474197 2.802777 1.356863
v -2.474197 6.420455 1.356863
v -2.474197 2.802777 1.538202
v -2.474197 6.420455 1.538202
v -2.655535 2.802777 1.356864
v -2.655535 6.420455 1.356864
v -2.655535 2.802777 1.538202
v -2.655535 6.420455 1.538202
v -1.931285 3.409415 -0.182723
v -1.931285 7.027093 -0.182723
v -1.931285 3.409415 -0.001384
v -1.931285 7.027093 -0.001384
v -2.112624 3.409415 -0.182722
v -2.112624 7.027093 -0.182722
v -2.112624 3.409415 -0.001384
v -2.112624 7.027093 -0.001384
v 3.316262 4.377240 0.153745
v 3.316262 7.994918 0.153745
v 3.316262 4.377240 0.335084
v 3.316262 7.994918 0.335084
v 3.134923 4.377240 0.153745
v 3.134923 7.994918 0.153745
v 3.134923 4.377240 0.335084
v 3.134923 7.994918 0.335084
v 2.114401 4.177717 2.115375
v 2.114401 7.795395 2.115375
v 2.114401 4.177717 2.296714
v 2.114401 7.795395 2.296714
v 1.933063 4.177717 2.115375
v 1.933063 7.795395 2.115375
v 1.933063 4.177717 2.296714
v 1.933063 7.795395 2.296714
v 3.327618 4.749639 3.077198
v 3.327618 7.095001 3.077198
v 3.327618 4.749639 3.258537
v 3.327618 7.095001 3.258537
v 3.146279 4.749639 3.077198
v 3.146279 7.095001 3.077198
v 3.146279 4.749639 3.258537
v 3.146279 7.095001 3.258537
v 0.604628 4.077384 4.195094
v 0.604628 7.695062 4.195094
v 0.604628 4.077384 4.376432
v 0.604628 7.695062 4.376432
v 0.423290 4.077384 4.195094
v 0.423290 7.695062 4.195094
v 0.423290 4.077384 4.376432
v 0.423290 7.695062 4.376432
v 2.123464 5.986342 -0.159127
v 2.123464 9.604019 -0.159127
v 2.123464 5.986342 0.022211
v 2.123464 9.604019 0.022211
v 1.942131 5.986342 -0.159127
v 1.942131 9.604019 -0.159127
v 1.942131 5.986342 0.022211
v 1.942131 9.604019 0.022211
v -1.520872 3.805870 -1.665509
v -1.520872 7.423548 -1.665509
v -1.520872 3.805870 -1.484176
v -1.520872 7.423548 -1.484176
v -1.702205 3.805870 -1.665509
v -1.702205 7.423548 -1.665509
v -1.702205 3.805870 -1.484176
v -1.702205 7.423548 -1.484176
v 4.004557 6.984299 -0.574816
v 4.004557 9.940557 -0.574816
v 4.004559 6.984299 4.463183
v 4.004559 9.940557 4.463183
v -1.033442 6.984299 -0.574814
v -1.033442 9.940557 -0.574814
v -1.033440 6.984299 4.463184
v -1.033440 9.940557 4.463184
v 4.004557 8.963684 -0.574816
v 4.004559 8.963684 4.463183
v -1.033440 8.963684 4.463184
v -1.033442 8.963684 -0.574814
v -1.960796 3.347735 -2.487160
v -1.960796 6.965413 -2.487160
v -1.960795 3.347735 -2.305822
v -1.960795 6.965413 -2.305822
v -2.142134 3.347735 -2.487160
v -2.142134 6.965413 -2.487160
v -2.142134 3.347735 -2.305822
v -2.142134 6.965413 -2.305822
v 0.537477 5.534369 3.559506
v 0.537477 9.152047 3.559506
v 0.537477 5.534369 3.740844
v 0.537477 9.152047 3.740844
v 0.356138 5.534369 3.559506
v 0.356138 9.152047 3.559506
v 0.356138 5.534369 3.740844
v 0.356138 9.152047 3.740844
v 0.697902 0.000000 -0.697903
v 0.367318 6.979048 -0.367313
v 0.697903 0.000000 0.697908
v 0.367318 6.979048 0.367324
v -0.697908 0.000000 -0.697902
v -0.367318 6.979048 -0.367313
v -0.697908 0.000000 0.697908
v -0.367318 6.979048 0.367324
v 0.367318 0.697905 -0.367313
v 0.367318 0.697905 0.367324
v -0.367318 0.697905 0.367324
v -0.367318 0.697905 -0.367313
v 3.718460 5.215283 1.960474
v 3.718460 7.560647 1.960474
v 3.718460 5.215283 2.141813
v 3.718460 7.560647 2.141813
v 3.537121 5.215283 1.960474
v 3.537121 7.560647 1.960474
v 3.537121 5.215283 2.141813
v 3.537121 7.560647 2.141813
v 2.270188 5.741327 3.724478
v 2.270188 8.086690 3.724478
v 2.270188 5.741327 3.905811
v 2.270188 8.086690 3.905811
v 2.088855 5.741327 3.724478
v 2.088855 8.086690 3.724478
v 2.088855 5.741327 3.905811
v 2.088855 8.086690 3.905811
v -0.355788 5.812006 2.984147
v -0.355788 8.157369 2.984147
v -0.355788 5.812006 3.165480
v -0.355788 8.157369 3.165480
v -0.537127 5.812006 2.984147
v -0.537127 8.157369 2.984147
v -0.537127 5.812006 3.165480
v -0.537127 8.157369 3.165480
v 2.689642 5.937656 1.040805
v 2.689642 8.283019 1.040805
v 2.689642 5.937656 1.222144
v 2.689642 8.283019 1.222144
v 2.508303 5.937656 1.040805
v 2.508303 8.283019 1.040805
v 2.508303 5.937656 1.222144
v 2.508303 8.283019 1.222144
v -2.744121 5.179528 -2.510577
v -2.744121 7.524890 -2.510577
v -2.744121 5.179528 -2.329244
v -2.744121 7.524890 -2.329244
v -2.925454 5.179528 -2.510577
v -2.925454 7.524890 -2.510577
v -2.925454 5.179528 -2.329244
v -2.925454 7.524890 -2.329244
v -0.263315 4.796162 -1.471807
v -0.263315 7.141525 -1.471807
v -0.263315 4.796162 -1.290468
v -0.263315 7.141525 -1.290468
v -0.444654 4.796162 -1.471806
v -0.444654 7.141525 -1.471806
v -0.444654 4.796162 -1.290468
v -0.444654 7.141525 -1.290468
v -2.601354 4.959541 -1.071038
v -2.601354 7.304902 -1.071038
v -2.601354 4.959541 -0.889705
v -2.601354 7.304902 -0.889705
v -2.782688 4.959541 -1.071038
v -2.782688 7.304902 -1.071038
v -2.782688 4.959541 -0.889705
v -2.782688 7.304902 -0.889705
v -0.954951 4.968790 0.612227
v -0.954951 7.314152 0.612227
v -0.954951 4.968790 0.793561
v -0.954951 7.314152 0.793561
v -1.136290 4.968790 0.612227
v -1.136290 7.314152 0.612227
v -1.136290 4.968790 0.793561
v -1.136290 7.314152 0.793561
vt 0.540809 0.858432
vt 0.531314 0.858432
vt 0.531314 0.785203
vt 0.540809 0.785203
vt 0.579291 0.711975
vt 0.588787 0.711975
vt 0.588787 0.785203
vt 0.579291 0.785203
vt 0.540809 0.785203
vt 0.531314 0.785203
vt 0.531314 0.711975
vt 0.540809 0.711975
vt 0.481333 0.858432
vt 0.490829 0.858432
vt 0.490829 0.931660
vt 0.481333 0.931660
vt 0.078271 0.735624
vt 0.127790 0.735624
vt 0.127790 0.809660
vt 0.078271 0.809660
vt 0.482335 0.785203
vt 0.482335 0.711975
vt 0.107325 0.883697
vt 0.126778 0.883697
vt 0.126778 0.957733
vt 0.107325 0.957733
vt 0.206364 0.809660
vt 0.186910 0.809660
vt 0.186910 0.735624
vt 0.206364 0.735624
vt 0.206364 0.735624
vt 0.225817 0.735624
vt 0.225817 0.809660
vt 0.206364 0.883697
vt 0.186910 0.883697
vt 0.186910 0.809660
vt 0.206364 0.809660
vt 0.131949 0.908063
vt 0.131949 0.870238
vt 0.133217 0.870238
vt 0.133217 0.908063
vt 0.077153 0.922921
vt 0.077153 0.885096
vt 0.078422 0.885096
vt 0.078422 0.922921
vt 0.192780 0.802698
vt 0.192780 0.764873
vt 0.194048 0.764873
vt 0.194048 0.802698
vt 0.195436 0.908063
vt 0.195436 0.870238
vt 0.196705 0.870238
vt 0.196705 0.908063
vt 0.140401 0.885096
vt 0.141669 0.885096
vt 0.141669 0.886992
vt 0.140401 0.886992
vt 0.130681 0.908063
vt 0.130681 0.870238
vt 0.131949 0.870238
vt 0.131949 0.908063
vt 0.196705 0.870238
vt 0.196705 0.832413
vt 0.197973 0.832413
vt 0.197973 0.870238
vt 0.192780 0.764873
vt 0.192780 0.727048
vt 0.194048 0.727048
vt 0.194048 0.764873
vt 0.195436 0.870238
vt 0.195436 0.832413
vt 0.196705 0.832413
vt 0.196705 0.870238
vt 0.142938 0.885096
vt 0.144206 0.885096
vt 0.144206 0.886992
vt 0.142938 0.886992
vt 0.190363 0.832413
vt 0.190363 0.870238
vt 0.189095 0.870238
vt 0.189095 0.832413
vt 0.190363 0.908063
vt 0.190363 0.870238
vt 0.191631 0.870238
vt 0.191631 0.908063
vt 0.190363 0.870238
vt 0.190363 0.832413
vt 0.191631 0.832413
vt 0.191631 0.870238
vt 0.188975 0.802698
vt 0.188975 0.764873
vt 0.190243 0.764873
vt 0.190243 0.802698
vt 0.124081 0.885096
vt 0.125349 0.885096
vt 0.125349 0.886992
vt 0.124081 0.886992
vt 0.129413 0.908063
vt 0.129412 0.870238
vt 0.130681 0.870238
vt 0.130681 0.908063
vt 0.134486 0.908063
vt 0.134486 0.870238
vt 0.135754 0.870238
vt 0.135754 0.908063
vt 0.192900 0.870238
vt 0.192900 0.908063
vt 0.191631 0.908063
vt 0.191631 0.870238
vt 0.188975 0.764873
vt 0.188975 0.727048
vt 0.190243 0.727048
vt 0.190243 0.764873
vt 0.120276 0.885096
vt 0.121544 0.885096
vt 0.121544 0.886992
vt 0.120276 0.886992
vt 0.133217 0.908063
vt 0.133217 0.870238
vt 0.134486 0.870238
vt 0.134486 0.908063
vt 0.194168 0.908063
vt 0.194168 0.870238
vt 0.195436 0.870238
vt 0.195436 0.908063
vt 0.191631 0.870238
vt 0.191631 0.832413
vt 0.192900 0.832413
vt 0.192900 0.870238
vt 0.187826 0.908063
vt 0.187826 0.870238
vt 0.189095 0.870238
vt 0.189095 0.908063
vt 0.125349 0.885096
vt 0.126617 0.885096
vt 0.126617 0.886992
vt 0.125349 0.886992
vt 0.130681 0.870238
vt 0.130681 0.832413
vt 0.131949 0.832413
vt 0.131949 0.870238
vt 0.190243 0.802698
vt 0.190243 0.764873
vt 0.191512 0.764873
vt 0.191512 0.802698
vt 0.192780 0.764873
vt 0.192780 0.802698
vt 0.191512 0.802698
vt 0.191512 0.764873
vt 0.187826 0.870238
vt 0.187826 0.832413
vt 0.189095 0.832413
vt 0.189095 0.870238
vt 0.117739 0.886992
vt 0.117739 0.885096
vt 0.119007 0.885096
vt 0.119007 0.886992
vt 0.082226 0.885096
vt 0.082226 0.909618
vt 0.080958 0.909618
vt 0.080958 0.885096
vt 0.179212 0.824597
vt 0.179212 0.800075
vt 0.180481 0.800075
vt 0.180481 0.824597
vt 0.186822 0.800075
vt 0.186822 0.824597
vt 0.185554 0.824597
vt 0.185554 0.800075
vt 0.180481 0.824597
vt 0.180481 0.800075
vt 0.181749 0.800075
vt 0.181749 0.824597
vt 0.127886 0.885096
vt 0.129154 0.885096
vt 0.129154 0.886992
vt 0.127886 0.886992
vt 0.134486 0.870238
vt 0.134486 0.832413
vt 0.135754 0.832413
vt 0.135754 0.870238
vt 0.192900 0.870238
vt 0.192900 0.832413
vt 0.194168 0.832413
vt 0.194168 0.870238
vt 0.133217 0.832413
vt 0.133217 0.870238
vt 0.131949 0.870238
vt 0.131949 0.832413
vt 0.189095 0.908063
vt 0.189095 0.870238
vt 0.190363 0.870238
vt 0.190363 0.908063
vt 0.122812 0.885096
vt 0.124081 0.885096
vt 0.124081 0.886992
vt 0.122812 0.886992
vt 0.192780 0.727048
vt 0.192780 0.764873
vt 0.191512 0.764873
vt 0.191512 0.727048
vt 0.078422 0.922921
vt 0.078422 0.885096
vt 0.079690 0.885096
vt 0.079690 0.922921
vt 0.195317 0.727048
vt 0.195317 0.764873
vt 0.194048 0.764873
vt 0.194048 0.727048
vt 0.196585 0.802698
vt 0.196585 0.764873
vt 0.197853 0.764873
vt 0.197853 0.802698
vt 0.144206 0.885096
vt 0.145474 0.885096
vt 0.145474 0.886992
vt 0.144206 0.886992
vt 0.195317 0.764873
vt 0.195317 0.727048
vt 0.196585 0.727048
vt 0.196585 0.764873
vt 0.197973 0.870238
vt 0.197973 0.908063
vt 0.196705 0.908063
vt 0.196705 0.870238
vt 0.196585 0.764873
vt 0.196585 0.802698
vt 0.195317 0.802698
vt 0.195317 0.764873
vt 0.196585 0.764873
vt 0.196585 0.727048
vt 0.197853 0.727048
vt 0.197853 0.764873
vt 0.148011 0.885096
vt 0.149279 0.885096
vt 0.149279 0.886992
vt 0.148011 0.886992
vt 0.540809 0.931660
vt 0.531314 0.931660
vt 0.531314 0.858432
vt 0.540809 0.858432
vt 0.569546 0.858432
vt 0.560050 0.858432
vt 0.560050 0.785203
vt 0.569546 0.785203
vt 0.442852 0.931660
vt 0.433356 0.931660
vt 0.433356 0.858432
vt 0.442852 0.858432
vt 0.510070 0.858432
vt 0.519565 0.858432
vt 0.519565 0.931660
vt 0.510070 0.931660
vt 0.078271 0.883697
vt 0.078271 0.809660
vt 0.127790 0.809660
vt 0.127790 0.883697
vt 0.531314 0.858432
vt 0.482335 0.858432
vt 0.482335 0.785203
vt 0.531314 0.785203
vt 0.136378 0.883697
vt 0.155831 0.883697
vt 0.155831 0.957733
vt 0.136378 0.957733
vt 0.107325 0.957733
vt 0.087871 0.957733
vt 0.087871 0.883697
vt 0.107325 0.883697
vt 0.235417 0.883697
vt 0.215964 0.883697
vt 0.215964 0.809660
vt 0.235417 0.809660
vt 0.206363 0.957733
vt 0.186910 0.957733
vt 0.186910 0.883697
vt 0.206363 0.883697
vt 0.135754 0.870238
vt 0.135754 0.832413
vt 0.137022 0.832413
vt 0.137022 0.870238
vt 0.129413 0.870238
vt 0.129412 0.832413
vt 0.130681 0.832413
vt 0.130681 0.870238
vt 0.137022 0.870238
vt 0.137022 0.908063
vt 0.135754 0.908063
vt 0.135754 0.870238
vt 0.194168 0.870238
vt 0.194168 0.832413
vt 0.195436 0.832413
vt 0.195436 0.870238
vt 0.116471 0.886992
vt 0.116471 0.885096
vt 0.117739 0.885096
vt 0.117739 0.886992
vt 0.133217 0.870238
vt 0.133217 0.832413
vt 0.134486 0.832413
vt 0.134486 0.870238
vt 0.192900 0.908063
vt 0.192900 0.870238
vt 0.194168 0.870238
vt 0.194168 0.908063
vt 0.195317 0.764873
vt 0.195317 0.802698
vt 0.194048 0.802698
vt 0.194048 0.764873
vt 0.190243 0.764873
vt 0.190243 0.727048
vt 0.191512 0.727048
vt 0.191512 0.764873
vt 0.121544 0.885096
vt 0.122812 0.885096
vt 0.122812 0.886992
vt 0.121544 0.886992
vt 0.206796 0.594036
vt 0.206796 0.507701
vt 0.213551 0.507701
vt 0.213551 0.594036
vt 0.221140 0.455521
vt 0.221140 0.369186
vt 0.227895 0.369186
vt 0.227895 0.455521
vt 0.193962 0.594036
vt 0.193962 0.507701
vt 0.200717 0.507701
vt 0.200717 0.594036
vt 0.219630 0.594036
vt 0.219630 0.507701
vt 0.226385 0.507701
vt 0.226385 0.594036
vt 0.216591 0.603704
vt 0.229425 0.603704
vt 0.190922 0.603704
vt 0.203756 0.603704
vt 0.218101 0.465189
vt 0.230935 0.465189
vt 0.203756 0.603704
vt 0.216591 0.603704
vt 0.181749 0.824597
vt 0.181749 0.800075
vt 0.183017 0.800075
vt 0.183017 0.824597
vt 0.089836 0.909618
vt 0.089836 0.885096
vt 0.091105 0.885096
vt 0.091105 0.909618
vt 0.183017 0.824597
vt 0.183017 0.800075
vt 0.184286 0.800075
vt 0.184286 0.824597
vt 0.093641 0.909618
vt 0.093641 0.885096
vt 0.094910 0.885096
vt 0.094910 0.909618
vt 0.119007 0.885096
vt 0.120276 0.885096
vt 0.120276 0.886992
vt 0.119007 0.886992
vt 0.102520 0.885096
vt 0.102520 0.909618
vt 0.101251 0.909618
vt 0.101251 0.885096
vt 0.115202 0.909618
vt 0.115202 0.885096
vt 0.116471 0.885096
vt 0.116471 0.909618
vt 0.098715 0.885096
vt 0.098715 0.909618
vt 0.097446 0.909618
vt 0.097446 0.885096
vt 0.112666 0.909618
vt 0.112666 0.885096
vt 0.113934 0.885096
vt 0.113934 0.909618
vt 0.146743 0.885096
vt 0.148011 0.885096
vt 0.148011 0.886992
vt 0.146743 0.886992
vt 0.096178 0.909618
vt 0.096178 0.885096
vt 0.097446 0.885096
vt 0.097446 0.909618
vt 0.087300 0.909618
vt 0.087300 0.885096
vt 0.088568 0.885096
vt 0.088568 0.909618
vt 0.099983 0.885096
vt 0.099983 0.909618
vt 0.098715 0.909618
vt 0.098715 0.885096
vt 0.079690 0.909618
vt 0.079690 0.885096
vt 0.080958 0.885096
vt 0.080958 0.909618
vt 0.142938 0.885096
vt 0.142938 0.886992
vt 0.141669 0.886992
vt 0.141669 0.885096
vt 0.184286 0.824597
vt 0.184286 0.800075
vt 0.185554 0.800075
vt 0.185554 0.824597
vt 0.092373 0.909618
vt 0.092373 0.885096
vt 0.093641 0.885096
vt 0.093641 0.909618
vt 0.092373 0.885096
vt 0.092373 0.909618
vt 0.091105 0.909618
vt 0.091105 0.885096
vt 0.186822 0.824597
vt 0.186822 0.800075
vt 0.188091 0.800075
vt 0.188091 0.824597
vt 0.126617 0.885096
vt 0.127886 0.885096
vt 0.127886 0.886992
vt 0.126617 0.886992
vt 0.110129 0.885096
vt 0.110129 0.909618
vt 0.108861 0.909618
vt 0.108861 0.885096
vt 0.105056 0.909618
vt 0.105056 0.885096
vt 0.106324 0.885096
vt 0.106324 0.909618
vt 0.107593 0.885096
vt 0.107593 0.909618
vt 0.106324 0.909618
vt 0.106324 0.885096
vt 0.111398 0.909618
vt 0.111398 0.885096
vt 0.112666 0.885096
vt 0.112666 0.909618
vt 0.149279 0.885096
vt 0.150547 0.885096
vt 0.150547 0.886992
vt 0.149279 0.886992
vt 0.086031 0.885096
vt 0.086031 0.909618
vt 0.084763 0.909618
vt 0.084763 0.885096
vt 0.086031 0.909618
vt 0.086031 0.885096
vt 0.087300 0.885096
vt 0.087300 0.909618
vt 0.084763 0.885096
vt 0.084763 0.909618
vt 0.083495 0.909618
vt 0.083495 0.885096
vt 0.082226 0.909618
vt 0.082226 0.885096
vt 0.083495 0.885096
vt 0.083495 0.909618
vt 0.137865 0.885096
vt 0.139133 0.885096
vt 0.139133 0.886992
vt 0.137865 0.886992
vt 0.102520 0.909618
vt 0.102520 0.885096
vt 0.103788 0.885096
vt 0.103788 0.909618
vt 0.107593 0.909618
vt 0.107593 0.885096
vt 0.108861 0.885096
vt 0.108861 0.909618
vt 0.111398 0.885096
vt 0.111398 0.909618
vt 0.110129 0.909618
vt 0.110129 0.885096
vt 0.103788 0.909618
vt 0.103788 0.885096
vt 0.105056 0.885096
vt 0.105056 0.909618
vt 0.145474 0.885096
vt 0.146743 0.885096
vt 0.146743 0.886992
vt 0.145474 0.886992
vt 0.099983 0.909618
vt 0.099983 0.885096
vt 0.101251 0.885096
vt 0.101251 0.909618
vt 0.094910 0.909618
vt 0.094910 0.885096
vt 0.096178 0.885096
vt 0.096178 0.909618
vt 0.115202 0.885096
vt 0.115202 0.909618
vt 0.113934 0.909618
vt 0.113934 0.885096
vt 0.088568 0.909618
vt 0.088568 0.885096
vt 0.089836 0.885096
vt 0.089836 0.909618
vt 0.140401 0.885096
vt 0.140401 0.886992
vt 0.139133 0.886992
vt 0.139133 0.885096
vn 1.0000 0.0000 -0.0000
vn 0.0000 0.0000 1.0000
vn -1.0000 0.0000 0.0000
vn -0.0000 0.0000 -1.0000
vn 0.0000 -1.0000 0.0000
vn 0.0000 1.0000 -0.0000
vn -0.0000 0.4281 -0.9037
vn -0.9037 0.4281 0.0000
vn 0.0000 0.4281 0.9037
vn 0.9037 0.4281 -0.0000
usemtl Trees_Spring
s off
f 9/1/1 2/2/1 4/3/1 10/4/1
f 10/5/2 4/6/2 8/7/2 11/8/2
f 11/9/3 8/10/3 6/11/3 12/12/3
f 12/13/4 6/14/4 2/15/4 9/16/4
f 3/17/5 7/18/5 5/19/5 1/20/5
f 8/10/6 4/21/6 2/22/6 6/11/6
f 5/23/4 12/24/4 9/25/4 1/26/4
f 7/27/3 11/28/3 12/29/3 5/30/3
f 3/31/2 10/32/2 11/33/2 7/27/2
f 1/34/1 9/35/1 10/36/1 3/37/1
f 13/38/1 14/39/1 16/40/1 15/41/1
f 15/42/2 16/43/2 20/44/2 19/45/2
f 19/46/3 20/47/3 18/48/3 17/49/3
f 17/50/4 18/51/4 14/52/4 13/53/4
f 15/54/5 19/55/5 17/56/5 13/57/5
f 21/58/1 22/59/1 24/60/1 23/61/1
f 23/62/2 24/63/2 28/64/2 27/65/2
f 27/66/3 28/67/3 26/68/3 25/69/3
f 25/70/4 26/71/4 22/72/4 21/73/4
f 23/74/5 27/75/5 25/76/5 21/77/5
f 29/78/1 30/79/1 32/80/1 31/81/1
f 31/82/2 32/83/2 36/84/2 35/85/2
f 35/86/3 36/87/3 34/88/3 33/89/3
f 33/90/4 34/91/4 30/92/4 29/93/4
f 31/94/5 35/95/5 33/96/5 29/97/5
f 37/98/1 38/99/1 40/100/1 39/101/1
f 39/102/2 40/103/2 44/104/2 43/105/2
f 43/106/3 44/107/3 42/108/3 41/109/3
f 41/110/4 42/111/4 38/112/4 37/113/4
f 39/114/5 43/115/5 41/116/5 37/117/5
f 45/118/1 46/119/1 48/120/1 47/121/1
f 47/122/2 48/123/2 52/124/2 51/125/2
f 51/126/3 52/127/3 50/128/3 49/129/3
f 49/130/4 50/131/4 46/132/4 45/133/4
f 47/134/5 51/135/5 49/136/5 45/137/5
f 53/138/1 54/139/1 56/140/1 55/141/1
f 55/142/2 56/143/2 60/144/2 59/145/2
f 59/146/3 60/147/3 58/148/3 57/149/3
f 57/150/4 58/151/4 54/152/4 53/153/4
f 55/154/5 59/155/5 57/156/5 53/157/5
f 61/158/1 62/159/1 64/160/1 63/161/1
f 63/162/2 64/163/2 68/164/2 67/165/2
f 67/166/3 68/167/3 66/168/3 65/169/3
f 65/170/4 66/171/4 62/172/4 61/173/4
f 63/174/5 67/175/5 65/176/5 61/177/5
f 69/178/1 70/179/1 72/180/1 71/181/1
f 71/182/2 72/183/2 76/184/2 75/185/2
f 75/186/3 76/187/3 74/188/3 73/189/3
f 73/190/4 74/191/4 70/192/4 69/193/4
f 71/194/5 75/195/5 73/196/5 69/197/5
f 77/198/1 78/199/1 80/200/1 79/201/1
f 79/202/2 80/203/2 84/204/2 83/205/2
f 83/206/3 84/207/3 82/208/3 81/209/3
f 81/210/4 82/211/4 78/212/4 77/213/4
f 79/214/5 83/215/5 81/216/5 77/217/5
f 85/218/1 86/219/1 88/220/1 87/221/1
f 87/222/2 88/223/2 92/224/2 91/225/2
f 91/226/3 92/227/3 90/228/3 89/229/3
f 89/230/4 90/231/4 86/232/4 85/233/4
f 87/234/5 91/235/5 89/236/5 85/237/5
f 101/238/1 94/239/1 96/240/1 102/241/1
f 102/242/2 96/243/2 100/244/2 103/245/2
f 103/246/3 100/247/3 98/248/3 104/249/3
f 104/250/4 98/251/4 94/252/4 101/253/4
f 95/254/5 99/255/5 97/256/5 93/257/5
f 100/258/6 96/259/6 94/260/6 98/261/6
f 97/262/4 104/263/4 101/264/4 93/265/4
f 99/266/3 103/267/3 104/268/3 97/269/3
f 95/270/2 102/271/2 103/272/2 99/273/2
f 93/274/1 101/275/1 102/276/1 95/277/1
f 105/278/1 106/279/1 108/280/1 107/281/1
f 107/282/2 108/283/2 112/284/2 111/285/2
f 111/286/3 112/287/3 110/288/3 109/289/3
f 109/290/4 110/291/4 106/292/4 105/293/4
f 107/294/5 111/295/5 109/296/5 105/297/5
f 113/298/1 114/299/1 116/300/1 115/301/1
f 115/302/2 116/303/2 120/304/2 119/305/2
f 119/306/3 120/307/3 118/308/3 117/309/3
f 117/310/4 118/311/4 114/312/4 113/313/4
f 115/314/5 119/315/5 117/316/5 113/317/5
f 129/318/1 122/319/1 124/320/1 130/321/1
f 130/322/2 124/323/2 128/324/2 131/325/2
f 131/326/3 128/327/3 126/328/3 132/329/3
f 132/330/4 126/331/4 122/332/4 129/333/4
f 125/334/7 132/330/7 129/333/7 121/335/7
f 127/336/8 131/326/8 132/329/8 125/337/8
f 123/338/9 130/322/9 131/325/9 127/339/9
f 121/340/10 129/318/10 130/321/10 123/341/10
f 133/342/1 134/343/1 136/344/1 135/345/1
f 135/346/2 136/347/2 140/348/2 139/349/2
f 139/350/3 140/351/3 138/352/3 137/353/3
f 137/354/4 138/355/4 134/356/4 133/357/4
f 135/358/5 139/359/5 137/360/5 133/361/5
f 141/362/1 142/363/1 144/364/1 143/365/1
f 143/366/2 144/367/2 148/368/2 147/369/2
f 147/370/3 148/371/3 146/372/3 145/373/3
f 145/374/4 146/375/4 142/376/4 141/377/4
f 143/378/5 147/379/5 145/380/5 141/381/5
f 149/382/1 150/383/1 152/384/1 151/385/1
f 151/386/2 152/387/2 156/388/2 155/389/2
f 155/390/3 156/391/3 154/392/3 153/393/3
f 153/394/4 154/395/4 150/396/4 149/397/4
f 151/398/5 155/399/5 153/400/5 149/401/5
f 157/402/1 158/403/1 160/404/1 159/405/1
f 159/406/2 160/407/2 164/408/2 163/409/2
f 163/410/3 164/411/3 162/412/3 161/413/3
f 161/414/4 162/415/4 158/416/4 157/417/4
f 159/418/5 163/419/5 161/420/5 157/421/5
f 165/422/1 166/423/1 168/424/1 167/425/1
f 167/426/2 168/427/2 172/428/2 171/429/2
f 171/430/3 172/431/3 170/432/3 169/433/3
f 169/434/4 170/435/4 166/436/4 165/437/4
f 167/438/5 171/439/5 169/440/5 165/441/5
f 173/442/1 174/443/1 176/444/1 175/445/1
f 175/446/2 176/447/2 180/448/2 179/449/2
f 179/450/3 180/451/3 178/452/3 177/453/3
f 177/454/4 178/455/4 174/456/4 173/457/4
f 175/458/5 179/459/5 177/460/5 173/461/5
f 181/462/1 182/463/1 184/464/1 183/465/1
f 183/466/2 184/467/2 188/468/2 187/469/2
f 187/470/3 188/471/3 186/472/3 185/473/3
f 185/474/4 186/475/4 182/476/4 181/477/4
f 183/478/5 187/479/5 185/480/5 181/481/5
f 189/482/1 190/483/1 192/484/1 191/485/1
f 191/486/2 192/487/2 196/488/2 195/489/2
f 195/490/3 196/491/3 194/492/3 193/493/3
f 193/494/4 194/495/4 190/496/4 189/497/4
f 191/498/5 195/499/5 193/500/5 189/501/5
