# Blender v2.80 (sub 74) OBJ File: 'trees.blend'
# www.blender.org
mtllib cryingtree1.mtl
o cryingtree1_Cube.075
v 2.532349 5.939655 -2.532358
v 2.532349 8.911581 -2.532358
v 2.532351 5.939655 2.532349
v 2.532351 8.911581 2.532349
v -2.532351 5.939655 -2.532357
v -2.532351 8.911581 -2.532357
v -2.532349 5.939655 2.532351
v -2.532349 8.911581 2.532351
v 2.532349 7.929531 -2.532358
v 2.532351 7.929531 2.532349
v -2.532349 7.929531 2.532351
v -2.532351 7.929531 -2.532357
v 0.715394 3.682174 -1.640930
v 0.715394 7.319025 -1.640930
v 0.715394 3.682174 -1.458633
v 0.715394 7.319025 -1.458633
v 0.533089 3.682174 -1.640930
v 0.533089 7.319025 -1.640930
v 0.533089 3.682174 -1.458633
v 0.533089 7.319025 -1.458633
v -0.213221 3.283191 1.759941
v -0.213221 6.920042 1.759941
v -0.213221 3.283191 1.942238
v -0.213221 6.920042 1.942238
v -0.395518 3.283191 1.759941
v -0.395518 6.920042 1.759941
v -0.395518 3.283191 1.942238
v -0.395518 6.920042 1.942238
v -2.220531 2.817631 1.364050
v -2.220531 6.454482 1.364050
v -2.220531 2.817631 1.546347
v -2.220531 6.454482 1.546347
v -2.402836 2.817631 1.364050
v -2.402836 6.454482 1.364050
v -2.402836 2.817631 1.546347
v -2.402836 6.454482 1.546347
v -1.941524 3.427484 -0.183694
v -1.941524 7.064335 -0.183694
v -1.941524 3.427484 -0.001397
v -1.941524 7.064335 -0.001397
v -2.123821 3.427484 -0.183694
v -2.123821 7.064335 -0.183694
v -2.123821 3.427484 -0.001397
v -2.123821 7.064335 -0.001397
v -1.528928 3.826040 -1.674346
v -1.528928 7.462892 -1.674346
v -1.528928 3.826040 -1.492049
v -1.528928 7.462892 -1.492049
v -1.711226 3.826040 -1.674346
v -1.711226 7.462892 -1.674346
v -1.711226 3.826040 -1.492049
v -1.711226 7.462892 -1.492049
v -2.040618 3.365477 -2.046252
v -2.040618 7.002329 -2.046252
v -2.040618 3.365477 -1.863955
v -2.040618 7.002329 -1.863955
v -2.222915 3.365477 -2.046252
v -2.222915 7.002329 -2.046252
v -2.222915 3.365477 -1.863955
v -2.222915 7.002329 -1.863955
v 0.701601 0.000000 -0.701601
v 0.369267 7.016035 -0.369267
v 0.701601 0.000000 0.701601
v 0.369267 7.016035 0.369267
v -0.701601 0.000000 -0.701601
v -0.369267 7.016035 -0.369267
v -0.701601 0.000000 0.701601
v -0.369267 7.016035 0.369267
v 0.369267 0.701604 -0.369267
v 0.369267 0.701604 0.369267
v -0.369267 0.701604 0.369267
v -0.369267 0.701604 -0.369267
v 2.063228 4.323725 -1.918486
v 2.063228 6.681517 -1.918486
v 2.063228 4.323725 -1.736189
v 2.063228 6.681517 -1.736189
v 1.880923 4.323725 -1.918486
v 1.880923 6.681517 -1.918486
v 1.880923 4.323725 -1.736189
v 1.880923 6.681517 -1.736189
v -0.264710 4.821581 -1.479606
v -0.264710 7.179373 -1.479606
v -0.264710 4.821581 -1.297317
v -0.264710 7.179373 -1.297317
v -0.447007 4.821581 -1.479606
v -0.447007 7.179373 -1.479606
v -0.447007 4.821581 -1.297317
v -0.447007 7.179373 -1.297317
v -0.895519 4.398243 -1.076721
v -0.895519 6.756035 -1.076721
v -0.895519 4.398243 -0.894424
v -0.895519 6.756035 -0.894424
v -1.077816 4.398243 -1.076721
v -1.077816 6.756035 -1.076721
v -1.077816 4.398243 -0.894424
v -1.077816 6.756035 -0.894424
v -0.960015 4.995123 0.615463
v -0.960015 7.352915 0.615463
v -0.960015 4.995123 0.797761
v -0.960015 7.352915 0.797761
v -1.142312 4.995123 0.615464
v -1.142312 7.352915 0.615464
v -1.142312 4.995123 0.797761
v -1.142312 7.352915 0.797761
v 1.739418 4.638006 0.615463
v 1.739418 6.995798 0.615463
v 1.739418 4.638006 0.797760
v 1.739418 6.995798 0.797760
v 1.557121 4.638006 0.615463
v 1.557121 6.995798 0.615463
v 1.557121 4.638006 0.797760
v 1.557121 6.995798 0.797760
v 1.739417 3.912400 -0.868188
v 1.739417 6.270191 -0.868188
v 1.739417 3.912400 -0.685891
v 1.739417 6.270191 -0.685891
v 1.557120 3.912400 -0.868188
v 1.557120 6.270191 -0.868188
v 1.557120 3.912400 -0.685891
v 1.557120 6.270191 -0.685891
v 1.739418 3.733639 1.776241
v 1.739418 6.091431 1.776241
v 1.739418 3.733639 1.958538
v 1.739418 6.091431 1.958538
v 1.557121 3.733639 1.776241
v 1.557121 6.091431 1.776241
v 1.557121 3.733639 1.958539
v 1.557121 6.091431 1.958539
v 0.742462 4.638006 0.827288
v 0.742462 6.995798 0.827288
v 0.742462 4.638006 1.009585
v 0.742462 6.995798 1.009585
v 0.560165 4.638006 0.827288
v 0.560165 6.995798 0.827288
v 0.560165 4.638006 1.009585
v 0.560165 6.995798 1.009585
vt 0.482749 0.874483
vt 0.472037 0.874483
vt 0.472037 0.822630
vt 0.482749 0.822630
vt 0.558576 0.822630
vt 0.569288 0.822630
vt 0.569288 0.874483
vt 0.558576 0.874483
vt 0.450332 0.874483
vt 0.439620 0.874483
vt 0.439620 0.822630
vt 0.450332 0.822630
vt 0.526159 0.822630
vt 0.536871 0.822630
vt 0.536871 0.874483
vt 0.526159 0.874483
vt 0.142353 0.784733
vt 0.217618 0.784733
vt 0.217618 0.855358
vt 0.142353 0.855358
vt 0.494880 0.822630
vt 0.439620 0.822630
vt 0.439620 0.770777
vt 0.494880 0.770777
vt 0.155393 0.855358
vt 0.184955 0.855358
vt 0.184955 0.925982
vt 0.155393 0.925982
vt 0.111240 0.925983
vt 0.081678 0.925983
vt 0.081678 0.855358
vt 0.111240 0.855358
vt 0.199545 0.855358
vt 0.229108 0.855358
vt 0.229108 0.925982
vt 0.199545 0.925982
vt 0.125830 0.925983
vt 0.125830 0.855358
vt 0.155393 0.855358
vt 0.202971 0.802074
vt 0.202971 0.761110
vt 0.205160 0.761110
vt 0.205160 0.802074
vt 0.192027 0.802074
vt 0.192027 0.761110
vt 0.194216 0.761110
vt 0.194216 0.802074
vt 0.085062 0.859427
vt 0.085062 0.900390
vt 0.082873 0.900390
vt 0.082873 0.859427
vt 0.185460 0.802074
vt 0.185460 0.761110
vt 0.187649 0.761110
vt 0.187649 0.802074
vt 0.168016 0.859426
vt 0.168016 0.861480
vt 0.165827 0.861480
vt 0.165827 0.859426
vt 0.082873 0.859427
vt 0.082873 0.900390
vt 0.080684 0.900390
vt 0.080684 0.859427
vt 0.220482 0.802074
vt 0.220482 0.761110
vt 0.222671 0.761110
vt 0.222671 0.802074
vt 0.089439 0.859427
vt 0.089439 0.900390
vt 0.087250 0.900390
vt 0.087250 0.859427
vt 0.207349 0.802074
vt 0.207349 0.761110
vt 0.209538 0.761110
vt 0.209538 0.802074
vt 0.185527 0.859426
vt 0.187716 0.859426
vt 0.187716 0.861480
vt 0.185527 0.861480
vt 0.198593 0.802074
vt 0.198593 0.761110
vt 0.200782 0.761110
vt 0.200782 0.802074
vt 0.189838 0.802074
vt 0.189838 0.761110
vt 0.192027 0.761110
vt 0.192027 0.802074
vt 0.091628 0.859427
vt 0.091628 0.900390
vt 0.089439 0.900390
vt 0.089439 0.859427
vt 0.187649 0.802074
vt 0.187649 0.761110
vt 0.189838 0.761110
vt 0.189838 0.802074
vt 0.165827 0.859426
vt 0.165827 0.861480
vt 0.163638 0.861480
vt 0.163638 0.859426
vt 0.213915 0.761110
vt 0.213915 0.802074
vt 0.211726 0.802074
vt 0.211726 0.761110
vt 0.218293 0.761110
vt 0.218293 0.802074
vt 0.216104 0.802074
vt 0.216104 0.761110
vt 0.087250 0.859427
vt 0.087250 0.900390
vt 0.085062 0.900390
vt 0.085062 0.859427
vt 0.205160 0.802074
vt 0.205160 0.761110
vt 0.207349 0.761110
vt 0.207349 0.802074
vt 0.183338 0.859426
vt 0.185527 0.859426
vt 0.185527 0.861480
vt 0.183338 0.861480
vt 0.194216 0.802074
vt 0.194216 0.761110
vt 0.196404 0.761110
vt 0.196404 0.802074
vt 0.213915 0.802074
vt 0.213915 0.761110
vt 0.216104 0.761110
vt 0.216104 0.802074
vt 0.224859 0.761110
vt 0.224859 0.802074
vt 0.222671 0.802074
vt 0.222671 0.761110
vt 0.224859 0.802074
vt 0.224859 0.761110
vt 0.227048 0.761110
vt 0.227048 0.802074
vt 0.165827 0.861480
vt 0.168016 0.861480
vt 0.168016 0.863534
vt 0.165827 0.863534
vt 0.196404 0.802074
vt 0.196404 0.761110
vt 0.198593 0.761110
vt 0.198593 0.802074
vt 0.209538 0.802074
vt 0.209538 0.761110
vt 0.211726 0.761110
vt 0.211726 0.802074
vt 0.218293 0.802074
vt 0.218293 0.761110
vt 0.220482 0.761110
vt 0.220482 0.802074
vt 0.200782 0.802074
vt 0.200782 0.761110
vt 0.202971 0.761110
vt 0.202971 0.802074
vt 0.170205 0.859426
vt 0.172394 0.859426
vt 0.172394 0.861480
vt 0.170205 0.861480
vt 0.205347 0.516069
vt 0.205347 0.473868
vt 0.210608 0.473868
vt 0.210608 0.516069
vt 0.100686 0.549926
vt 0.100686 0.507726
vt 0.105947 0.507726
vt 0.105947 0.549926
vt 0.195350 0.516069
vt 0.195350 0.473868
vt 0.200611 0.473868
vt 0.200611 0.516069
vt 0.185353 0.516069
vt 0.185353 0.473868
vt 0.190615 0.473868
vt 0.190615 0.516069
vt 0.182985 0.520811
vt 0.192982 0.520811
vt 0.192982 0.520811
vt 0.202979 0.520811
vt 0.098318 0.554668
vt 0.108315 0.554668
vt 0.202979 0.520811
vt 0.212976 0.520811
vt 0.111328 0.885984
vt 0.111328 0.859427
vt 0.113517 0.859427
vt 0.113517 0.885984
vt 0.091628 0.885984
vt 0.091628 0.859427
vt 0.093817 0.859427
vt 0.093817 0.885984
vt 0.159261 0.859426
vt 0.159261 0.885983
vt 0.157072 0.885983
vt 0.157072 0.859426
vt 0.093817 0.885984
vt 0.093817 0.859427
vt 0.096006 0.859427
vt 0.096006 0.885984
vt 0.170205 0.859426
vt 0.170205 0.861480
vt 0.168016 0.861480
vt 0.168016 0.859426
vt 0.159261 0.885983
vt 0.159261 0.859426
vt 0.161449 0.859426
vt 0.161449 0.885983
vt 0.126650 0.885984
vt 0.126650 0.859427
vt 0.128839 0.859427
vt 0.128839 0.885984
vt 0.163638 0.859426
vt 0.163638 0.885983
vt 0.161449 0.885983
vt 0.161449 0.859426
vt 0.117895 0.885984
vt 0.117895 0.859427
vt 0.120083 0.859427
vt 0.120083 0.885984
vt 0.172394 0.861480
vt 0.172394 0.863534
vt 0.170205 0.863534
vt 0.170205 0.861480
vt 0.104761 0.885984
vt 0.104761 0.859427
vt 0.106950 0.859427
vt 0.106950 0.885984
vt 0.152694 0.885983
vt 0.152694 0.859426
vt 0.154883 0.859426
vt 0.154883 0.885983
vt 0.148316 0.885983
vt 0.148316 0.859426
vt 0.150505 0.859426
vt 0.150505 0.885983
vt 0.135183 0.885983
vt 0.135183 0.859426
vt 0.137372 0.859426
vt 0.137372 0.885983
vt 0.181149 0.859426
vt 0.183338 0.859426
vt 0.183338 0.861480
vt 0.181149 0.861480
vt 0.098195 0.885984
vt 0.098195 0.859427
vt 0.100384 0.859427
vt 0.100384 0.885984
vt 0.137372 0.885983
vt 0.137372 0.859426
vt 0.139561 0.859426
vt 0.139561 0.885983
vt 0.146128 0.859426
vt 0.146128 0.885983
vt 0.143939 0.885983
vt 0.143939 0.859426
vt 0.139561 0.885983
vt 0.139561 0.859426
vt 0.141750 0.859426
vt 0.141750 0.885983
vt 0.174582 0.859426
vt 0.176771 0.859426
vt 0.176771 0.861480
vt 0.174582 0.861480
vt 0.102573 0.885984
vt 0.102573 0.859427
vt 0.104761 0.859427
vt 0.104761 0.885984
vt 0.115706 0.885984
vt 0.115706 0.859427
vt 0.117895 0.859427
vt 0.117895 0.885984
vt 0.157072 0.859426
vt 0.157072 0.885983
vt 0.154883 0.885983
vt 0.154883 0.859426
vt 0.109139 0.885984
vt 0.109139 0.859427
vt 0.111328 0.859427
vt 0.111328 0.885984
vt 0.176771 0.859426
vt 0.178960 0.859426
vt 0.178960 0.861480
vt 0.176771 0.861480
vt 0.106950 0.885984
vt 0.106950 0.859427
vt 0.109139 0.859427
vt 0.109139 0.885984
vt 0.124461 0.885984
vt 0.124461 0.859427
vt 0.126650 0.859427
vt 0.126650 0.885984
vt 0.148316 0.859426
vt 0.148316 0.885983
vt 0.146128 0.885983
vt 0.146128 0.859426
vt 0.113517 0.885984
vt 0.113517 0.859427
vt 0.115706 0.859427
vt 0.115706 0.885984
vt 0.178960 0.859426
vt 0.181149 0.859426
vt 0.181149 0.861480
vt 0.178960 0.861480
vt 0.096006 0.885984
vt 0.096006 0.859427
vt 0.098195 0.859427
vt 0.098195 0.885984
vt 0.124461 0.859427
vt 0.124461 0.885984
vt 0.122272 0.885984
vt 0.122272 0.859427
vt 0.152694 0.859426
vt 0.152694 0.885983
vt 0.150505 0.885983
vt 0.150505 0.859426
vt 0.120083 0.885984
vt 0.120083 0.859427
vt 0.122272 0.859427
vt 0.122272 0.885984
vt 0.163638 0.861480
vt 0.165827 0.861480
vt 0.165827 0.863534
vt 0.163638 0.863534
vt 0.100384 0.885984
vt 0.100384 0.859427
vt 0.102573 0.859427
vt 0.102573 0.885984
vt 0.131028 0.885984
vt 0.131028 0.859427
vt 0.133217 0.859427
vt 0.133217 0.885984
vt 0.143939 0.859426
vt 0.143939 0.885983
vt 0.141750 0.885983
vt 0.141750 0.859426
vt 0.128839 0.885984
vt 0.128839 0.859427
vt 0.131028 0.859427
vt 0.131028 0.885984
vt 0.172394 0.861480
vt 0.172394 0.859426
vt 0.174582 0.859426
vt 0.174582 0.861480
vn 1.0000 0.0000 -0.0000
vn 0.0000 0.0000 1.0000
vn -1.0000 0.0000 0.0000
vn -0.0000 0.0000 -1.0000
vn 0.0000 -1.0000 0.0000
vn 0.0000 1.0000 0.0000
vn -0.0000 0.4281 -0.9037
vn -0.9037 0.4281 0.0000
vn 0.0000 0.4281 0.9037
vn 0.9037 0.4281 -0.0000
usemtl Trees_Spring
s off
f 9/1/1 2/2/1 4/3/1 10/4/1
f 10/5/2 4/6/2 8/7/2 11/8/2
f 11/9/3 8/10/3 6/11/3 12/12/3
f 12/13/4 6/14/4 2/15/4 9/16/4
f 3/17/5 7/18/5 5/19/5 1/20/5
f 8/21/6 4/22/6 2/23/6 6/24/6
f 5/25/4 12/26/4 9/27/4 1/28/4
f 7/29/3 11/30/3 12/31/3 5/32/3
f 3/33/2 10/34/2 11/35/2 7/36/2
f 1/28/1 9/37/1 10/38/1 3/39/1
f 13/40/1 14/41/1 16/42/1 15/43/1
f 15/44/2 16/45/2 20/46/2 19/47/2
f 19/48/3 20/49/3 18/50/3 17/51/3
f 17/52/4 18/53/4 14/54/4 13/55/4
f 15/56/5 19/57/5 17/58/5 13/59/5
f 21/60/1 22/61/1 24/62/1 23/63/1
f 23/64/2 24/65/2 28/66/2 27/67/2
f 27/68/3 28/69/3 26/70/3 25/71/3
f 25/72/4 26/73/4 22/74/4 21/75/4
f 23/76/5 27/77/5 25/78/5 21/79/5
f 29/80/1 30/81/1 32/82/1 31/83/1
f 31/84/2 32/85/2 36/86/2 35/87/2
f 35/88/3 36/89/3 34/90/3 33/91/3
f 33/92/4 34/93/4 30/94/4 29/95/4
f 31/96/5 35/97/5 33/98/5 29/99/5
f 37/100/1 38/101/1 40/102/1 39/103/1
f 39/104/2 40/105/2 44/106/2 43/107/2
f 43/108/3 44/109/3 42/110/3 41/111/3
f 41/112/4 42/113/4 38/114/4 37/115/4
f 39/116/5 43/117/5 41/118/5 37/119/5
f 45/120/1 46/121/1 48/122/1 47/123/1
f 47/124/2 48/125/2 52/126/2 51/127/2
f 51/128/3 52/129/3 50/130/3 49/131/3
f 49/132/4 50/133/4 46/134/4 45/135/4
f 47/136/5 51/137/5 49/138/5 45/139/5
f 53/140/1 54/141/1 56/142/1 55/143/1
f 55/144/2 56/145/2 60/146/2 59/147/2
f 59/148/3 60/149/3 58/150/3 57/151/3
f 57/152/4 58/153/4 54/154/4 53/155/4
f 55/156/5 59/157/5 57/158/5 53/159/5
f 69/160/1 62/161/1 64/162/1 70/163/1
f 70/164/2 64/165/2 68/166/2 71/167/2
f 71/168/3 68/169/3 66/170/3 72/171/3
f 72/172/4 66/173/4 62/174/4 69/175/4
f 65/176/7 72/172/7 69/175/7 61/177/7
f 67/178/8 71/168/8 72/171/8 65/179/8
f 63/180/9 70/164/9 71/167/9 67/181/9
f 61/182/10 69/160/10 70/163/10 63/183/10
f 73/184/1 74/185/1 76/186/1 75/187/1
f 75/188/2 76/189/2 80/190/2 79/191/2
f 79/192/3 80/193/3 78/194/3 77/195/3
f 77/196/4 78/197/4 74/198/4 73/199/4
f 75/200/5 79/201/5 77/202/5 73/203/5
f 81/204/1 82/205/1 84/206/1 83/207/1
f 83/208/2 84/209/2 88/210/2 87/211/2
f 87/212/3 88/213/3 86/214/3 85/215/3
f 85/216/4 86/217/4 82/218/4 81/219/4
f 83/220/5 87/221/5 85/222/5 81/223/5
f 89/224/1 90/225/1 92/226/1 91/227/1
f 91/228/2 92/229/2 96/230/2 95/231/2
f 95/232/3 96/233/3 94/234/3 93/235/3
f 93/236/4 94/237/4 90/238/4 89/239/4
f 91/240/5 95/241/5 93/242/5 89/243/5
f 97/244/1 98/245/1 100/246/1 99/247/1
f 99/248/2 100/249/2 104/250/2 103/251/2
f 103/252/3 104/253/3 102/254/3 101/255/3
f 101/256/4 102/257/4 98/258/4 97/259/4
f 99/260/5 103/261/5 101/262/5 97/263/5
f 105/264/1 106/265/1 108/266/1 107/267/1
f 107/268/2 108/269/2 112/270/2 111/271/2
f 111/272/3 112/273/3 110/274/3 109/275/3
f 109/276/4 110/277/4 106/278/4 105/279/4
f 107/280/5 111/281/5 109/282/5 105/283/5
f 113/284/1 114/285/1 116/286/1 115/287/1
f 115/288/2 116/289/2 120/290/2 119/291/2
f 119/292/3 120/293/3 118/294/3 117/295/3
f 117/296/4 118/297/4 114/298/4 113/299/4
f 115/300/5 119/301/5 117/302/5 113/303/5
f 121/304/1 122/305/1 124/306/1 123/307/1
f 123/308/2 124/309/2 128/310/2 127/311/2
f 127/312/3 128/313/3 126/314/3 125/315/3
f 125/316/4 126/317/4 122/318/4 121/319/4
f 123/320/5 127/321/5 125/322/5 121/323/5
f 129/324/1 130/325/1 132/326/1 131/327/1
f 131/328/2 132/329/2 136/330/2 135/331/2
f 135/332/3 136/333/3 134/334/3 133/335/3
f 133/336/4 134/337/4 130/338/4 129/339/4
f 131/340/5 135/341/5 133/342/5 129/343/5
