# Blender v2.80 (sub 74) OBJ File: 'trees.blend'
# www.blender.org
mtllib tall2.mtl
o tall2_Cube.097
v -0.663616 0.000000 0.663617
v -0.331808 12.539940 0.331808
v -0.663617 0.000000 -0.663616
v -0.331808 12.539940 -0.331808
v 0.663617 0.000000 0.663616
v 0.331808 12.539940 0.331808
v 0.663616 0.000000 -0.663617
v 0.331808 12.539940 -0.331808
v -0.331808 1.296461 0.331808
v -0.331808 1.296461 -0.331808
v 0.331808 1.296461 -0.331808
v 0.331808 1.296461 0.331808
v -0.331807 13.718599 3.344851
v -0.331807 13.718599 3.924048
v 0.331809 13.718599 3.344851
v 0.331810 13.718599 3.924047
v -0.331807 12.539940 3.924048
v -0.331807 11.956533 3.924048
v 0.331810 11.956533 3.924047
v 0.331810 12.539940 3.924047
v 0.331809 11.956533 3.344851
v 0.331809 12.539940 3.344851
v -0.331807 12.539940 3.344851
v -0.331807 11.956533 3.344851
v 4.237034 13.824785 0.331806
v 3.728790 13.824785 0.331806
v 3.728789 13.824785 -0.331810
v 4.237033 13.824785 -0.331811
v 4.237034 11.956533 0.331806
v 4.237034 12.539940 0.331806
v 4.237033 11.956533 -0.331811
v 4.237033 12.539940 -0.331811
v 3.728790 11.956533 0.331806
v 3.728789 11.956533 -0.331810
v 3.728790 12.539940 0.331806
v 3.728789 12.539940 -0.331810
v -0.331810 13.668167 -2.306286
v -0.331809 13.668167 -1.738919
v 0.331807 13.668167 -1.738920
v 0.331807 13.668167 -2.306286
v 0.331807 11.956533 -2.306286
v -0.331810 11.956533 -2.306286
v 0.331807 12.539940 -2.306286
v -0.331810 12.539940 -2.306286
v 0.331807 11.956533 -1.738920
v 0.331807 12.539940 -1.738920
v -0.331809 11.956533 -1.738919
v -0.331809 12.539940 -1.738919
v 0.331807 11.956533 -1.035364
v -0.331809 11.956533 -1.035364
v 0.331807 12.539940 -1.035364
v -0.331809 12.539940 -1.035364
v 0.331808 11.956533 0.331808
v 0.331808 11.956533 -0.331808
v -0.331808 11.956533 -0.331808
v -0.331808 11.956533 0.331808
v -2.442475 11.956533 0.331809
v -2.442475 12.539940 0.331809
v -2.442476 12.539940 -0.331807
v -2.442476 11.956533 -0.331807
v -3.146031 11.956533 0.331810
v -3.146031 12.539940 0.331810
v -3.146032 12.539940 -0.331807
v -3.146032 11.956533 -0.331807
v -2.442475 14.371723 0.331809
v -2.442476 14.371723 -0.331807
v -3.146031 14.371723 0.331810
v -3.146032 14.371723 -0.331807
v 1.387142 11.956533 -0.331809
v 1.387142 11.956533 0.331807
v 1.387142 12.539940 -0.331809
v 1.387142 12.539940 0.331807
v 1.914809 11.956533 -0.331809
v 1.914809 11.956533 0.331807
v 1.914809 12.539940 0.331807
v 1.914809 12.539940 -0.331809
v 1.387142 11.956533 1.738919
v 1.387142 12.539940 1.738919
v 1.914809 11.956533 1.738918
v 1.914809 12.539940 1.738918
v 1.387143 11.956533 2.197954
v 1.387143 12.539940 2.197954
v 1.914809 11.956533 2.197954
v 1.914809 12.539940 2.197954
v 1.387142 13.661182 1.738919
v 1.914809 13.661182 1.738918
v 1.387143 13.661182 2.197954
v 1.914809 13.661182 2.197954
v 3.455264 13.308603 0.411264
v 3.455264 14.005733 0.411264
v 3.455265 13.308603 2.932239
v 3.455265 14.005733 2.932239
v 0.934289 13.308603 0.411265
v 0.934289 14.005733 0.411265
v 0.934290 13.308603 2.932240
v 0.934290 14.005733 2.932240
v 1.329210 13.315297 2.197931
v 1.329210 14.114834 2.197931
v 1.329212 13.315297 5.089235
v 1.329212 14.114834 5.089235
v -1.562093 13.315297 2.197932
v -1.562093 14.114834 2.197932
v -1.562092 13.315297 5.089236
v -1.562092 14.114834 5.089236
v 2.846202 13.802084 -0.817525
v 2.846202 13.802084 2.155864
v 5.819592 13.802084 2.155864
v 5.819591 13.802084 -0.817527
v 2.846202 14.074374 2.155864
v 2.846202 13.252136 2.155864
v 2.846202 14.074374 -0.817525
v 2.846202 13.252136 -0.817525
v -1.478473 13.782049 -1.387114
v -1.478473 14.672235 -1.387114
v -1.478472 13.782049 1.831995
v -1.478472 14.672235 1.831995
v -4.697581 13.782049 -1.387113
v -4.697581 14.672235 -1.387113
v -4.697580 13.782049 1.831995
v -4.697580 14.672235 1.831995
v 1.607416 13.521980 -3.767720
v 1.607416 14.344219 -3.767720
v 1.607418 13.521980 -0.794330
v 1.607418 14.344219 -0.794330
v -1.365972 13.521980 -3.767719
v -1.365972 14.344219 -3.767719
v -1.365972 13.521980 -0.794330
v -1.365972 14.344219 -0.794330
v 3.455264 13.772948 0.411264
v 3.455265 13.772948 2.932239
v 0.934290 13.772948 2.932240
v 0.934289 13.772948 0.411265
v 1.607416 14.071929 -3.767720
v 1.607418 14.071929 -0.794330
v -1.365972 14.071929 -0.794330
v -1.365972 14.071929 -3.767719
v -1.478473 14.473125 -1.387114
v -1.478472 14.473125 1.831995
v -4.697580 14.473125 1.831995
v -4.697581 14.473125 -1.387113
v 1.329210 13.919037 2.197931
v 1.329212 13.919037 5.089235
v -1.562092 13.919037 5.089236
v -1.562093 13.919037 2.197932
v 5.819592 14.074374 2.155864
v 5.819592 13.252136 2.155864
v 5.819591 14.074374 -0.817527
v 5.819591 13.252136 -0.817527
vt 0.168354 0.585198
vt 0.164100 0.585198
vt 0.164100 0.561775
vt 0.168354 0.561775
vt 0.102124 0.439022
vt 0.105335 0.444532
vt 0.101497 0.449712
vt 0.098286 0.444203
vt 0.108239 0.619323
vt 0.117217 0.569362
vt 0.117217 0.562888
vt 0.112493 0.619323
vt 0.135068 0.540245
vt 0.137487 0.525823
vt 0.142326 0.525823
vt 0.144745 0.540245
vt 0.154423 0.540244
vt 0.156842 0.525823
vt 0.161681 0.525823
vt 0.164100 0.540244
vt 0.125390 0.540245
vt 0.127810 0.525823
vt 0.132649 0.525823
vt 0.135068 0.540245
vt 0.147165 0.525823
vt 0.152003 0.525823
vt 0.154423 0.540244
vt 0.210020 0.442634
vt 0.205181 0.442634
vt 0.205181 0.429554
vt 0.210020 0.429554
vt 0.147990 0.607693
vt 0.152828 0.607693
vt 0.152828 0.620773
vt 0.147990 0.620773
vt 0.213087 0.547099
vt 0.213087 0.553527
vt 0.204493 0.553527
vt 0.204493 0.547099
vt 0.217341 0.553527
vt 0.217341 0.547099
vt 0.112994 0.562888
vt 0.112994 0.549808
vt 0.117217 0.549808
vt 0.178573 0.547539
vt 0.183411 0.547539
vt 0.183411 0.553967
vt 0.178573 0.553967
vt 0.152828 0.601219
vt 0.147990 0.601219
vt 0.112994 0.569362
vt 0.151324 0.545885
vt 0.151324 0.540245
vt 0.160692 0.540245
vt 0.160692 0.545885
vt 0.229722 0.457487
vt 0.226016 0.457487
vt 0.226016 0.443229
vt 0.229722 0.443229
vt 0.208457 0.499685
vt 0.213296 0.499685
vt 0.213296 0.513943
vt 0.208457 0.513943
vt 0.226016 0.463961
vt 0.229722 0.463961
vt 0.108316 0.481269
vt 0.104105 0.477644
vt 0.105929 0.472734
vt 0.110141 0.476360
vt 0.147071 0.545885
vt 0.147071 0.540245
vt 0.143151 0.601219
vt 0.143151 0.607693
vt 0.138312 0.607693
vt 0.138312 0.601219
vt 0.229722 0.458105
vt 0.233975 0.458105
vt 0.143151 0.621951
vt 0.138312 0.621951
vt 0.151324 0.566016
vt 0.147071 0.566016
vt 0.125390 0.467848
vt 0.121771 0.472734
vt 0.112994 0.457674
vt 0.116614 0.452787
vt 0.101806 0.498792
vt 0.097594 0.495167
vt 0.117832 0.581882
vt 0.112994 0.581882
vt 0.112994 0.569362
vt 0.117832 0.569362
vt 0.191638 0.579186
vt 0.191638 0.585482
vt 0.183411 0.585482
vt 0.183411 0.579186
vt 0.157667 0.613739
vt 0.152828 0.613739
vt 0.152828 0.601219
vt 0.157667 0.601219
vt 0.100138 0.597510
vt 0.100138 0.603807
vt 0.091912 0.603807
vt 0.091912 0.597510
vt 0.104392 0.597510
vt 0.104392 0.603807
vt 0.133474 0.616835
vt 0.138312 0.616835
vt 0.138312 0.623131
vt 0.133474 0.623131
vt 0.152828 0.620213
vt 0.157667 0.620213
vt 0.097659 0.454893
vt 0.094449 0.449384
vt 0.195891 0.593290
vt 0.191638 0.593290
vt 0.195891 0.585482
vt 0.133474 0.609027
vt 0.138312 0.609027
vt 0.195891 0.579186
vt 0.100138 0.581895
vt 0.104392 0.581895
vt 0.104392 0.589703
vt 0.100138 0.589703
vt 0.195891 0.601098
vt 0.191638 0.601098
vt 0.133474 0.601219
vt 0.138312 0.601219
vt 0.105744 0.434135
vt 0.108955 0.439645
vt 0.147165 0.407527
vt 0.152003 0.407527
vt 0.127810 0.407527
vt 0.132649 0.407527
vt 0.156842 0.407527
vt 0.161681 0.407527
vt 0.137487 0.407527
vt 0.142326 0.407527
vt 0.164100 0.553967
vt 0.168354 0.553967
vt 0.187572 0.407527
vt 0.191826 0.407527
vt 0.191826 0.430950
vt 0.187572 0.430950
vt 0.120140 0.472734
vt 0.124979 0.472734
vt 0.124979 0.496158
vt 0.120140 0.496158
vt 0.091912 0.421498
vt 0.095532 0.416612
vt 0.230655 0.434328
vt 0.230655 0.427854
vt 0.235494 0.427854
vt 0.235494 0.434328
vt 0.230655 0.407527
vt 0.235494 0.407527
vt 0.124979 0.503966
vt 0.120140 0.503966
vt 0.191826 0.438758
vt 0.187572 0.438758
vt 0.205181 0.430950
vt 0.205181 0.438758
vt 0.143151 0.601219
vt 0.147990 0.601219
vt 0.147990 0.621547
vt 0.143151 0.621547
vt 0.181710 0.553967
vt 0.181710 0.561775
vt 0.213087 0.586964
vt 0.217341 0.586964
vt 0.122180 0.411947
vt 0.125390 0.417457
vt 0.183411 0.514101
vt 0.178573 0.514101
vt 0.116746 0.614316
vt 0.112493 0.614316
vt 0.112493 0.602605
vt 0.116746 0.602605
vt 0.096124 0.514084
vt 0.091912 0.510459
vt 0.095700 0.500264
vt 0.099912 0.503889
vt 0.229722 0.440537
vt 0.233975 0.440537
vt 0.233975 0.452249
vt 0.229722 0.452249
vt 0.114061 0.448406
vt 0.110441 0.453293
vt 0.110736 0.506479
vt 0.108842 0.511576
vt 0.218117 0.441997
vt 0.214269 0.441997
vt 0.214269 0.429554
vt 0.218117 0.429554
vt 0.116821 0.602605
vt 0.112567 0.602605
vt 0.112567 0.586989
vt 0.116820 0.586989
vt 0.121736 0.438044
vt 0.124289 0.442425
vt 0.216632 0.443251
vt 0.220886 0.443251
vt 0.220886 0.458867
vt 0.216632 0.458867
vt 0.108239 0.615047
vt 0.108239 0.621521
vt 0.104392 0.621521
vt 0.104392 0.615047
vt 0.220886 0.463961
vt 0.216632 0.463961
vt 0.112567 0.581895
vt 0.116821 0.581895
vt 0.113650 0.508987
vt 0.111756 0.514084
vt 0.104392 0.586989
vt 0.104392 0.581895
vt 0.208457 0.463961
vt 0.208457 0.458867
vt 0.104392 0.602605
vt 0.108239 0.602605
vt 0.559026 0.928371
vt 0.556380 0.928371
vt 0.556380 0.899251
vt 0.559026 0.899251
vt 0.559312 0.862377
vt 0.561958 0.862377
vt 0.561958 0.891498
vt 0.559312 0.891498
vt 0.557050 0.775840
vt 0.559696 0.775840
vt 0.559696 0.804961
vt 0.557050 0.804961
vt 0.560311 0.843206
vt 0.557666 0.843206
vt 0.557666 0.814085
vt 0.560311 0.814085
vt 0.112935 0.896466
vt 0.132399 0.896466
vt 0.132399 0.926090
vt 0.112935 0.926090
vt 0.467324 0.889589
vt 0.486457 0.889589
vt 0.486457 0.918710
vt 0.467324 0.918710
vt 0.503653 0.935432
vt 0.500619 0.935432
vt 0.500619 0.902034
vt 0.503653 0.902034
vt 0.554632 0.847484
vt 0.551598 0.847484
vt 0.551598 0.814085
vt 0.554632 0.814085
vt 0.553633 0.895776
vt 0.550599 0.895776
vt 0.550599 0.862377
vt 0.553633 0.862377
vt 0.554725 0.717099
vt 0.557759 0.717099
vt 0.557759 0.750497
vt 0.554725 0.750497
vt 0.099809 0.905628
vt 0.077486 0.905628
vt 0.077486 0.871653
vt 0.099809 0.871653
vt 0.512710 0.787682
vt 0.512710 0.754284
vt 0.534653 0.754284
vt 0.534653 0.787682
vt 0.448191 0.855243
vt 0.470757 0.855243
vt 0.470757 0.889589
vt 0.448191 0.889589
vt 0.551285 0.810187
vt 0.548165 0.810187
vt 0.548165 0.775840
vt 0.551285 0.775840
vt 0.524694 0.930122
vt 0.521574 0.930122
vt 0.521574 0.895776
vt 0.524694 0.895776
vt 0.216645 0.906295
vt 0.219819 0.906295
vt 0.219819 0.941234
vt 0.216645 0.941234
vt 0.216645 0.941234
vt 0.213472 0.941234
vt 0.213472 0.906295
vt 0.216645 0.906295
vt 0.197328 0.868784
vt 0.174371 0.868784
vt 0.174371 0.833844
vt 0.197328 0.833844
vt 0.441153 0.865197
vt 0.437775 0.865197
vt 0.437775 0.828012
vt 0.441153 0.828012
vt 0.538031 0.775840
vt 0.541409 0.775840
vt 0.541409 0.813025
vt 0.538031 0.813025
vt 0.439348 0.822158
vt 0.435970 0.822158
vt 0.435970 0.784973
vt 0.439348 0.784973
vt 0.544787 0.813025
vt 0.541409 0.813025
vt 0.541409 0.775840
vt 0.544787 0.775840
vt 0.102340 0.871653
vt 0.077486 0.871653
vt 0.077486 0.833826
vt 0.102340 0.833826
vt 0.488483 0.754284
vt 0.488483 0.717099
vt 0.512914 0.717099
vt 0.512914 0.754284
vt 0.524694 0.930122
vt 0.521574 0.930122
vt 0.521574 0.895776
vt 0.524694 0.895776
vt 0.547020 0.933597
vt 0.543900 0.933597
vt 0.543900 0.899251
vt 0.547020 0.899251
vt 0.551285 0.810187
vt 0.548165 0.810187
vt 0.548165 0.775840
vt 0.551285 0.775840
vt 0.553260 0.899251
vt 0.556380 0.899251
vt 0.556380 0.933597
vt 0.553260 0.933597
vt 0.197328 0.868784
vt 0.174371 0.868784
vt 0.174371 0.833844
vt 0.197328 0.833844
vt 0.448191 0.855243
vt 0.470757 0.855243
vt 0.470757 0.889589
vt 0.448191 0.889589
vt 0.229683 0.849282
vt 0.226992 0.849282
vt 0.226992 0.819658
vt 0.229683 0.819658
vt 0.220984 0.780752
vt 0.223675 0.780752
vt 0.223675 0.810376
vt 0.220984 0.810376
vt 0.223285 0.868784
vt 0.225976 0.868784
vt 0.225976 0.898408
vt 0.223285 0.898408
vt 0.228375 0.935918
vt 0.225684 0.935918
vt 0.225684 0.906295
vt 0.228375 0.906295
vt 0.216645 0.906295
vt 0.219819 0.906295
vt 0.219819 0.941234
vt 0.216645 0.941234
vt 0.220984 0.815692
vt 0.217810 0.815692
vt 0.217810 0.780752
vt 0.220984 0.780752
vt 0.216645 0.941234
vt 0.213472 0.941234
vt 0.213472 0.906295
vt 0.216645 0.906295
vt 0.193934 0.937699
vt 0.190760 0.937699
vt 0.190760 0.902759
vt 0.193934 0.902759
vt 0.214636 0.818580
vt 0.211200 0.818580
vt 0.211200 0.780752
vt 0.214636 0.780752
vt 0.107376 0.827870
vt 0.103940 0.827870
vt 0.103940 0.790043
vt 0.107376 0.790043
vt 0.200891 0.780752
vt 0.204327 0.780752
vt 0.204327 0.818580
vt 0.200891 0.818580
vt 0.109212 0.871653
vt 0.105776 0.871653
vt 0.105776 0.833826
vt 0.109212 0.833826
vt 0.218223 0.720997
vt 0.221309 0.720997
vt 0.221309 0.754972
vt 0.218223 0.754972
vt 0.223285 0.902759
vt 0.220199 0.902759
vt 0.220199 0.868784
vt 0.223285 0.868784
vt 0.224301 0.853633
vt 0.221215 0.853633
vt 0.221215 0.819658
vt 0.224301 0.819658
vt 0.172441 0.943101
vt 0.169355 0.943101
vt 0.169355 0.909126
vt 0.172441 0.909126
vt 0.220984 0.815692
vt 0.217810 0.815692
vt 0.217810 0.780752
vt 0.220984 0.780752
vt 0.547020 0.933597
vt 0.543900 0.933597
vt 0.543900 0.899251
vt 0.547020 0.899251
vt 0.553260 0.899251
vt 0.556380 0.899251
vt 0.556380 0.933597
vt 0.553260 0.933597
vt 0.193934 0.937699
vt 0.190760 0.937699
vt 0.190760 0.902759
vt 0.193934 0.902759
vn -0.0000 0.0000 -1.0000
vn 0.0000 1.0000 0.0000
vn -1.0000 0.0000 0.0000
vn 0.0000 0.2479 0.9688
vn 0.9688 0.2479 -0.0000
vn -0.0000 0.2479 -0.9688
vn -0.9688 0.2479 0.0000
vn 0.0000 0.0000 1.0000
vn 1.0000 0.0000 -0.0000
vn 0.0000 -1.0000 0.0000
usemtl Trees_Spring
s off
f 4/1/1 55/2/1 60/3/1 59/4/1
f 4/5/2 8/6/2 51/7/2 52/8/2
f 56/9/3 24/10/3 23/11/3 2/12/3
f 5/13/4 12/14/4 9/15/4 1/16/4
f 7/17/5 11/18/5 12/19/5 5/20/5
f 3/21/6 10/22/6 11/23/6 7/24/6
f 1/16/7 9/25/7 10/26/7 3/27/7
f 22/28/1 23/29/1 13/30/1 15/31/1
f 17/32/8 20/33/8 16/34/8 14/35/8
f 20/36/9 22/37/9 15/38/9 16/39/9
f 21/40/9 22/37/9 20/36/9 19/41/9
f 23/11/3 17/42/3 14/43/3 13/44/3
f 24/45/10 21/46/10 19/47/10 18/48/10
f 19/49/8 20/33/8 17/32/8 18/50/8
f 23/11/3 24/10/3 18/51/3 17/42/3
f 35/52/8 30/53/8 25/54/8 26/55/8
f 32/56/1 36/57/1 27/58/1 28/59/1
f 36/60/3 35/61/3 26/62/3 27/63/3
f 34/64/1 36/57/1 32/56/1 31/65/1
f 33/66/10 34/67/10 31/68/10 29/69/10
f 35/52/8 33/70/8 29/71/8 30/53/8
f 31/72/9 32/73/9 30/74/9 29/75/9
f 34/64/1 73/76/1 76/77/1 36/57/1
f 30/74/9 32/73/9 28/78/9 25/79/9
f 33/70/8 35/52/8 75/80/8 74/81/8
f 35/82/2 36/83/2 76/84/2 75/85/2
f 34/67/10 33/66/10 74/86/10 73/87/10
f 48/88/8 46/89/8 39/90/8 38/91/8
f 44/92/3 48/93/3 38/94/3 37/95/3
f 43/96/1 44/97/1 37/98/1 40/99/1
f 46/100/9 43/101/9 40/102/9 39/103/9
f 46/100/9 45/104/9 41/105/9 43/101/9
f 45/106/10 47/107/10 42/108/10 41/109/10
f 42/110/1 44/97/1 43/96/1 41/111/1
f 52/8/2 51/7/2 46/112/2 48/113/2
f 50/114/3 52/115/3 48/93/3 47/116/3
f 49/117/10 50/118/10 47/107/10 45/106/10
f 47/116/3 48/93/3 44/92/3 42/119/3
f 8/120/9 54/121/9 49/122/9 51/123/9
f 55/124/3 4/125/3 52/115/3 50/114/3
f 54/126/10 55/127/10 50/118/10 49/117/10
f 51/123/9 49/122/9 45/104/9 46/100/9
f 2/128/2 6/129/2 8/6/2 4/5/2
f 9/25/3 56/130/3 55/131/3 10/26/3
f 10/22/1 55/132/1 54/133/1 11/23/1
f 11/18/9 54/134/9 53/135/9 12/19/9
f 12/14/8 53/136/8 56/137/8 9/15/8
f 59/4/1 60/3/1 64/138/1 63/139/1
f 56/140/8 2/141/8 58/142/8 57/143/8
f 55/144/10 56/145/10 57/146/10 60/147/10
f 2/128/2 4/5/2 59/148/2 58/149/2
f 61/150/3 62/151/3 63/152/3 64/153/3
f 63/152/3 62/151/3 67/154/3 68/155/3
f 60/147/10 57/146/10 61/156/10 64/157/10
f 57/143/8 58/142/8 62/158/8 61/159/8
f 62/158/8 58/142/8 65/160/8 67/161/8
f 58/162/9 59/163/9 66/164/9 65/165/9
f 59/4/1 63/139/1 68/166/1 66/167/1
f 6/168/9 22/37/9 21/40/9 53/169/9
f 2/128/2 23/170/2 22/171/2 6/129/2
f 53/172/10 21/46/10 24/45/10 56/173/10
f 6/174/8 53/175/8 70/176/8 72/177/8
f 53/178/10 54/179/10 69/180/10 70/181/10
f 54/182/1 8/183/1 71/184/1 69/185/1
f 8/6/2 6/129/2 72/186/2 71/187/2
f 70/181/10 74/86/10 79/188/10 77/189/10
f 70/181/10 69/180/10 73/87/10 74/86/10
f 69/185/1 71/184/1 76/77/1 73/76/1
f 71/187/2 72/186/2 75/85/2 76/84/2
f 80/190/1 78/191/1 85/192/1 86/193/1
f 74/194/9 75/195/9 80/196/9 79/197/9
f 75/85/2 72/186/2 78/198/2 80/199/2
f 72/200/3 70/201/3 77/202/3 78/203/3
f 82/204/8 81/205/8 83/206/8 84/207/8
f 78/203/3 77/202/3 81/208/3 82/209/3
f 79/197/9 80/196/9 84/210/9 83/211/9
f 77/189/10 79/188/10 83/212/10 81/213/10
f 84/210/9 80/196/9 86/214/9 88/215/9
f 78/203/3 82/209/3 87/216/3 85/217/3
f 82/204/8 84/207/8 88/218/8 87/219/8
f 129/220/9 90/221/9 92/222/9 130/223/9
f 130/224/8 92/225/8 96/226/8 131/227/8
f 131/228/3 96/229/3 94/230/3 132/231/3
f 132/232/1 94/233/1 90/234/1 129/235/1
f 91/236/10 95/237/10 93/238/10 89/239/10
f 96/240/2 92/241/2 90/242/2 94/243/2
f 141/244/9 98/245/9 100/246/9 142/247/9
f 142/248/8 100/249/8 104/250/8 143/251/8
f 143/252/3 104/253/3 102/254/3 144/255/3
f 144/256/1 102/257/1 98/258/1 141/259/1
f 99/260/10 103/261/10 101/262/10 97/263/10
f 104/264/2 100/265/2 98/266/2 102/267/2
f 109/268/2 145/269/2 147/270/2 111/271/2
f 106/272/3 109/273/3 111/274/3 105/275/3
f 108/276/9 147/277/9 145/278/9 107/279/9
f 112/280/1 105/281/1 108/282/1 148/283/1
f 146/284/8 107/285/8 106/286/8 110/287/8
f 146/288/10 110/289/10 112/290/10 148/291/10
f 137/292/9 114/293/9 116/294/9 138/295/9
f 138/296/8 116/297/8 120/298/8 139/299/8
f 139/300/3 120/301/3 118/302/3 140/303/3
f 140/304/1 118/305/1 114/306/1 137/307/1
f 115/308/10 119/309/10 117/310/10 113/311/10
f 120/312/2 116/313/2 114/314/2 118/315/2
f 133/316/9 122/317/9 124/318/9 134/319/9
f 134/320/8 124/321/8 128/322/8 135/323/8
f 135/324/3 128/325/3 126/326/3 136/327/3
f 136/328/1 126/329/1 122/330/1 133/331/1
f 123/332/10 127/333/10 125/334/10 121/335/10
f 128/336/2 124/337/2 122/338/2 126/339/2
f 93/340/1 132/341/1 129/342/1 89/343/1
f 95/344/3 131/345/3 132/346/3 93/347/3
f 91/348/8 130/349/8 131/350/8 95/351/8
f 89/352/9 129/353/9 130/354/9 91/355/9
f 125/356/1 136/357/1 133/358/1 121/359/1
f 127/360/3 135/361/3 136/362/3 125/363/3
f 123/364/8 134/365/8 135/366/8 127/367/8
f 121/368/9 133/369/9 134/370/9 123/371/9
f 117/372/1 140/373/1 137/374/1 113/375/1
f 119/376/3 139/377/3 140/378/3 117/379/3
f 115/380/8 138/381/8 139/382/8 119/383/8
f 113/384/9 137/385/9 138/386/9 115/387/9
f 101/388/1 144/389/1 141/390/1 97/391/1
f 103/392/3 143/393/3 144/394/3 101/395/3
f 99/396/8 142/397/8 143/398/8 103/399/8
f 97/400/9 141/401/9 142/402/9 99/403/9
f 110/404/3 106/405/3 105/406/3 112/407/3
f 107/408/8 145/409/8 109/410/8 106/411/8
f 105/412/1 111/413/1 147/414/1 108/415/1
f 148/416/9 108/417/9 107/418/9 146/419/9
