# Blender v2.80 (sub 74) OBJ File: 'trees.blend'
# www.blender.org
mtllib evergreen1.mtl
o evergreen1_Cube.012
v -0.719775 0.000000 0.719780
v -0.374883 13.569113 0.374888
v -0.719775 0.000000 -0.719768
v -0.374883 13.569113 -0.374877
v 0.719775 0.000000 0.719780
v 0.374883 13.569113 0.374888
v 0.719775 0.000000 -0.719768
v 0.374883 13.569113 -0.374877
v -0.374883 1.180880 0.374888
v -0.374883 1.180880 -0.374877
v 0.374883 1.180880 -0.374877
v 0.374883 1.180880 0.374888
v -2.645493 10.325796 2.645503
v -2.645493 12.980351 2.645503
v -2.645493 10.325796 -2.645486
v -2.645493 12.980351 -2.645486
v 2.645495 10.325796 2.645503
v 2.645495 12.980351 2.645503
v 2.645495 10.325796 -2.645486
v 2.645495 12.980351 -2.645486
v -2.106465 14.525537 2.106466
v -2.106465 17.992567 2.106466
v -2.106465 14.525537 -2.106461
v -2.106465 17.992567 -2.106461
v 2.106467 14.525537 2.106466
v 2.106467 17.992567 2.106466
v 2.106467 14.525537 -2.106461
v 2.106467 17.992567 -2.106461
v -1.054756 19.040749 1.054763
v -1.054756 20.949162 1.054763
v -1.054756 19.040749 -1.054752
v -1.054756 20.949162 -1.054752
v 1.054758 19.040749 1.054763
v 1.054758 20.949162 1.054763
v 1.054758 19.040749 -1.054752
v 1.054758 20.949162 -1.054752
v -4.012536 4.048018 4.012541
v -4.012536 8.074292 4.012541
v -4.012536 4.048018 -4.012535
v -4.012536 8.074292 -4.012535
v 4.012538 4.048018 4.012541
v 4.012538 8.074292 4.012541
v 4.012538 4.048018 -4.012535
v 4.012538 8.074292 -4.012535
v -4.012536 6.645869 4.012541
v -4.012536 6.645869 -4.012535
v 4.012538 6.645869 -4.012535
v 4.012538 6.645869 4.012541
v -2.645493 12.257059 2.645503
v -2.645493 12.257059 -2.645486
v 2.645495 12.257059 -2.645486
v 2.645495 12.257059 2.645503
v -2.106465 16.865887 2.106466
v -2.106465 16.865887 -2.106461
v 2.106467 16.865887 -2.106461
v 2.106467 16.865887 2.106466
v -1.054756 20.347059 1.054763
v -1.054756 20.347059 -1.054752
v 1.054758 20.347059 -1.054752
v 1.054758 20.347059 1.054763
v -0.374883 4.526707 0.374888
v -0.374883 4.526707 -0.374877
v 0.374883 4.526707 -0.374877
v 0.374883 4.526707 0.374888
v -0.374883 9.900083 0.374888
v -0.374883 9.900083 -0.374877
v 0.374883 9.900083 -0.374877
v 0.374883 9.900083 0.374888
v -0.374883 9.063625 -0.374877
v 0.374883 9.063625 -0.374877
v 0.374883 9.063625 0.374888
v -0.374883 9.063626 0.374888
v -0.374883 2.853793 -0.374877
v 0.374883 2.853793 -0.374877
v 0.374883 2.853793 0.374888
v -0.374883 2.853794 0.374888
v -0.374883 3.690250 0.374888
v -0.374883 3.690250 -0.374877
v 0.374883 3.690250 -0.374877
v 0.374883 3.690250 0.374888
v 0.374883 3.690250 3.373949
v 0.374883 2.853793 3.373949
v -0.374883 2.853794 3.373949
v -0.374883 3.690250 3.373949
v 3.748826 3.690250 -0.374877
v 3.748826 2.853793 -0.374877
v 3.748826 3.690250 0.374888
v 3.748826 2.853793 0.374888
v -0.374883 3.690250 -3.373937
v -0.374883 2.853793 -3.373937
v 0.374883 3.690250 -3.373937
v 0.374883 2.853793 -3.373937
v -3.748826 3.690250 -0.374877
v -3.748826 2.853793 -0.374877
v -3.748826 2.853794 0.374888
v -3.748826 3.690250 0.374888
v -1.499530 9.063626 0.374888
v -1.499530 9.900083 0.374888
v -1.499530 9.900083 -0.374877
v -1.499530 9.063625 -0.374877
v 1.499530 9.900083 -0.374877
v 1.499530 9.900083 0.374888
v 1.499530 9.063625 -0.374877
v 1.499530 9.063625 0.374888
v -0.374883 19.480400 0.374888
v -0.374883 19.480400 -0.374877
v 0.374883 19.480400 -0.374877
v 0.374883 19.480400 0.374888
v -0.374883 14.881202 -0.374877
v 0.374883 14.881202 -0.374877
v 0.374883 14.881202 0.374888
v -0.374883 14.881202 0.374888
v 0.374883 14.225157 -0.374877
v 0.374883 14.225157 0.374888
v -0.374883 14.225157 -0.374877
v -0.374883 14.225157 0.374888
v -0.374883 13.569113 -1.124642
v 0.374883 13.569113 -1.124642
v 0.374883 14.225157 -1.124642
v -0.374883 14.225157 -1.124642
v 3.074037 3.690250 0.374888
v 3.074037 3.690250 -0.374877
v 3.074037 2.853793 -0.374877
v 3.074037 2.853793 0.374888
v 0.374883 2.853793 -2.624172
v 0.374883 3.690250 -2.624172
v -0.374883 3.690250 -2.624172
v -0.374883 2.853793 -2.624172
v -0.374883 2.853794 2.811625
v -0.374883 3.690250 2.811625
v 0.374883 3.690250 2.811625
v 0.374883 2.853793 2.811625
v -2.978499 3.690250 -0.374877
v -2.978499 3.690250 0.374888
v -2.978499 2.853794 0.374888
v -2.978499 2.853793 -0.374877
v 0.374883 5.061901 3.373949
v -0.374883 5.061901 3.373949
v 3.748826 5.061901 -0.374877
v 3.748826 5.061901 0.374888
v 3.074037 5.061901 0.374888
v -0.374883 5.061901 -3.373937
v 0.374883 5.061901 -3.373937
v -3.748826 5.061901 0.374888
v -3.748826 5.061901 -0.374877
v -2.978499 5.061901 -0.374877
v 3.074037 5.061901 -0.374877
v 0.374883 5.061901 -2.624172
v -0.374883 5.061901 -2.624172
v -0.374883 5.061901 2.811625
v 0.374883 5.061901 2.811625
v -2.978499 5.061901 0.374888
v -0.374883 13.569113 -1.874407
v 0.374883 13.569113 -1.874407
v 0.374883 14.225157 -1.874407
v -0.374883 14.225157 -1.874407
v -0.374883 14.974922 -1.124642
v 0.374883 14.974922 -1.124642
v -0.374883 14.974922 -1.874407
v 0.374883 14.974922 -1.874407
v 2.249295 9.900083 -0.374877
v 2.249295 9.900083 0.374888
v 2.249295 9.063625 -0.374877
v 2.249295 9.063625 0.374888
v 1.499530 11.024730 -0.374877
v 1.499530 11.024730 0.374888
v 2.249295 11.024730 -0.374877
v 2.249295 11.024730 0.374888
v -2.249295 9.063626 0.374888
v -2.249295 9.900083 0.374888
v -2.249295 9.900083 -0.374877
v -2.249295 9.063625 -0.374877
v -1.499530 10.649848 0.374888
v -1.499530 10.649848 -0.374877
v -2.249295 10.649848 0.374888
v -2.249295 10.649848 -0.374877
v -0.374883 9.063626 1.124653
v -0.374883 9.900083 1.124653
v 0.374883 9.900083 1.124653
v 0.374883 9.063625 1.124653
v -0.374883 9.063626 1.874418
v -0.374883 9.900083 1.874418
v 0.374883 9.900083 1.874418
v 0.374883 9.063625 1.874418
v 0.374883 11.024730 1.124653
v -0.374883 11.024730 1.124653
v 0.374883 11.024730 1.874418
v -0.374883 11.024730 1.874418
vt 0.185268 0.519589
vt 0.185268 0.500817
vt 0.189098 0.500817
vt 0.189098 0.519589
vt 0.142224 0.448287
vt 0.142224 0.429515
vt 0.146054 0.429515
vt 0.146054 0.448287
vt 0.204416 0.478530
vt 0.204416 0.459758
vt 0.208246 0.459758
vt 0.208246 0.478530
vt 0.221804 0.478530
vt 0.221804 0.459758
vt 0.225634 0.459758
vt 0.225634 0.478530
vt 0.231853 0.502060
vt 0.228023 0.502060
vt 0.228023 0.478530
vt 0.231853 0.478530
vt 0.176192 0.485189
vt 0.177954 0.479133
vt 0.181784 0.479133
vt 0.183545 0.485189
vt 0.196546 0.555759
vt 0.198308 0.549703
vt 0.202137 0.549703
vt 0.203899 0.555759
vt 0.176192 0.499804
vt 0.177954 0.493748
vt 0.181784 0.493748
vt 0.183545 0.499804
vt 0.220345 0.534204
vt 0.222107 0.528148
vt 0.225936 0.528148
vt 0.227698 0.534204
vt 0.570376 0.863152
vt 0.566490 0.863152
vt 0.566490 0.834677
vt 0.570376 0.834677
vt 0.578453 0.819963
vt 0.574567 0.819963
vt 0.574567 0.791488
vt 0.578453 0.791488
vt 0.484193 0.826309
vt 0.488079 0.826309
vt 0.488079 0.854784
vt 0.484193 0.854784
vt 0.571911 0.768406
vt 0.568025 0.768406
vt 0.568025 0.739931
vt 0.571911 0.739931
vt 0.168959 0.897192
vt 0.168959 0.868402
vt 0.197700 0.868402
vt 0.197700 0.897192
vt 0.473817 0.826309
vt 0.473817 0.854784
vt 0.445390 0.854784
vt 0.445390 0.826309
vt 0.518730 0.877457
vt 0.512677 0.877457
vt 0.512677 0.854784
vt 0.518730 0.854784
vt 0.457964 0.854784
vt 0.464017 0.854784
vt 0.464017 0.877457
vt 0.457964 0.877457
vt 0.470070 0.877457
vt 0.464017 0.854784
vt 0.470070 0.854784
vt 0.568513 0.791488
vt 0.574567 0.791488
vt 0.574567 0.814161
vt 0.568513 0.814161
vt 0.223366 0.876863
vt 0.223366 0.899786
vt 0.200481 0.899786
vt 0.200481 0.876863
vt 0.511142 0.836284
vt 0.511142 0.858957
vt 0.488507 0.858957
vt 0.488507 0.836284
vt 0.501995 0.886450
vt 0.498760 0.886450
vt 0.498760 0.875097
vt 0.501995 0.875097
vt 0.558953 0.884077
vt 0.555718 0.884077
vt 0.555718 0.872724
vt 0.558953 0.872724
vt 0.583987 0.861404
vt 0.580752 0.861404
vt 0.580752 0.850051
vt 0.583987 0.850051
vt 0.495525 0.875097
vt 0.498760 0.875097
vt 0.495525 0.886450
vt 0.187791 0.915550
vt 0.199250 0.915550
vt 0.199250 0.927028
vt 0.187791 0.927028
vt 0.579137 0.820966
vt 0.579137 0.832319
vt 0.567803 0.832319
vt 0.567803 0.820966
vt 0.520351 0.826309
vt 0.512677 0.826309
vt 0.512677 0.783120
vt 0.520351 0.783120
vt 0.496181 0.836284
vt 0.488507 0.836284
vt 0.488507 0.793095
vt 0.496181 0.793095
vt 0.520351 0.783120
vt 0.512677 0.783120
vt 0.512677 0.739931
vt 0.520351 0.739931
vt 0.541983 0.783120
vt 0.534308 0.783120
vt 0.534308 0.739931
vt 0.541983 0.739931
vt 0.100929 0.868402
vt 0.100929 0.824736
vt 0.144522 0.824736
vt 0.144522 0.868402
vt 0.488507 0.739931
vt 0.488507 0.783120
vt 0.445390 0.783120
vt 0.445390 0.739931
vt 0.212699 0.824736
vt 0.198588 0.824736
vt 0.198588 0.781070
vt 0.212699 0.781070
vt 0.190829 0.824736
vt 0.176718 0.824736
vt 0.176718 0.781070
vt 0.190829 0.781070
vt 0.166392 0.878487
vt 0.152281 0.878487
vt 0.152281 0.834821
vt 0.166392 0.834821
vt 0.190829 0.868402
vt 0.176718 0.868402
vt 0.176718 0.824736
vt 0.190829 0.824736
vt 0.239337 0.809860
vt 0.228847 0.809860
vt 0.228847 0.781070
vt 0.239337 0.781070
vt 0.129671 0.868402
vt 0.140161 0.868402
vt 0.140161 0.897192
vt 0.129671 0.897192
vt 0.245951 0.861986
vt 0.235461 0.861986
vt 0.235461 0.833197
vt 0.245951 0.833197
vt 0.237785 0.905652
vt 0.227295 0.905652
vt 0.227295 0.876863
vt 0.237785 0.876863
vt 0.212699 0.833197
vt 0.225412 0.833197
vt 0.225412 0.856120
vt 0.212699 0.856120
vt 0.138594 0.920115
vt 0.125882 0.920115
vt 0.125882 0.897192
vt 0.138594 0.897192
vt 0.100929 0.897192
vt 0.113642 0.897192
vt 0.113642 0.920115
vt 0.100929 0.920115
vt 0.187791 0.920115
vt 0.175079 0.920115
vt 0.175079 0.897192
vt 0.187791 0.897192
vt 0.144522 0.917729
vt 0.151618 0.917729
vt 0.151618 0.929207
vt 0.144522 0.929207
vt 0.248151 0.903884
vt 0.241056 0.903884
vt 0.241056 0.892406
vt 0.248151 0.892406
vt 0.222842 0.926808
vt 0.215746 0.926808
vt 0.215746 0.915329
vt 0.222842 0.915329
vt 0.165255 0.929207
vt 0.158159 0.929207
vt 0.158159 0.917729
vt 0.165255 0.917729
vt 0.127076 0.566195
vt 0.127076 0.561916
vt 0.130906 0.561916
vt 0.130906 0.566195
vt 0.231528 0.506713
vt 0.231528 0.510992
vt 0.227698 0.510992
vt 0.227698 0.506713
vt 0.142224 0.480057
vt 0.142224 0.475778
vt 0.146054 0.475778
vt 0.146054 0.480057
vt 0.229463 0.429515
vt 0.229463 0.433795
vt 0.225634 0.433795
vt 0.225634 0.429515
vt 0.219735 0.477684
vt 0.215905 0.477684
vt 0.215905 0.473848
vt 0.219735 0.473848
vt 0.146054 0.452566
vt 0.151798 0.448287
vt 0.151798 0.452566
vt 0.142224 0.452566
vt 0.136480 0.452566
vt 0.136480 0.448287
vt 0.229463 0.457006
vt 0.225634 0.457006
vt 0.231528 0.534204
vt 0.227698 0.534204
vt 0.127076 0.538704
vt 0.130906 0.538704
vt 0.222107 0.519589
vt 0.225936 0.519589
vt 0.177954 0.485189
vt 0.181784 0.485189
vt 0.198308 0.541144
vt 0.202137 0.541144
vt 0.177954 0.470574
vt 0.181784 0.470574
vt 0.177608 0.542645
vt 0.177608 0.538704
vt 0.184614 0.538704
vt 0.184614 0.542645
vt 0.139656 0.554179
vt 0.143928 0.554179
vt 0.143928 0.558015
vt 0.139656 0.558015
vt 0.235357 0.527051
vt 0.231528 0.527051
vt 0.231528 0.520034
vt 0.235357 0.520034
vt 0.213792 0.559126
vt 0.218065 0.559126
vt 0.218065 0.562004
vt 0.213792 0.562004
vt 0.118161 0.571556
vt 0.118161 0.567276
vt 0.121991 0.567276
vt 0.121991 0.571556
vt 0.233173 0.570939
vt 0.229343 0.570939
vt 0.229343 0.563922
vt 0.233173 0.563922
vt 0.155206 0.545548
vt 0.150934 0.545548
vt 0.150934 0.542671
vt 0.155206 0.542671
vt 0.229463 0.457327
vt 0.233293 0.457327
vt 0.233293 0.460204
vt 0.229463 0.460204
vt 0.125820 0.560259
vt 0.125820 0.564538
vt 0.121991 0.564538
vt 0.121991 0.560259
vt 0.196546 0.544596
vt 0.192274 0.544596
vt 0.192274 0.541144
vt 0.196546 0.541144
vt 0.229463 0.460459
vt 0.225634 0.460459
vt 0.225634 0.457006
vt 0.229463 0.457006
vt 0.212518 0.460038
vt 0.208246 0.460038
vt 0.208246 0.456586
vt 0.212518 0.456586
vt 0.159457 0.560259
vt 0.159457 0.564538
vt 0.155628 0.564538
vt 0.155628 0.560259
vt 0.233922 0.541221
vt 0.230092 0.541221
vt 0.230092 0.534204
vt 0.233922 0.534204
vt 0.229343 0.550495
vt 0.225071 0.550495
vt 0.225071 0.546659
vt 0.229343 0.546659
vt 0.233293 0.433351
vt 0.229463 0.433351
vt 0.229463 0.429515
vt 0.233293 0.429515
vt 0.114331 0.571556
vt 0.114331 0.567276
vt 0.118161 0.567276
vt 0.118161 0.571556
vt 0.196757 0.513406
vt 0.201029 0.513406
vt 0.201029 0.517347
vt 0.196757 0.517347
vt 0.229343 0.559980
vt 0.233173 0.559980
vt 0.233173 0.563922
vt 0.229343 0.563922
vt 0.173336 0.542645
vt 0.173336 0.538704
vt 0.132650 0.452566
vt 0.132650 0.448287
vt 0.176192 0.499804
vt 0.180465 0.499804
vt 0.180465 0.505558
vt 0.176192 0.505558
vt 0.196546 0.566552
vt 0.200376 0.566552
vt 0.200376 0.572306
vt 0.196546 0.572306
vt 0.167117 0.560259
vt 0.170946 0.560259
vt 0.170946 0.566013
vt 0.167117 0.566013
vt 0.189098 0.564160
vt 0.189098 0.568439
vt 0.185268 0.568439
vt 0.185268 0.564160
vt 0.211865 0.505839
vt 0.208035 0.505839
vt 0.208035 0.500085
vt 0.211865 0.500085
vt 0.206787 0.562004
vt 0.210616 0.562004
vt 0.210616 0.567758
vt 0.206787 0.567758
vt 0.194842 0.564160
vt 0.194842 0.568439
vt 0.208246 0.453046
vt 0.204416 0.453046
vt 0.204416 0.429515
vt 0.208246 0.429515
vt 0.189098 0.494105
vt 0.185268 0.494105
vt 0.185268 0.470574
vt 0.189098 0.470574
vt 0.225634 0.453046
vt 0.221804 0.453046
vt 0.221804 0.429515
vt 0.225634 0.429515
vt 0.225634 0.456402
vt 0.221804 0.456402
vt 0.189098 0.497461
vt 0.185268 0.497461
vt 0.208246 0.456402
vt 0.204416 0.456402
vt 0.231853 0.505416
vt 0.228023 0.505416
vt 0.200587 0.459758
vt 0.200587 0.456402
vt 0.225634 0.478105
vt 0.225634 0.474269
vt 0.229463 0.474269
vt 0.229463 0.478105
vt 0.218276 0.562004
vt 0.222105 0.562004
vt 0.222105 0.565840
vt 0.218276 0.565840
vt 0.208246 0.473848
vt 0.212075 0.473848
vt 0.212075 0.477684
vt 0.208246 0.477684
vt 0.192927 0.497461
vt 0.192927 0.500817
vt 0.212518 0.473848
vt 0.208246 0.473848
vt 0.229463 0.474269
vt 0.225634 0.474269
vt 0.196546 0.558406
vt 0.192274 0.558406
vt 0.233293 0.474014
vt 0.229463 0.474014
vt 0.229463 0.460204
vt 0.233293 0.460204
vt 0.233293 0.444860
vt 0.229463 0.444860
vt 0.229343 0.562004
vt 0.225071 0.562004
vt 0.110502 0.560259
vt 0.114331 0.560259
vt 0.114331 0.571767
vt 0.110502 0.571767
vt 0.139656 0.542671
vt 0.143928 0.542671
vt 0.229463 0.444860
vt 0.233293 0.444860
vt 0.155206 0.558015
vt 0.150934 0.558015
vt 0.110502 0.572726
vt 0.106672 0.572726
vt 0.106672 0.560259
vt 0.110502 0.560259
vt 0.213792 0.546659
vt 0.218065 0.546659
vt 0.177608 0.555966
vt 0.173336 0.555966
vt 0.229343 0.546659
vt 0.233173 0.546659
vt 0.196757 0.500085
vt 0.201029 0.500085
vt 0.235357 0.520034
vt 0.231528 0.520034
vt 0.231528 0.506713
vt 0.235357 0.506713
vt 0.185268 0.544596
vt 0.185268 0.541144
vt 0.127076 0.566195
vt 0.130906 0.566195
vt 0.130906 0.573213
vt 0.127076 0.573213
vt 0.132650 0.558015
vt 0.132650 0.554179
vt 0.206787 0.562004
vt 0.206787 0.559126
vt 0.218065 0.550495
vt 0.218065 0.546659
vt 0.208035 0.513406
vt 0.208035 0.517347
vt 0.143928 0.545548
vt 0.143928 0.542671
vt 0.118161 0.560259
vt 0.121991 0.560259
vt 0.125820 0.571556
vt 0.121991 0.571556
vt 0.159457 0.571556
vt 0.155628 0.571556
vt 0.219524 0.456586
vt 0.219524 0.460038
vt 0.114331 0.560259
vt 0.118161 0.560259
vt 0.225935 0.569196
vt 0.222105 0.569196
vt 0.222105 0.565839
vt 0.225935 0.565839
vt 0.196757 0.459758
vt 0.196757 0.456402
vt 0.196757 0.497461
vt 0.196757 0.500817
vt 0.222105 0.569676
vt 0.218276 0.569676
vt 0.196757 0.452566
vt 0.200587 0.452566
vt 0.192927 0.493625
vt 0.196757 0.493625
vt 0.222105 0.562004
vt 0.225935 0.562004
vt 0.167117 0.560259
vt 0.167117 0.564538
vt 0.163287 0.564538
vt 0.163287 0.560259
vt 0.204205 0.572306
vt 0.200376 0.572306
vt 0.200376 0.566552
vt 0.204205 0.566552
vt 0.210616 0.571594
vt 0.206787 0.571594
vt 0.155628 0.448287
vt 0.155628 0.452566
vt 0.151798 0.442533
vt 0.155628 0.442533
vt 0.167117 0.570292
vt 0.163287 0.570292
vt 0.185268 0.558406
vt 0.189098 0.558406
vt 0.214446 0.562004
vt 0.214446 0.566283
vt 0.210616 0.566283
vt 0.210616 0.562004
vt 0.180465 0.509395
vt 0.176192 0.509395
vt 0.170946 0.569849
vt 0.167117 0.569849
vt 0.132650 0.444451
vt 0.136480 0.444451
vt 0.214446 0.570119
vt 0.210616 0.570119
vt 0.184294 0.505558
vt 0.184294 0.509395
vt 0.180995 0.566759
vt 0.180995 0.570595
vt 0.177166 0.570595
vt 0.177166 0.566759
vt 0.222640 0.516587
vt 0.222640 0.512308
vt 0.226469 0.512308
vt 0.226469 0.516587
vt 0.218276 0.569676
vt 0.214446 0.569676
vt 0.214446 0.565840
vt 0.218276 0.565840
vt 0.091660 0.564538
vt 0.091660 0.560259
vt 0.095490 0.560259
vt 0.095490 0.564538
vt 0.218810 0.516587
vt 0.218810 0.512308
vt 0.159457 0.570292
vt 0.159457 0.566013
vt 0.163287 0.566013
vt 0.163287 0.570292
vt 0.099319 0.560259
vt 0.099319 0.564538
vt 0.214446 0.562004
vt 0.218276 0.562004
vt 0.099319 0.570292
vt 0.095490 0.570292
vt 0.159457 0.560259
vt 0.163287 0.560259
vt 0.177166 0.572513
vt 0.173336 0.572513
vt 0.173336 0.566759
vt 0.177166 0.566759
vt 0.222640 0.506554
vt 0.226469 0.506554
vn -1.0000 0.0000 0.0000
vn 0.0000 0.0000 -1.0000
vn 1.0000 0.0000 0.0000
vn 0.0000 0.0000 1.0000
vn 0.0000 0.2804 0.9599
vn 0.9599 0.2804 0.0000
vn 0.0000 0.2804 -0.9599
vn -0.9599 0.2804 0.0000
vn 0.0000 -1.0000 0.0000
vn 0.0000 1.0000 0.0000
usemtl Trees_Spring
s off
f 65/1/1 2/2/1 4/3/1 66/4/1
f 66/5/2 4/6/2 8/7/2 67/8/2
f 67/9/3 8/10/3 6/11/3 68/12/3
f 68/13/4 6/14/4 2/15/4 65/16/4
f 110/17/2 109/18/2 106/19/2 107/20/2
f 5/21/5 12/22/5 9/23/5 1/24/5
f 7/25/6 11/26/6 12/27/6 5/28/6
f 3/29/7 10/30/7 11/31/7 7/32/7
f 1/33/8 9/34/8 10/35/8 3/36/8
f 49/37/1 14/38/1 16/39/1 50/40/1
f 50/41/2 16/42/2 20/43/2 51/44/2
f 51/45/3 20/46/3 18/47/3 52/48/3
f 52/49/4 18/50/4 14/51/4 49/52/4
f 15/53/9 19/54/9 17/55/9 13/56/9
f 20/57/10 16/58/10 14/59/10 18/60/10
f 53/61/1 22/62/1 24/63/1 54/64/1
f 54/65/2 24/66/2 28/67/2 55/68/2
f 55/69/3 28/67/3 26/70/3 56/71/3
f 56/72/4 26/73/4 22/74/4 53/75/4
f 23/76/9 27/77/9 25/78/9 21/79/9
f 28/80/10 24/81/10 22/82/10 26/83/10
f 57/84/1 30/85/1 32/86/1 58/87/1
f 58/88/2 32/89/2 36/90/2 59/91/2
f 59/92/3 36/93/3 34/94/3 60/95/3
f 60/96/4 34/97/4 30/85/4 57/98/4
f 31/99/9 35/100/9 33/101/9 29/102/9
f 36/103/10 32/104/10 30/105/10 34/106/10
f 45/107/1 38/108/1 40/109/1 46/110/1
f 46/111/2 40/112/2 44/113/2 47/114/2
f 47/115/3 44/116/3 42/117/3 48/118/3
f 48/119/4 42/120/4 38/121/4 45/122/4
f 39/123/9 43/124/9 41/125/9 37/126/9
f 44/127/10 40/128/10 38/129/10 42/130/10
f 41/131/4 48/132/4 45/133/4 37/134/4
f 43/135/3 47/136/3 48/137/3 41/138/3
f 39/139/2 46/140/2 47/141/2 43/142/2
f 37/143/1 45/144/1 46/145/1 39/146/1
f 17/147/4 52/148/4 49/149/4 13/150/4
f 19/151/3 51/152/3 52/153/3 17/154/3
f 15/155/2 50/156/2 51/157/2 19/158/2
f 13/159/1 49/160/1 50/161/1 15/162/1
f 25/163/4 56/164/4 53/165/4 21/166/4
f 27/167/3 55/168/3 56/169/3 25/170/3
f 23/171/2 54/172/2 55/173/2 27/174/2
f 21/175/1 53/176/1 54/177/1 23/178/1
f 33/179/4 60/180/4 57/181/4 29/182/4
f 35/183/3 59/184/3 60/185/3 33/186/3
f 31/187/2 58/188/2 59/189/2 35/190/2
f 29/191/1 57/192/1 58/193/1 31/194/1
f 80/195/4 64/196/4 61/197/4 77/198/4
f 79/199/3 63/200/3 64/201/3 80/202/3
f 78/203/2 62/204/2 63/205/2 79/206/2
f 77/207/1 61/208/1 62/209/1 78/210/1
f 68/211/10 65/212/10 178/213/10 179/214/10
f 70/215/2 67/8/2 101/216/2 103/217/2
f 69/218/2 66/5/2 67/8/2 70/215/2
f 66/5/2 69/218/2 100/219/2 99/220/2
f 61/208/1 72/221/1 69/222/1 62/209/1
f 62/204/2 69/218/2 70/215/2 63/205/2
f 63/200/3 70/223/3 71/224/3 64/201/3
f 64/196/4 71/225/4 72/226/4 61/197/4
f 9/34/1 76/227/1 73/228/1 10/35/1
f 10/30/2 73/229/2 74/230/2 11/31/2
f 11/26/3 74/231/3 75/232/3 12/27/3
f 12/22/4 75/233/4 76/234/4 9/23/4
f 133/235/2 93/236/2 145/237/2 146/238/2
f 126/239/3 125/240/3 92/241/3 91/242/3
f 131/243/2 130/244/2 150/245/2 151/246/2
f 130/247/1 129/248/1 83/249/1 84/250/1
f 82/251/4 81/252/4 84/253/4 83/254/4
f 122/255/1 121/256/1 141/257/1 147/258/1
f 132/259/3 131/260/3 81/261/3 82/262/3
f 129/263/9 132/264/9 82/265/9 83/266/9
f 86/267/3 85/268/3 87/269/3 88/270/3
f 123/271/2 122/272/2 85/273/2 86/274/2
f 124/275/9 123/276/9 86/277/9 88/278/9
f 121/279/4 124/280/4 88/281/4 87/282/4
f 90/283/2 89/284/2 91/285/2 92/286/2
f 127/287/4 126/288/4 148/289/4 149/290/4
f 128/291/1 127/292/1 89/293/1 90/294/1
f 125/295/9 128/296/9 90/297/9 92/298/9
f 95/299/1 96/300/1 93/301/1 94/302/1
f 135/303/4 134/304/4 96/305/4 95/306/4
f 136/307/9 135/308/9 95/309/9 94/310/9
f 133/235/2 136/311/2 94/312/2 93/236/2
f 99/220/2 100/219/2 172/313/2 171/314/2
f 72/315/4 65/316/4 98/317/4 97/318/4
f 65/319/10 66/320/10 99/321/10 98/322/10
f 69/323/9 72/324/9 97/325/9 100/326/9
f 102/327/4 104/328/4 164/329/4 162/330/4
f 67/331/10 68/332/10 102/333/10 101/334/10
f 71/335/9 70/336/9 103/337/9 104/338/9
f 68/339/4 71/340/4 104/328/4 102/327/4
f 111/341/3 110/342/3 107/343/3 108/344/3
f 109/345/1 112/346/1 105/347/1 106/348/1
f 112/349/4 111/350/4 108/351/4 105/352/4
f 116/353/4 114/354/4 111/350/4 112/349/4
f 115/355/1 116/356/1 112/346/1 109/345/1
f 114/357/3 113/358/3 110/342/3 111/341/3
f 113/359/2 115/360/2 109/18/2 110/17/2
f 113/358/3 8/10/3 118/361/3 119/362/3
f 6/11/3 8/10/3 113/358/3 114/357/3
f 4/3/1 2/2/1 116/356/1 115/355/1
f 2/15/4 6/14/4 114/354/4 116/353/4
f 120/363/4 119/364/4 158/365/4 157/366/4
f 8/367/9 4/368/9 117/369/9 118/370/9
f 115/371/10 113/372/10 119/373/10 120/374/10
f 4/3/1 115/355/1 120/375/1 117/376/1
f 80/377/4 75/378/4 124/280/4 121/279/4
f 75/379/9 74/380/9 123/276/9 124/275/9
f 74/381/2 79/382/2 122/272/2 123/271/2
f 79/383/10 80/384/10 121/385/10 122/386/10
f 74/387/9 73/388/9 128/296/9 125/295/9
f 73/389/1 78/390/1 127/292/1 128/291/1
f 78/391/10 79/392/10 126/393/10 127/394/10
f 79/395/3 74/396/3 125/240/3 126/239/3
f 76/397/9 75/398/9 132/264/9 129/263/9
f 75/399/3 80/400/3 131/260/3 132/259/3
f 80/401/10 77/402/10 130/403/10 131/404/10
f 77/405/1 76/406/1 129/248/1 130/247/1
f 78/407/2 73/408/2 136/311/2 133/235/2
f 73/409/9 76/410/9 135/308/9 136/307/9
f 76/411/4 77/412/4 134/304/4 135/303/4
f 77/413/10 78/414/10 133/415/10 134/416/10
f 85/273/2 122/272/2 147/417/2 139/418/2
f 134/419/3 133/420/3 146/421/3 152/422/3
f 126/239/3 91/242/3 143/423/3 148/424/3
f 130/247/1 84/250/1 138/425/1 150/426/1
f 89/293/1 127/292/1 149/427/1 142/428/1
f 96/305/4 134/304/4 152/429/4 144/430/4
f 81/261/3 131/260/3 151/431/3 137/432/3
f 84/253/4 81/252/4 137/433/4 138/434/4
f 87/269/3 85/268/3 139/435/3 140/436/3
f 91/285/2 89/284/2 142/437/2 143/438/2
f 121/279/4 87/282/4 140/439/4 141/440/4
f 93/301/1 96/300/1 144/441/1 145/442/1
f 154/443/2 153/444/2 156/445/2 155/446/2
f 119/362/3 118/361/3 154/447/3 155/448/3
f 117/376/1 120/375/1 156/449/1 153/450/1
f 118/370/9 117/369/9 153/451/9 154/452/9
f 119/362/3 155/448/3 160/453/3 158/454/3
f 156/449/1 120/375/1 157/455/1 159/456/1
f 155/446/2 156/445/2 159/457/2 160/458/2
f 163/459/3 161/460/3 162/461/3 164/462/3
f 101/463/1 102/464/1 166/465/1 165/466/1
f 104/338/9 103/337/9 163/467/9 164/468/9
f 103/217/2 101/216/2 161/469/2 163/470/2
f 161/469/2 101/216/2 165/471/2 167/472/2
f 162/461/3 161/460/3 167/473/3 168/474/3
f 102/327/4 162/330/4 168/475/4 166/476/4
f 169/477/1 170/478/1 171/479/1 172/480/1
f 97/318/4 98/317/4 170/481/4 169/482/4
f 100/326/9 97/325/9 169/483/9 172/484/9
f 99/220/2 171/314/2 176/485/2 174/486/2
f 171/479/1 170/478/1 175/487/1 176/488/1
f 170/481/4 98/317/4 173/489/4 175/490/4
f 98/491/3 99/492/3 174/493/3 173/494/3
f 180/495/3 179/496/3 183/497/3 184/498/3
f 72/499/9 71/500/9 180/501/9 177/502/9
f 65/503/1 72/504/1 177/505/1 178/506/1
f 71/507/3 68/508/3 179/496/3 180/495/3
f 184/509/4 183/510/4 182/511/4 181/512/4
f 178/506/1 177/505/1 181/513/1 182/514/1
f 177/502/9 180/501/9 184/515/9 181/516/9
f 178/506/1 182/514/1 188/517/1 186/518/1
f 182/511/4 183/510/4 187/519/4 188/520/4
f 179/521/2 178/522/2 186/523/2 185/524/2
f 183/497/3 179/496/3 185/525/3 187/526/3
